<mxfile host="app.diagrams.net" modified="2021-04-22T11:08:41.369Z" agent="5.0 (Windows NT 10.0; Win64; x64) AppleWebKit/537.36 (KHTML, like Gecko) Chrome/90.0.4430.85 Safari/537.36" etag="Ai2dmhA_-9Dxo86vLahx" version="14.6.5" type="github">
  <diagram name="Page-1" id="099fd60b-425b-db50-ffb0-6b813814b670">
    <mxGraphModel dx="2297" dy="1850" grid="1" gridSize="10" guides="1" tooltips="1" connect="1" arrows="1" fold="1" page="1" pageScale="1" pageWidth="850" pageHeight="1100" background="#ffffff" math="0" shadow="0">
      <root>
        <mxCell id="0" />
        <mxCell id="1" parent="0" />
        <mxCell id="qkxyxw7EoVa49rTZsXIX-46" value="&amp;nbsp;" style="rounded=0;whiteSpace=wrap;html=1;fontSize=20;" vertex="1" parent="1">
          <mxGeometry x="-105" y="410" width="810" height="640" as="geometry" />
        </mxCell>
        <mxCell id="qkxyxw7EoVa49rTZsXIX-4" value="" style="shape=image;verticalLabelPosition=bottom;labelBackgroundColor=#ffffff;verticalAlign=top;aspect=fixed;imageAspect=0;image=data:image/png,iVBORw0KGgoAAAANSUhEUgAAAlkAAAHWCAYAAABE9pzXAAAgAElEQVR4AezdZ7Bexbkv+PtxaqqmZmpu1XyZqblzq+659/qe43N8jn2NTTYYxwPGBpNzMBmMybYxOSeBUM4SIBRQAAlJIEASAgUkUBYggchC5GiMU0/9Gp7tpdd7S3trB72hV9V6e71r9erV/e/u5/n308/q9R9S2QoCBYGGRuCvf/1r2tYehYs48b+EfYtA4B9hPN3/v/zlL1vVYVwrYUGgINDYCPyHxs5+yX1BoLURoKD//Oc/pz/+8Y95/9Of/rTV8eeff54+/vjj9M4776TXX389vfLKK237a6+9ll599dWy9wEGL7/8crLD/4033kjvvvtu+vTTT5P6sqsndehYfarXshUECgKNj0AhWY1fh6UELYxAkKw//OEP6fe//3367LPP2vb3338/Pf/882nhwoVpxowZaeLEiemee+7J+7333pvK3ncYwH38+PFpwoQJ6b777kszZ85MTz75ZNq0aVP68MMPk/qLHdkqJKuFO3UpelMhUEhWU1VnKUyrIdAeyfroo4+yxeTxxx/Pin3s2LGZUE2bNi3NmTMnPfroo2nevHll72MM4P7QQw+l+++/P9fLmDFjMvFVT6yKn3zySSZahWS1Wi8u5W1mBArJaubaLWVregSQLFNMrCCsWKwi69atS9OnT0933313mj17dlq5cmUmXaaoxOP/U7a+R0A9sTayMJo2VC/qBwmeOnVqevbZZzPRKtOFfV835YkFgd5CoJCs3kK2pFsQ6AMEwpKFYH3wwQdp1apV2WplWmr58uXZ98c15IrfD0Vfj1NR9Zinnqy+qKfwuRKqF75yS5YsSePGjcvWrfXr1+d6quLhuPq/J/NV0ioIFAR6F4FCsnoX35J6QaBXEaB8WaYo7A0bNqTJkydnkrV27dpsNXGNZSSUe+1bbPWgwKMMkRdhdauer16L89W49XwM+9irLyuwPrJq8dmaMmVKfhHBlKE49rinWvZ6LmfJW0GgIPA3BArJ+hsW5agg0HAIULwU8XvvvZceeeSRTLBWrFiR3yh0PhRzhA1XwG1kWJkaqVzVvDpGntQRCyM/OkTLywh8t1i44o1Dcap1uQ1IyqWCQEGgzhAoJKvOKqRkpyDQVQRYPZ577rnsh+VNQr5XzlHiVcXe1XR7Oz7r2+uvvZbef++99OEHH6Q3N2/Oe28/t17SVzdBshAq9TZ//vw0adKk7FcHHxZIe9RnveS95KMgUBDoHAKFZHUOpxKrIFC3CLCCPPHEE3mZBlOGoZyRrHre3nrrrTTjgQfSTTfckK68/PI044EZacL4e9M1V1+dFsyfn0ni9vL/0qZN6aorrkhPLHxie1Hr8joCFUs3cIpXf94+9Maheg2SJaxnwlyX4JZMFQTqAIFCsuqgEkoWCgLdQcDilt5SM13omNJuBMsHMmidqLNOPz39cL/vJ35ka1avSb+++OJ01OGHpw3PbdguLN6kPOznh6TJEydtN249RkCekCvLN8Bjy5Ytae7cuXkdLXXpepkurMeaK3kqCHQOgUKyOodTiVUQqEsEWKvC+rF06dK2twlNP9W7JSsAvfOOOzKpQjJsS5csSXvtvkea+/DciLLNEKmMez/+6KP0hy/T2eZNdXJRHakr+VcO1iv1aMFSpBNZLiSrTiqrZKMgsAMIFJK1A6CVWwoC9YIABbxmzZq8ztLq1auzRYRiZgFpFJI18M4B6YhDD83O+nA1VXjkYYenlStWpLkPP5zOPO30dPYZZ6bp06bndcCuuOzydM6ZZ6W7x41Lw4cNT/1uvS2tWb06V8nMGTPSwQf+LF195ZUJefvtJb9Osx6clf785/qdOg0neKG6Y52zOj+yhYCpY3VZpgvrpdeVfBQEOo9AIVmdx6rELAjUHQIU8DPPPJMtH9ZYYg2JKaZGUcoD+t+Zjjr8iPyG5MYNG9JNN9yY7h0/Plt3Nm7cmI454qi0x667paeeeiqX77Zbbk3HHX1MLveggYPSj3/wwzRn9uz0xuuvp8t++9t0zVXXpMcXLEinnHxy2u87+6Qnn3iiYQgKMvXCCy/ktwz5ZRWSVXddrmSoINAlBArJ6hJcJXJBoL4QQLKefvrpvL6S7xRSyo1GsoYMGpQO+NGP08jhw9MBP/739Muzzklvv/12G9CLn3wy/eC7+6W1a9amP/3xj2nc2LH5e4wirF61OhO0hx+ak614z65fnwmV8NijjkoTJ0xsGIKlPIjxSy+9lL9x6E3DqM9iyWprDuWgINBQCBSS1VDVVTJbENgagbBk+SxLo5KsQQMGpEN+9rP08ssv5zcL99lzr7Rs2bK2gppCO/2009KtN9+cl3i49Ne/SR99/FG+vn7dujy1OOvBmW3xLYVw4nHHpzNPOy37OLVdaIADJMvLAKYLWbLiJQb13CiWyQaAuWSxINBnCBSS1WdQlwcVBHoegSBZPv5sai18sRrJ8sEn68jDDsvgWFT15z/7WTrlpJO3smb5FuP39v1uJh5zZs1u8zdbt3ZtJlmzZ81qA3fQgIHpJz/ePz219Km2c41yULVkLViwIPtoRZ0WktUotVjyWRD4GwKFZP0Ni3JUEGg4BChgPllIyIsvvphJFmXcCCRLPk2HXXbp79L39/1uevGFFzL+8x6bl98udP7dd97JZfHW3Xf23DPdeP0N2bojovtXPPNMOuSgg9P0adNy2flf/fsPf5gQLUsjrFq5Mm3evLlh6lW9mS4MS1YQrEaoz4YBuWS0INCHCBSS1Ydgl0cVBHoagSrJMs3EstUom6mwhx96KJOkvXbbPbFo+ZwM8vTA/fdnP63fXHxJsuCo7fbbbks3XH9D9svy37IH995zTzrh2OPS7bf1S08vX54uufjidOThh+V1s0YOH5EO3H///IZio2BSJVkWmA1yFWGjlKPksyBQEPgCgUKySksoCDQwAo1MspApRMkHku2ffvJp2zSgKjF1uOypZfma/xbqfPXVV9vixP0W8mS1+uPnn+dlID795JNsIXOefxZrWaNshWQ1Sk2VfBYEOodAIVmdw6nEKgjUJQKNTLLqEtCdnKlCsnZyBZTHFwR6GIFCsnoY0JJcQaAvESgkqy/R7v1nFZLV+xiXJxQE+hKBQrL6Eu3yrIJADyPQHskyjWYvW+MhUEhW49VZyXFBYFsIFJK1LXTKtYJAnSNQSFadV1AXs1dIVhcBK9ELAnWOQCFZdV5BJXsFgW0hECTr/vvvz4tYUtLFkrUtxOr7WiFZ9V0/JXcFga4iUEhWVxEr8QsCdYRAkCzrZMUSDoVk1VEFdTErhWR1EbASvSBQ5wgUklXnFVSyVxDYFgLWxfLtQiu+W4y0kdbJ2la5WvVaIVmtWvOl3M2KQCFZzVqzpVwtgUCQLN8ufOGFFzLJKk7vjVv1VZK1cOHCtvp0vtRr49ZryXnrIlBIVuvWfSl5EyCAZPmsTnwg2seUKWTnhWWrXwSQJnUUBMp/07/I8qRJk5IV39Vn1GUhWfVblyVnBYGOECgkqyNkyvmCQAMgQAGvXr06TxcKP/3007zCeZCtBihCy2YRaVJ/iFXsVq5fu3ZtJllPPfVUrkvXgoi1LFil4AWBBkWgkKwGrbiS7YIABCjfDRs2pBkzZiRK2adofKoGySqWj/puI0Gy1JVP//iW4wcffJCWLFmSJk+enNavX5/JV7Fk1Xc9ltwVBLaFQCFZ20KnXCsI1DkCFPUbb7yRZs+enR599NF8HNasQrLqvPJSyiQKubKzYm3evDk98sgjaebMmfmYFauQrPqvx5LDgkBHCBSS1REy5XxBoEEQ+OijjxInadas559/Pn8kmWWkkKz6rsCwZIUVSz2uW7cuTZkyJS1YsCB/GLuQrPquw5K7gsD2ECgka3sIlesFgTpHgCI2Zcj5ff78+emdd97J04Xhx0OZV4/9r93rvIhNkb1azNWJukOy7Fu2bElz587N/ljPPvtsnvYtJKspqr4UooURKCSrhSu/FL3xEQjF/eGHH6bHHnss3XXXXWnZsmXp/fffz1NQ/H3C50do6inuqYaNj0R9lwDWsI+pPyECFfVjinfFihVp3LhxuR7VZ5UY13fpSu4KAgWBjhAoJKsjZMr5gkADIEB5U8aU9UsvvZQmTpyY7r777jzt9Mknn7QRLD4/QbLEL3vfYhAEC7FSF15O4IOljkwTcnJHsNQfHzv1WraCQEGg8REoJKvx67CUoIURCAsJAsUawqeHNWvMmDH5bUNTh5S562E5CWtKEC1plL33MYC7OkKqgmCpH+ucjRw5MtebNbLUVSFZLdypS9GbCoFCspqqOkthWg2BIFl8eihnypt/1n333ZeGDh2afNNwzZo16c0332xziA+rSoTIVz3u28qfa/IcYT3mvzZP6sY04Lvvvpvrg/XKywrDhg3LFiz1xsqlTIVktVpPLuVtVgQKyWrWmi3lagkEKGPKHMkKpU6ZI1XWWzIFNWDAgDyFaJmHJ598Mlu4+G1V9+XLl6d63SOf1gFbunRpw+S7Fk9599YgYsXSqF7uvffeXCZLN3z88ceZZKnHQrJaovuWQrYAAoVktUAllyI2NwKm/cLq45iSZtXi92M6ygriDz74YBo9enRW7Lfddlu69dZb636/5ZZbkv3mm29O1113XbrkkkvS+eefn6688sp0ww03pBtvvDFfb5SywB2xQrAQXpYsVi31FARZWCxZzd1fS+laC4FCslqrvktpWwABVpCqJQTxMg3FyZq1hE9QdTeFVW+7lc+tXo+E2Ddu3JhXQR81alS2uFnu4O23385xxK23/LeXn8CcXxYSrF5iq9ZXnCthQaAg0PgIFJLV+HVYSlAQaEoEwjrHusNfiTXrvPPOS48//vhWzvxNWfhSqIJAQaApECgkqymqsRSiINA8CLDqVKdATadZ0f7www9Pe++9d572fOutt7J1ji+auMUS1Dz1X0pSEGgmBArJaqbaLGUpCDQBArUky7Shtb9222239A//8A/pt7/9bf58ULxRyeJVtoJAQaAgUI8IFJJVj7VS8lQQaHEEWKdMEyJSmzZtSjfddFPaY4890te//vV01llnpcWLF7c5jBdLVos3llL8gkAdI1BIVh1XTslaQaBVEWCdQrA4iVvna/Dgweniiy/Obxd6q5BfFod3ccrbeK3aSkq5CwL1j0AhWfVfRyWHBYGWQ8Dbd96I9DYkS5b1vSysOmnSpPToo4/m5Q8sT4GEsXiVrSBQECgI1CMChWTVY62UPBUEWhgBPllBsmKV9FdffTXNnz8/ry/l0zM+gB2fpykkq4UbSyl6QaDOESgkq84rqGSvINBqCATJQrDiY8reJvSG4Zw5c9Irr7yS/bG8dWi6sPhktVoLKeUtCDQOAoVkNU5dlZwWBFoGAdYpBMuObFl49IknnkgPPfRQJlksXQhWkKyWAaYUtCBQEGgoBArJaqjqKpktCDQ/ArGEA6IVZMoyDvyykKzXXnstO7u7Zhe/bAWBgkBBoB4RKCSrHmul5KkgUBDI5CmmAn2mxrINDz/8cCZZzsdeSFZpLAWBgkC9IlBIVr3WTMlXQaAg0IYAJ/dakoVcFYLVBlE5KAgUBOoQgUKy6rBSSpYKAgWBrREoJGtrPMq/gkBBoDEQKCSrMeqp5LIg0NIIFJLV0tVfCl8QaFgECslq2KorGS8INAcCMeUX038RVkvHJ2vRokVtju/hq9Ve3Eiven85LggUBAoCOwOBQrJ2BurlmQWBgkBGACFCmHwax9uEwvgfn8sRxyd0vF1onayXX365bfkGSzi4L8iWe+K+AnFBoCBQENjZCBSStbNroDy/INDCCCBUSBKyZDmGKsmqki4kKyxZPrPjczp2a2i5N+4LgiYsW0GgIFAQ2NkIFJK1s2ugPL8g0MIIsEAhVxYdDVKFMNUSL5/RQbIs4WDF9yBZVn13P1IVBCvSaWFYS9ELAgWBOkGgkKw6qYiSjYJAKyKAZCFVYYkKghXngjBZjNSK77Nnz84fjGbBQrCCnFVJlnulW7aCQEGgILCzESgka2fXQHl+QaBFEQgrFrLk7UHfJ/Qh6Jdeein5CPTzzz+f1q9fn9asWZP9scaMGZPuvPPONHPmzLR8+fK0atWqtG7durRhw4Yc331Wg3/nnXfSJ5980jaNWAhXizawUuyCQB0gUEhWHVRCyUJBoJEQQFrsYW0Ky1Gcby9kkWJ94lvlO4TIEHK0YsWKNgvV1KlT03333ZcmTZqU7r333nT33XencePGJeRq+PDhqV+/funGG2/MRGvkyJFp7NixOc748eNz/IkTJ+b7p0+fnt9C5Ci/evXqTMDeeOONTL68pSgf8sP6FXmttYQpk3OxRdz4X8KCQEGgINAZBArJ6gxKJU5BoCCQCUmQESGiwuk83vCrXkNSTOUhVQhVWKMeeeSRNGPGjEyGJkyYkBAkZMo+ZcqU/Pbg/PnzM/GywvvTTz+didJzzz2XydLGjRszOXv22WdzmkjaU089lePPmzcvk6tp06ale+65J911113JMyZPnpzT9lzPR77kh9VM/mLKUZ6ViY9XOOE7F3shWqUTFAQKAl1FoJCsriJW4hcEWhQBJCMIR5ARBCVIFmJims50nak7BMmSC6xTQXbuv//+7Ff16KOPpiVLluTpQGTn3XffTR9//HG+n1N7+FsF4fG8eKZz8T9InnzY3ed+6ckDSxaHeeTqwQcfTKxcLF4sZUidD07Lp7gsbKYtpRHPqD5f+ctWECgIFAS6gkAhWV1Bq8QtCLQwAjFFiOAgN0FAkBKkxvQfK9EDDzzQNt2HXM2aNStbm1zfvHlzth6Zsov7pYUgVYmNZyB0YR0LUlUNq4QvrExBBKXpGfEWIvLHef71119PrGCsZPKFcLGiIV3yLf+sZcoTZCuInOeVrSBQECgIdAWBQrK6glaJWxBoYQSCZCEbyA5ixGpl6s3SCqboRo8ena1W3gLknG7hUOQGYakSM4RKOkLnXZdexAmSFUSqGlaJluNIq0rIwqoV6Ypjj/PIl3xZDoIlS34RQj5giBfL19q1a7N1SxqeI/2yFQQKAgWBriBQSFZX0CpxCwItgkA4hAuDvESIrJha83af6UCO6nbTcfyjEBcO5kFwgjhViVIcB2EKElQbt5qPal7ifqE0hJG/OBcELK5X/zuO854pv/KNGJpC5MeFbCFfphxZtsSPPES+NIfac/6XrSBQECgIQKCQrNIOCgIFgb9DAFEIsoIABSmxKCjLlWUUOJbzazL19uKLLybXxEV24v4gPxE6X92DGNWG1TjbO47nVeNV04vz1XNxHNeEziFcLFyWj1i4cGH2J1NO5WXZ4igfWARJE1Yxqpb174AtJwoCBYGWQqCQrJaq7lLYgkDnEEA4kAekwxQbp3REau7cudmHieVqwYIF+Y0//k7iN8uGcCkzQsWPzNRhvAHJYd9nfWIdLvgERnEMN3hIp2wFgYJAayNQSFZr138pfUGgXQRYY1hnTPm9+eab+Q29mEJDOlh6qssfNBOhCIKp/Jzn+Z1xlldu5NLbkqYVTSEiY/YgWMJCstptUuVkQaAlESgkqyWrvRS6INAxAggTkoUwWOOKj5KFPy2/wD/Jyuwcx4NgIBW1G2uP6bWNGzak5559Nj27fn3e169bl32fauPX038kC8Gq7sgmsqVM1tti2WLV8rYiIlb1Pyskq55qs+SlILBzESgka+fiX55eEKgLBBCr2GUIUfBmIF8kb9whFNaSso5UkKuw3iBktZasZcuWpdEjR6aDf/qzdOvNt6ThQ4el/rffkS656KI0ccKEHS7zCxtfSGeednrasmXLDqexvRvDkhXWvCBbymvaFC7wQDwt++ATQM4jWuIWkrU9hMv1gkDrIFBIVuvUdSlpQaBdBIJUIAdBLBAJlitO348//njyWZoqiYi47rXXbqw7z61fn771jW+mCfeMz6RIGtOmTE233nRzbfRO/9/04qZ00vEnZGtap2/qYsQgm8oFD3uU1zGyxaq1dOnSvGK9Feb5bvHTKiSri2CX6AWBJkegkKwmr+BSvILA9hBAIFinkCg7i5WV0U2JWS3dAqLh6I1kIB9BRLaV9h8//zztt8++afaDs9qivffuu2nxokVt1rBIr0pOIrJzf/jsD+nTTz7JRMd5BOeN119Pm994YyvrWeRfGJt8KhvrWyxM+nnlesTrTBiWuii3kPXKZ32sD+YtSy8GeH6UKe7pTPolTkGgINCcCBSS1Zz1WkpVEOgUAohAkBEEyydu+ByxYCFY4X+FpCA4CERnN/GRrBn3P5Dv3fLmlnzMCtTv1lvTYYccmibce2/2+zKlePIJJ6a5Dz+ck5enq664Ml1/zbXp8EMOTZMnTcrPfvihh9JVV1yRnl6+vC0bzzz9dLrx+uvTbbfcku9Zu2ZNLpOV26+4/PJ03TXXpLGjx6TTTz01nX7KqWn+vPntWt/aEuzCAQJnbTB4WSeMtQ45DCLahaRK1IJAQaAJESgkqwkrtRSpINAVBBAnhMj6UD7OzNfIFCG/J+SKdcYe5KGzabvnh/t9LxOkMaNHp9tuvTVdednl2QK1bs2aTJ5uv61fJk+jRoxI/9v/8r+mEcOG5eQXL3oy/fKss9PKFSvSM08/k6ZOmZI++/3v06Nz56bdv/XtbA1DEOfPm5eOOvzw9Pxzz+W3HadPnZp+9pMD02OPPpo++ujjTKp+esBPMrlbv359uuSii9MJxx6X3wzsbDm2FQ+Zsj6YqUOf5oGf/86XrSBQECgIFJJV2kBBoMURQLJMB5r6Gj9+fHbqZsGKKTYWLiQMaTL91tktSNaU++5LY0ePTr++6OJ0xWWX59sRuLPOOCPd0e/2/J+v1n/83/+PNHzo0PwfWWLBGjVyZPr4o4/yMhJIlWnCPXfbPS1ftix98P776RcnnZR+ceJJbVlat3Zd2vWb30pXXX5FPif9s888K1uYnJj36GNpt12+ladE227qxgEyhXxa5sISDz7N4w1E58pWECgIFAQKySptoE8RoCjtXdningi7cm+Ju30EEAUkwZuEnLjDtwixQrCQJceIw45MFz44Y2a27PgUz8wZM3OGTKudfeaZ+Y1DJ6yu/k9f+R9pyKDBbRkeNmRo+ua/fT3Hs5SEzZTj3nvsmUwRSuOQgw7K04dx09tvvZXP/eqcX+ZTgwYMTOee88v05ubN+b/79tpt97ygaNzTnRB2iCdCau2wqVOn5u84KmtsXW3vcV8JCwIFgcZHoJCsxq/DuigBRULhVHcK2e5cECT/KaXa89X7atOq3uO4KK2erXIEylQagmXaq/rpmKinqMOuPBkpC5+s2vusL3XaKaek/l9aspCo7+373TZLFlKknSxcsCB9d+/vpMsuvTQn8eEHH6bv7LlXnkZ879330qEH/Twdf8wxbclz0j/6iCPSgP7987nBAwelc88+J2158838f9XKlek7e+yZfc/aburGAVyifZomfPLJJ/OCpdYTQ05dCwy78Zhya0GgINCgCBSS1aAVV2/ZrpKoUCyUJEUbFpCqQqqej/jCIGBCyj/+V+M4LkSr51oAUvXYY49lS1ZYsWCsvnZ04xDOn+obX/vXbJ3i71XdTBcee9RR6Zgjj0prVq9OnNWtqYV4vfzSS+m3v/51GjtmTL7l5htuzFOLCNTqVavS1//la9lBXtsYcEf/9KPvfz/fn/6asu+WaUhpmgKVzlGHH5HWrl6TyeMjc+fm+5csWZLE7+6mHUbbRKqsmeXNzIcffjh/RFse4Wgvbba7aJf7CwKNh0AhWY1XZ3WZ41A2lEqQqipBCiUjDAUeyidC5+OeiOd/nBNG3KKweq4ZeKPQEgQW2PSpmCC33cEYibEA6ZGHHZbu6NcvPfrII1uRDNOQFiv90fd/kH551ln5LcNLf/ObdOjBB6c5s2enMaNGpTNPPz0tfHxhGjxoUJ5mfGLhE2nI4MFf+GqNGJkd8xFEbyp6xuInF+U3DK3vZUPcTEmecerpiV/YY48+ln28jjzs8DR65Kj05z91/k3JjtCGUbRV7Zc1yzcdTRsiXNF2o813lE45XxAoCDQnAoVkNWe99nmpQtFUQwomCBclE7tzrtXu7Vm3QuEHuYqwOwSgz8Gp4weqE47avktolXZrP7HIqIvuYGytLd/7Y5Xiq7TpxRfbTQ8RWv7UU9nqxMdKfds+/8Pn6dlnn0tzH3o4p+GcNJ9/7vn0ysuv5LcJX9q0Kcf9y5//nJYsWpSXUHjl1VfzOT+c9z33lVdeTpZzcO+LL7yQXn3lleReZe/uViVZ2ibfLC8QIFlC/z1HW3e9bAWBgkBrIVBIVmvVd5dK21UlS4lQzhSLqRrrIfG9YSmhII3sKVz+P2vWrEkrV65MzzzzTFZGq1atysqeYrZ6trhWHeerY2qJxUKa4efSpYKUyB0iAE9+WEiBeoFxOLsXUtAhbG0XakkWPLVx1jT+WdotkgXLrvantoeUg4JAQaBhESgkq2GrruczHgqDQrDHCFxYVRQRD6Fi+aBIECqkiMMv5eKjwhypTUNR4HbH9913X95ZTiZOnNi2T5o0KTsMO28XT3z+LXZvvs2bNy8tX748Pffcc/nNMm9weTZSIH/yFYos8hjnqmHPI9e4KSLE1sSCLyLsPzxZlArJ2n69alesVNE/HPs4drRX/UI/ifa5/RSbM0bIFGH0zTgXfTP+RxjnA5Ha+yKeEL5hGY+6qF53HPcLbRFGPP9jj3MdhXFv5K2EBYGOECgkqyNkWvB8CCoKlmKwx9QRAUb5cmjO0zCbNiXWpyeeeCLNmTMnEyJrLPkUS5AnJMs15Mgr+lYQ56tjhWwWLPezaIVV6+mnn85WlcWLF+f4nLHnzp2bZs2alUlaEDOfMbHwI+KGzEkT8WI14xMTpCsEpHJVd+fL9gUCSJX6mT17dsYvCBa8iiLZfivRlqJtxbHBBpKl/QbJ0pdaud0pOwyCkAYhqv0fcidkD8uqPitkYGoAACAASURBVE3m6N8s26+88komsqaAWb2r1nFT32SB817iMHBQH+5xP6u4lzBiWjzaufzJi+dGfcb/yFP8F7ZyXW6/V5QYVQQKyaqi0eLHhAtSZQ9fKMesRQQUKxWnXgqE5cnCi4jOAw88kIkQpWLqybQTYUjBfPjhh3kKKiwklHgce0bs8VzX7Z9++mm+z7MJRUKWoCREw1ImH4hcWMEcI13yQAC7RzqEZBGQ7TdudaFOfRKGMvJfnYTyaf+ucjYQoGxDQcNMO6PYw5LlRYJoe61KWpUbNtHX4RFYRajdIVPWa9MOESU+bTGII2NMwbJqh4U8rN4hiwy8yCT/XWMJt4sfFnFpGPix3hroIWjcGcgKsoockqfIF9kR+Q454lrUe7SDEhYEOkKgkKyOkGnB84QHgkPQICdIEsLE0mH6jpWKFYkAQ2Y4ShsxclgmIIM8haIOoUQgEbQhmIQhyOJc7f84TyBXd2nKI4ua6cIgXoQxxUbIyieB6xt8rGembwhQ97nfs1pV4dU2a3WNlFI+6toIv5CsWpQ6/l9ty9oVPClupEDb0+6CVLRqmwuSpe9F/xMGsUKqEB6fJAqrNWu4vhzECVkyECB3WLcN6FjHDbhYsskilnCh9gx716XprVlLapAP0pF2pOuYbPNcgw35YAFDjsnAIFjCyHvII3VftoLA9hAoJGt7CLXQdUKDkkVcCCtTSEgV0mIkSAhxVkdaEDCkJQQOAeRYGIIprgWBiv/V0LXa/xG/GopT/V99DsVGmVlHiYIzHUkQE54+3Gtkiyiyghkpy1/ZvkAApuvWrctYUVYsh/CEb1Ei228lQSCibVLMFDXrienw6COutyrJgqK2pE3ppyxHCD23AKQJ8eFqYPBmYOTzRCxN+jEMWaXJJH2X3GHZNqgz0IoXNaRNRujb2q96IMs8Lyzh5ANCZ2DIRQEpQ8YQNtYtdYbYyQfZh8CRGZ4tDemqx5BXpX9sv3+UGCkVktUCrYBw39YOAoLDFB9Fy6oRQg85oYQJKEItlEaQnhA4hFwIurgWiocwssf/iOd/9XykVQ1DqMW9cc19oeCcizSFRsiEIoHKUZ7AJDjthCkBS/hGvpS/I3xaoHnkqWDTvkb7pk3UMWUF87JtGwFtqNr+tDvWE4MSg5For7DUxppxi74TZYv/UV4Y8IUyQDP4QaqQGbt255x+ikyxisOQrEGSkCV9Ovp/9Huhc/Hfs6vPrR7HvUJpBREjJ5A0Awv5U19cItSffIW1K/oG8ix/7tvWsyNP1TwENiVsPQQKyWryOtfRdfqqsK8KHQKHgEGuwreBWZ7JndnciJFgqm7SDCETCkY6jrcnYCI/tfGqeZSO9OyebXcuhKS4NsIR+Yv8CGMXR3xCGnEwcjY6JjBZ55TROcJc3Orz3RfPq5a7WY/VsSkVI3mWQJhFXTZrmXuqXNpKtFXKF1FAsBAH09nV9qttNtOmz0Tf1F5ij/4DD6SERQomLOIGbwZxrOIIjYEdUgVD99X2X8+Ic9sKO4Nre/dH349rykAm8EElH1i6TCWSjfLPOm4akt8dEqj88h3pOI5zgU2UqzN5LHGaD4FCspqvTrcqkc5PcIQiEDJ7CylXVh0CcOzYsdmPxGiNOT+mjdxrE9dnUtatXZtWrVyVp0QIz3ffeScLwZhiIqx2ZHMfoSSd2OUxrCohuMR79tn1yardxx59dFqyeHGHjxOXgFMGAp8wt/4W65xRqqlE1hsCE7EIXAIr97bCptzaAQWCiIaztrZTto4R0L60Lfhpp0gV/FhMWW1YSbSlatvtOLXGulIte5RRCAskRT/jJ4lQ8XsSmn5jFSdf9EWYSadeN/2fXDAINfiQf7KS7DBYQxRNPZKVtRj4r3x29V+21kWgkKwmr/taYUgIEhxGmHwfkCtme6Mzws80GsEQAjNIFn+ISy68KH8GZdiQIenBmTPzR3tPOPbY9OTChZnM7AgpkRcEyCavw4cNSxf86lfptVdfzf8pKnFCWMmPc/Kw5267p/nz5nVYg9ILkuW+UIgEPOGIYI0aNSoLTW8yKXuUG07i17MS6LDgXbyATLEIhl8KbJS/FcreRai2ig6fGBhokywfpsL4GcFTW7I3I8kChP6hX2oryqkfs0whH6zFBjGsQPyqwt2g2pf1zUZoY/qHchpokpEscGQHuckyR46aatQGYCBu4CLcEbm4VUMrfxoagUKyGrr6tp95QkwnD4FvlBnKYMyYMVmxWmXdlBohEQIzlAMBE2mMGzs2fe2fvpomT5qU4/o8ySEHHZROPuHELES3n5utY2x5881019ixaf26dW0XVq1cmS1N4TNFSMlLrVVl+fJl6fBDDukUyQqiRdkFDtJVZg7+LDjjxo3Lz0U+wxekvee2ZbSJDuCj7jn5woICiWnYJipmjxcl+oU+o90gV6xYrDWULRKizdkd17bhHs9QHyeoTEgTmaIvGagov4Eby5W+hXSJI27IIXjZnWsUkqUO1al+Qj4YdCKPSCTZgXCZBWDNFK8qR0OG9nH1lMfVCQKFZNVJRfRWNnRwwgxhIAwJQr4FRpr8rggLQiNGYKEQQjlUBcSc2XOy9eiB6V98gFeer7js8vTD730vTw/4//57X6x1QxjZCFHHnk3YehYC5dz4u+9JJxx3XDbDf8LJ9ZNP0ocffJivy3MopU8/+TQLr82cYt99NyutpUuW5CnDqiXrr1++Hcl8H/dKJ8oSxyHghfJjFMqHZvTo0fntJr5ozrcSyVJWFj5TPNoH51//y9YxAtq2NmU6yRS0PgU/uMEz+lK0O2EjkIqOS7z1FaRJv2b5RDCVn18fJ3ak07Xoa8puh0vs7eEBH33PW4QffflyytZP/eKf/k2O6OvkSm9unqUulcUe+fdcdU+mIpXIFtIFD3mL+O5tpnrvTaybMe1CspqoVnVkgo9QiD2EG8HllWUK1JQG6xWiE9eFhEHcF2FVOMx6cFbaa7c90qwHH8yoiXPm6Weko444Ir/mPPehh9LZZ56Vvrfvd9MpJ52cNm9+MwvA/rffkQ4/5ND064suzvv5vzov3Tt+fDr9lFPTYT8/JIesZPdPn57OOuPMdMyRR+URsIcgbVdfeVU6/dRT0/f3/W4649TT0nPPPpuWPbUsHXnYYW2WLALv8fnz07gxY9KvL74kTZowIQs5+Ve2wEUY/5XXfyGhzueCdY/fBaKFeCqjNNrDoxmaTpQNJpRCWGQoTK/YU2Iwih0OcRz3OtdMW5RLGMdR/1F2eNlNIfHDomBNGxm0UMLRxtwXcRsZp8BB+QMLMoU1h88VuQIH02n6TeAkVP64J3CJdGrbjX48ZtTo9P3v7pf22n33TPZr4/j/+ILH0z577pUuPP/8NG3q1F4lMcoe5aiWK84pL8uv/qLfsOQZwAbRCjkT9wYG7ZWrnGs+BArJaqI61YkJeJ3aHsLe1BjHZoLQSJPlxjVbKJIItwUHkrXPnnunkSNGZAd4RAnxGTtmTHaKP+HY49KLL7yYhcsBP/73NHTw4Jw+R/kjDj0snXv2OWnqfVPS4wsWZIV+z113p+OOOSaTPwqegL3huuvTgfsfkEmbvNx8402ZdBFib7/1Vn6ucnJ4l+aC+fPzMwb0vzNdfOFF+a0g1oR99torPTxnTrtljLJGKJI0KUyCEtGymKSpjiqeoSzc10xbtBtlVQdeBDAi51MDy1gTTTuKPdpWKIxmwkRZkAK4KJ++JLQrNwy0V1NDfBm1F8uEaC/Ou8/9gYkwjhu13ShPYAAP5NuLL0gFksV6xaqDcFTLWlv2+F+NU8UEdjBk5f5P//f/k668/Ir83Goc+eCT+a9f/Ze07Kmn2mRZNU5PH0e+q+lWzznWd0y5mzIdOnRoHrTBSXlgJoSPeNpQ2VoDgUKymqieCR+dN4iB0M58zWeAv423fnT2joTctuBAsg740Y/TIQf/PI80kSYjSs+18Ul4/bXX8jNOOv6ENHDAgHze9MkF552Xrr/2uq2SnzxxUjr+2GPzJzTiwpT77ktHH3FkJlkE03FHH5PmzJodl9tCZAjJevKJJ9KHH3yQLr7wwnTeueemCd4aHDs2nXTc8dk5v+2G7RwE0fBmnde2OcQjGl7lZvELXJWVwmmWTTtQHlhrK9qGaR7tBNE0hWqxRiQXBhSEXVyYxb4j7aleMVQW5VLX9ihjYERRsviZYh45cmRuJyw4LDuuiVclWfVazq7kCwbahnqvDkYM2nwCxzlld707/SPunTxpcrZyH33kkemJhQu3yuriRYuzNX2fvfbOxK568YUvFy7lOmBTF+QPAmywsPmNzTvkP1p9RkfH2g1ZYfFSpPuOO+7I08iIVvStav9ppj7TESblfFmMtKnaAEFIEQYhIBSRhFgbyhRhVQl0tfCzZ81Oe+++Z57WqxUQnrlg3vx0+623pVtvviUdf8yxafSoUfkRiEt7JGvivRPSiccfn6cuIy9Tp0zJliuCikVlr912b7NqRRxhkKzFixZlhWfq8KYbbkxvbtmSBW8mktUbtnNMuBOEysGJ17pRLBSxpIH07M1GssCiLpUrSIRyUhYWc0U0g0ioD+fhJG6Qj9q2sB2o6/6y8ihbkKwq0dJ/WIJNKQ8ZMiS/OIJwUZ5IFnzg10wkCx7qW99Apji0mx6FASyCdCu3eEGUulrRgbv7Bg8clAYNGJhOOfnk/Baz+rCpi7vHjcs+YPvts0/a9OKmfF698Iu75KKL01mnn5EmTpiQfTyRq8svvTSdfcaZ6c7+/dNF51+QB3EP3H9/ruN8cw/9hAyBgzZh9XpEiwzRNuBnD5yard/0EIxNl0yxZDVRlQbJ0ontRnBepyYQmfbDEdW1EFpdKf7Dcx5Ku+3y7XYtRMjOnrvulqcDCQ/+VmNHj87Jf/TRh9nSZOqvut17z/h08M8OylOZcZ7gZr3a/OabecQpTT4akV/CyvIOrGYsXqYLnPvpAQemC84/P5JJf/jsiw9bx31tFzo4ILxDACIRfGuMRi1C6G3MGKV3R4l08OidfppyUK4gmYGD0BSQKTEWLesDcfKlaINoaUuwa6YtlL1ywSVC5Q6/RnjAhYUv2ga8EA6hdtdMSlR5yA8+WJYt0E+RcGXVFkLmdKd/BO7aEqu3fo9QfW+ffdPqVatyE3tq6dL05MIn0spnVqR999o7T8+5IF8IGT8oU417fHu3tHjRk7mtGvDtseuu6Y7b+mXydf6556Zdd/lWIrN6so70o2gD2gGiZZAyePDgLH+1k2gf2lRPPruZ+l+zlaWQrCaq0epISoe2gB6BaP0jpvLo5DtCsozQb7rhhvR//Z//Md1x++3ZH4VAjY2P1Le+8T/Tdddcm53Rjz/mmOwQTymtXbM2EycjzPcrb6w9Mndu2uUb30j9brstrV61Or20aVMaMnhwdpw3DWjjZ7XL17+Rrr/22jTvsXl5KnDalClp+tRpab999k2sYcrT79Zb0+7f+nYaPHBgmj1rVrpv4uT07Pr1nSYAlEgQDSFhaRqEfwWHZtYtz6FQ4NxMm7KHogzyFMTCf4qLTx8sTKMaofM9qU4RURidURoRrzNxu4tx9VlxXE2zvXOuO6+O7UEuEG0fGGbVM+2ubVQHLdqGNqOPCd3XyFtgE1joE14G8dKM3XFYsLSRaD/idafs0bduvP6GLAu8TfzdvffJpEvao0eOTG9teSt50/g7e+6Zli9bnmFGaLxx7KWYwYMGpSMOPTTNn/dYvsbPE1F75eWX8//ff/ZZ2v9HP0qXX/q73Kd7qp7kXTvQBoR2gxT9Rb8xkxBtpDsY9VR+Szp9g0AhWX2Dc588RcfVsQk8CtBr+BQCk75roTgdE55d2TZtejEvEvrTAw5I1119dZoze1Z6a8uWtiRYk4YPHZpOPfkX6Y5+t6d77rorHX/scWnkiJFpwvh70y/POieb7JctfartHr4Kt/frl66/9vp036RJyVQhaxcH+uFDhmaBtOnFF9Plv7ssHXnoYXna4L7Jk/MbTLfcdHOOd8vNt2SBT+HdcuNN6dCDDs5vNk6cMDH9vguvdsMDLqFYHSOW3hLid4JUeAZsQxG0FaSBD0KZRvvQRgIH5Qwlq9yIJusNhTFixIhs6QuyEfdU05FWNb2II93q3lvwVZ9RfXaUOa5HGeO/uBS6No1MWJ4AuYrpYzjAI8omfqQfx71Vpr5IFx7KBgNh1D0fNNZM64CRM67V7oHtjuQz6oE/1cgRw7M8kM5lv7007bv33mn6tKlp0ZNP5n6JfHm5peqvtWD+vHTRhRdmK/pJxx/f9uaxgR+SxV8rtoMO/Gm64FfnZUIU57obRv6jDQjhY8qSRdwgRdvpLhHtbj7L/X2LQCFZfYt3rz6NkgihGKNOfgpGnN3dKBzOvd7wIzQ2btiQPv7oo79Ltmqp+vDDD/J1JM89/KyMQms3Qsf29tvvZB8Lo9KXXno5C6OIqwzKZyPgpcmJlU8GK11sH37wfhbC8b87oefJMwdwOBKQ8CVMW3GDh3aAWBmd80lCtixeympqejosOUH21S0lbQ+lXVVCjnsDz1B48myvfWbtf/Uqf/LPh1AZkQqv4yOVrMFeIFF+ceN+afdG/ndW+wrcYKEO7crsM0EIFvcDg43AoCfLHmmZ6rcUy2OPPpphWLp4cdr1m7ukww7+eW5jTmpr++y5Z3r44YdynHmPPZYO+smBeVrOgsY+u2WAZLv26mvSD/f7Xn4px//XXn89W7LuufvuNpmSI/bSj7Yfb3fDLyydUd5eemxJtk4QKCSrTiqiJ7IRAhIhIWBMFercFEGrbbDorhBzP2sbghVOvpRPK+Kp/cBD+bUvyxew7lmEkZUHGUG8+P4hwJQgZUIZUzKhsB2Hgg7y0916aq9tSxMRimfUhkGS5IfFElGXb/nnR4NQ8GX0IXEE0pSpsrsv8h/p90b+2ytTX5xTFlgpa9Qb/0Qkk1XcQMv5wKI3yu4LEN4W5hJggzP/y0t/85tM+Jzji/m1f/xqGvOl3+cd/fpltwI+W5aUOeTgg9M1V16Zp+u4EvzrV/85TZsyNfvQDR86LF1z1VW5DfcFpvBE3GGoXcHQud7Ari/KU57RNQQKyeoaXnUdW8e1myoM0z7n1FbrzMobe3cqTBqIgrepvKGJsPrfangGhtpWKF4hLJApVh/WLKTe2lqWC0FOEH3EBYGJt+7ch6SEkhH2xqaOpB1kynH8lwdEUb5Yp6wFxlpJAVpLzrSOt0v50Cif+EGuIo0gWv43U3tQFmVVZsRYHSPT1sPylhzc4hqi1dNl9wart5N/ceKJeY0shMTG6uTD8LalS5am2265JR168M9zHOvurVm9Op195pnpmquuTtOnTs2uBb8655fpzc2b0+233Zb+57/9W/rdby7N6UyfNi299uprOa2++NFG4MgaCEdEHsZlaw0ECslqonrWmQl/zpYsLxxUTXE530obwR97d8otDYqEDwo8kS1TJz2tWLqTx768VzuieE2pVYmHcyx+FGRYgvigIFyUCguXJTeQljzl/Pbb2TIUCrsz7TPqsyvYU2TyhuDJH+ubaWv1aXV/xCqIoQU1vU1qUU0DE/EpRvUfhCrCKuGS967kqS/ra0eepSzKpH7t2jtyxaqnfuEBU7vjztRdV/JhyRmkyduESxYvyW/5uv+TTz9pIybeLF6yZEmuR33SfxtZF35XXqJ5443X83nThRzd5z/2WE63r+vL82Cp7fHvZCmFa9laA4FCspqongk8ioBPk9E45cZ/oq+FSj1AqszdLTc8KdSNGzdmkoUosBI6V7uL293n1QNu28qD8mlfFAYFCwPljt01xARGFIrX6k21mlJEukw3ITamTViK4Ll69epsTRIfCXKvqTlKCAkLolN9VmAfCh/pQ6S0deTI1AxlzUrFeuA53hBFovQJfQOpki8vh8iD+J4bz6sSquqzo6zVsJnqXVmULepZnSAFyEH4YsG9Wv/bajP1cM2bit/d+zvpjde/IF19nafAU9vU3rS/sND1dV7K8/oegUKy+h7zXnuizkwhUBiUCOFIaZRtxxAIZe4lAlNgCALhCFMj+SAbjsVtJmXbEWLKGIpYe+toE4eiRpSsJcV6hOxYPR7ZgSXFTeGwJpmq89+bfAiReKbxTDmyVJiqNW2FEDkWWrOL5YxVirUFoUPgWB2lx4qG3EnXOf1Buu4xxcnXSP7ks1p3Ub4oW0flFK96X8Rv5DDKrj3DhVUPOeawrb3H9UYp9ztvv52OPero/Pmvh+bMySS8r+snMCMnYspQGy5bayBQSFYT1XOVZFFeO5NkUXg+JG2KyCZvlK3zTy//Ym2beodeno3YWbJ8i+zGG2/MI1G+PIgWpWNvJZLVlToL5UJhw4l1ipUJufHWJksTAkWBI0fWoWJd4v+m/SJIyC2yZPHPAQMG5BW0vdHIdwqRct0uvvuQKekga9I1/YdQIQvan7oLYqV+G4UsdAX37sSt1pl6U0dIMBz9r/dN/mOXV9OGQwcPyQsjz3xgRm4DzvdlvUd+kFYvUZh6jTcf6x3Pkr/uI1BIVvcxrJsUdGYdmU8WZUXhmH7pS4HywYcfprPPOCN/EuOqK67MiwIyk7//3vvp0t/+Nv38ZweluQ8/XDeYbSsjlDACxYIyfPjwdM011+Q36YxGTS3VkqxtpdVq12BHKcce/7VP54TwM9WnfSA/LLDIEGd5xJZCYgGDt2kWddC/f/9MovjisGapGwuFIgO+t+h+0+XIXEw7hg+ZZ8bz5Sf2vuwf9d4OYBF1pZ5gy7dOHfhf71vkPeo2ppINij54/ws/u7jWV/XuOXb4aaPWW2N9LVtrIFBIVhPVc3RkxMrbhUb4lA6h0lfb6JGj0lWXX5Hf6jG1xkJBsbEI+fjzgfsf0LZIoDwtXbwkra1T0znc+PoYdcZ0llGo6RMEIJS3svUlxn1Vl915DjyCTAljD5LjvzgRD4ZIlzDIkGM7BYl0sWRdccUVeUHU8J9CgmMXLyyMkYY0Xa+mG3mJsK+UbXfw7Kt7YVGtF+SVJdGXG2Ba75s6ra1rZYpyRZuKdtgX5Ynneya5YbkTjvtlaw0ECslqonrWmXVkxIDfCTM/vxWCJTp6hL1RbOTuxz/4YZr5wAPtJv/M00/nRQItHGgzbXjFZZcn523yFttf//K34zjXm2HgQsHEMYHNwsJHyFQUqwplA1dLFJjyotThW70v7q+WpzfzXo9pK3sQqCAz1TAUecTTbkPxxTnxxUOSTFedeuqp6YADDsiDB5aqiC+e4yBp6iOeVVWq8cy4Fum3cj3Vtp3APrAySDMVyz8OvjZxYq+9f2f/l+9oS9VQO4j2EefF7YstMPV81ldT3V4KKVtrIFBIVhPVs85MgFBKRv6c3zn6Il2hiEIB9bSAkf7yZcvSt7+5S/4Iq2+KzX5wVho7ekx6YPr0jLKFAo849LC08Mv1dnxT7PRTT02zHpyZ72Wd+Otf/5LJl/uQL+kqFwLn22TPP/dcslihz2n0ZBmqwrmKFSVj2hXRMg1ramvRokV5CsUbcvGZDLjC3r3SirCJmleXihJKOEKYxHE1lKj/rlfjwC8IknbBeX2fffZJX/nKV9K1116bP3ejncM87os0OgrjuXE9/nepYE0eOeoicNW++bh5K5MvG+yibQvFr7ct6lVeq8dR73G+r/ItD/Dkk4isksuWwyhbayBQSFYT1bPOTPDp0BZRtECkUSgfF6MoSil28Xpye/HFF1L/frenr331n9PZZ52VBtw5IH8serdvfSt/1NmzgmQhSytXrEhHHXFkOu/cc9OQQYOzkzyr0N3j7ko/+v4P0sA770y/OPGk/AFoxObM005P//6DH6ZpU6emQw46OB13zDGZ9PRUGQheuMEpsPJcZn3Tg3xSCEn4IVumY00dui5elWRFHUhPnZSt6wjALtoqX6077rgj7bLLLplknXPOOdmyRemL09Ntueu5bZ47tFd9IQiuZRu8QMAvi6+beoF3tPHSvrdf94GnFy+8VWs3aCxbayBQSFYT1TOBF8KR8omVmllhTK+Ez0pvKCbCd/GiRWm3Xb6VJk30cebfp5dfejlbrnws2hYka/68eTmf48aMTScef3wmMH/8/PPsr/DTA36Spk2dlt9Au+J3l+WPSsvvvMfmpX/8b/89jRg2LC+jwMpFePXUFoIwMOJv5a00b7h5S5OCcU1ehPzNCEv+Fd6QYy2EQXWniIoS6noNRTuGMyJlmrZfv37puOOOS8ccc0z63e9+l99Sra7G3vWnlDvaQwD22jA5YrChDkxxxYDC/yBZ+kxPte+O+vKfe9gPTN77elM2ckM7NlVouRH4lq01ECgkq4nqWWcOS4yQP5EprXhlmMWFkHStI6HWHThYp3b/1rfTjC99st55+510/DHHplqSFT5ZkydOyhap575c5uHucePSSSeckIYPG5pcu2vsuOScbdOLL6a9dt89rfhydefu5LO9e+FB8MEHwUKqrOfE/4oVy4geboSlUDxTsl4uMMq3VAVCECRXHMqqp5RQe3lu1nNBsmDNeshZGNG1jIPlG0wdIrasAfBWdwXnnmkNcKySLO3YgMLbynA3fRhWrJ5o3+puy5tb0rKlS9OC+fO3WjCUBfPBmTPToiefzM+VN9Yg8oJv5IbnN6SZM2bke3wmx3p2BjvRHsTduGFj+tOX/Zrc8UkdH5COl1bc88zTz+Q3UZ9e/nRey61nkPxbKvAy5c11gywmN0p7/Rs+zX5USFYT1bDOTDGFoidICBHTXd4Q8jo2IURw9saIjnUJybr/Sx8swrOWZB152OFtbxdOGH9vOuG449Kz67/4Jtn1116Xpw/bM6VveP759J099+y1NxEJ5lAuyKnRJoIlJKwpe8QqSBYMkSrWQq9km5blCA976RSSteMdKxR9YMxixYfFGmv8g1gE1JH2DetQqjv+xHJnIAB7sgH2du3ZAMOSGfqDN231A3F6VU3XqQAAIABJREFUgmR5s/jC8y9IMx6YkS48//zU//bbc1a2vPlmOvfss9OY0WOSDzpzF7Bi+/ChQ9Nu3/p2fmHm0t/8Nu3/ox+ncWPHpmuvuTbttfseaeyYsTl/8uilmqOPOCp/Xueeu+5O++2zb7r9tn7p0IMOzh+LfvWVV9KpJ/8iffUr/yMNGTwkHXTggenwQw7pcQIEp1hvzNvW8CxtNlpc84eFZDVRHQdRIABDUFJELAGcLU19mQJzzvVq/FBW3YHDR1p3/eYuefQpHWtjHX3EkWnCvffmZJGwg3/6szaSxVp1zFFHJQRKXm68/vr0k3/fPy1csCDHd85igkJx9vj2rvnbY93Jo3spkuou/VAarH21ju0ENswQLDhFXMfIlzffWFgQAITA+YhXfU4cdzf/rXA/jCn4UPZwtbYQJeVlBOerGLcCJn1RRm002ndgrB5YsCzwSo6wxMQ1cSO++nB/VzaWKOSHOwNr9SMPP5zrffTIkemy316aXRAemftIJlOPzJ2bk77gV+elq6+4MluPN27YkM8ZPF76m9+kM049LeeB9W3qfVPyh6DJjmOOPCp/eJpV7MILLki/vujivG4W6/s3/+3r+SPSb23Zkl584YUul6FaXuUnT+xxDDsvzyCpBgtBUruKVfU55bhxECgkq3HqqlM51XGru87O4sKvgsVFRzeqCiEZlhkkwrkd7fj5DbApU9Iu3/ifadDAgdk5fMH8Bel7+3433XzjTZnoGU2ydPW/44707jvvpPmPzUvf33e/NKB///wm4ZzZs9PRhx+Z9ttnnzRk8OA0acLEPF1IKMn3N772r2nE8OFZcHYKjHYiKR9lQHGEEg9ljTBxZDctxd/KdAUF4p6q4Kzi6xi+nIMHDhyYLV8xZSHdELaRhrBs20cgMA78jP6RX4redw6r9bH91EqMziIQuFfbq2OywWAt1ovTN/RL8iMGIeLoL+qms9vrr72erd3nnHVWeuzRx3JfYjm+5MKL8vmzTj8jnXv2Oek3l1ySVjyzIid70fkXpGuvujo/u/qcB2fMzIRNPpcsWpzG3zM+Xx41YmT6yf77p7PPPCudfupp6eILL0q333pbeu/d97L7wV677Z42v/FGNakdPlZ+OJAt+j+rvBeQhg0blq2B2nEMcnf4IeXGhkKgkKyGqq6uZ5bA0+GRIKZ+FhdThwQRckBIhqAUj0Ddke2Vl19OY8eMyaNFRIjPzD3j7ko3XHddGjpocH4rcPiQocnHWpEwU4Rvvrk53XTDDenXF1+c5s+bnx+7+Y3N6bZbbk2nnHRSuvOO/jk/f/z8j2nUiBHp5htvTEMHD05PLHxiR7KY71E+5QwFAQNCkaVk4cKFGR/+J0accOksHkbiRqsWzDS1EoI0SIJ0Yt/hzLfwjZSTbx9SWEGyCp590yDgrM8gDGQIvyI+csiQfhR7kIvOkiyERL2uXrU6nXHaaem//5f/mixmTAb85Mf757eO2yvhBeedn66/+prcx6rX5ee0X5ySCRjfTVZ72y033ZR+ftBB6b333q1Gz8dLFi9OSFZPfDwaTogVPGBB5nI3GDRoUPaNJSMMwMiG7sjavytEOVHXCBSSVdfV0/3MEXjIgo6t03Pi9oYLQWmay/QYgRBWl+4/sb5TIAiVNwQdbEwtUBpDhgzJDr6mo5CvrmBCYRjdw1Y6fLU8J4iAegjCVd8I1WfuCsnaefUSJEtf4QvHassqzqroO5Taud11YWdJljr1ia3wwfzl2Wenow4/IhORk084MR184E/zCyhK7nM08VHlSy66OHnzWL6qm/46bMiQ9LV/+mqacf/fFkSeNmVq2mPX3dL4u+/O0f/wh8/TwgWP56l+ae69+x7ptVdfrSa1Q8fyIw8IVAzaBg8enGULgkXmIFlImDidxWmHMlNuqhsECsmqm6ronYxQ/jp3kAqhN+H4Z7FqeYOOwzbh2ApbKAyCjpBHOk2BwIJjtdEwjCgMArNWkLeHkThwtse3yZAt1jDnXI84hWi1h+D2zxWStX2MeiuGtosU6BN2xEpfGTVqVNuXD3bEQvPZ7z9Lw4YMTXysHpozJ91y883p8t9dlovBdeAH+30vHXHo4dlfivXb24FLlyxOxx51VDrs54ekh+Y8lPtotdyPL1iQfTe5IsSmT5/3y3PTrrt8K1143vlp4J0D0rDBQ7I1fdyYMem//H//Od3er19eBLk7xCdwQkSto3fnnXdmtwM+WXAjV2L2oFiyonaaPywkq8nrmNCIUaaO7VhHJ3i8UoxcIASmuIy+kILYghwIY4tz/tcee1bsrsWxMEiIsHp+W8fVNGrvj/y0F7qvmr/IZ4QUgrcuOVEPHTo0T5/6/BCrHmEII3tXRpsImR15Q9x8zJhfV7zyHhgII3/t5b2cax+BQrLax6Uvzmqv+kJMg+kb2jWLFv9Fb9ayCOk/MTCJvhZhe/l0TV/pf/sdafDAgfnLEKzBtr/+5S9p4eML01lnnJkuOv/8HM95a/HdNW5cXuDYG4nyVd34VnE9qF1f66233s5k7RcnnpjGjhqd0+cXanFjPqPW7EPQ9M/2tihHhOLEcYTyYmDF3cAUoQEsORu4CRGt+N/Rs9p7fjnXuAgUktW4ddfpnFcVPCGIsBAISBUhx0cL2eBTFMLS9bgviJEwyER715yLXebiWBjPjbSq1zo6rqYRz+7M/RFHqByxE3D8eSgHi4ia1kO0CEbXxLdHXuWLAN3eJk71WZSNZyBaiGyQV/mQtnTL1jUECsnqGl49HVubrbZf7T18tPQla8V5aYQVx0Al+lD0qejj/sdxtW911CfE39mbvMmHMoUsiXLFOX2e7LRuHid3lj79HiGNPu+e6v07u1zl+X2DQCFZfYNz3TyFYCM0dH7EgvLy2R2LlrJoEZa+U+YDpkarrD4hXEOghOAIgSEkWLclED23KlS7CkjcH2EI6gireZM/eRLKP2XAz8oSAFOmTMllFPJJqwrCyF+EXcljVQjDwpSKj0gjWt6K4w8nP0ax28KpK89spbiFZNVHbVf7hnasbyEXBmjkh2VM/A8fJH3BHv1RH4g9+nJ9lKzjXChn5F9Z5D/kjXbJRcALGcpviQsv/SCb7hGv9PeOsW2FK4VktUIt15QRMSEsTBvakS1kg7Dwhh0CYskEKzx7o8v5t99+OxOWEDCERwiaEKR9JUzk37PsQbIcE2pIjKUYlMfUAwd0nxUypcH3ioO7qUFmfGV3j3uVpapAaiDb5l/3xfNDgcgH8mohWMLXEhry5bq4ZesaAoVkdQ2vvoitHWvP+hELsYEaP6Rbb701D9S83YdsRD8TV7+oyosd7XN9Ub54RvTtkHfKYdDEAu7tQXKFvGS15obgGplqj/7eCOWM8pawZxEoJKtn8WyI1BAT5CKEnZDwcw4R8LYdcoVkmUokRIxQfUHeqvE+OWMEG0KEIAmy0hcAEHpB8uJY/o2eCTkWKsRK/gk/+ecfwTrHwhTWOXmOvbskqyqApQkTWHrJwOgWyYtlM+Bftq4hUEhW1/Dqi9gx2NHW9T2WYh/yvuqqq7JPkpdrTJuRGciWPhqyQn/RdxuBfCinfCOLyqEfI1cGowZQLNbKSCaKEwTLsftKf++L1li/zygkq37rptdyRrAFKQhCQBg4Z0e6+BggW74RFoSFv0FYuAhP/lxGc1u2bGkTMNLrLaEi3wQzYY3AEGqejVixTnmjh2BHDIUczwlDRIcljtBTNnlUTmWO3fnuCPwqnlVMkQPTB4Sx/Ji2FNfWnef1WuOo04QLyaqPitFmo93qi/qNPmhKnGwwoGAN9yINuYGIOGeQox94kzkGaPpJ7VZNv/Zab/6PMlWf4Zw8skyRhfKvHFFOS1iQOwZuMeAUn3zyP0hlb8nDal7Lcf0iUEhW/dZNr+WM8CAgCYQgB/47jvOuISCICaFIyPhmHGHKWZxlBpkxHWYKzlSBa6bFTC+aqjO6JaAQoiA40pS25xA+1d3zXSe4xWdxolw9n38YAW0KAvFjVWOeZ2GTB4IciZk/f362ZFnVnvBzf5QzyhjPj7LH9fYEbWcrIdKONIVRHlOX8mttMkSw+sah8ntud57d2Tw2crxCsnZu7UUb1V61dTsiYdCATJEF+qJ+p78jGPq//yxcfLa0f1Zl/ktImMGRONKRnmdU+0M8c1shVLZ3vb04VTRr7yeDyBzyBokiZ8gY/qrknv9koX6snNHne0OuVPNZjhsTgUKyGrPeup1rgiUITq2Qqf4XxyYkRJAfViHC0+rPSINXlsMvgRAiUDnPE6ZID4LhzSOC1WiQ4ELG+EvFzlmWZcx1033im7IMMmUE6TkxMmZVI/icN3I2FcgvhDJG0kJoB1DVMsW16rk4jvhdDd0feEb6QpgRxHzA4EHRyC/lIp9BOgPnrj63VeIXkrVzazracgyCWLpNkennCBbiEYv4RlvWJxAQMgNhMQjTh8W3m84nP/Rzgyd9xKBMv9Bv7O73bGlGGP1MGP02wrgW/4XOSae6Syv+65+ea1BGrpE/Bo1Tp07N+WS5ItPIIgNIZYeDdG3xjOoza493bu2Vp+9MBArJ2pnoN+izCRBChqUJWWC1IpwQJQIKiUAo+CqwLhGsQoKK4ELEYmeBMrUXIeJE+IrrHrsRMjJFkBPUiBgBbyRsqoLQI5hD6NULrPIDJyN1WMmvshkRw4mFyzVxCP2ydYxAIVkdY9PbV/R3hEQfQ0j4JWm/YUFGkhAkbbxKPqr5QphYuMQzfW8QxQKGpJEFBk/kBXLD8sVabQCGuBnU6ePu9wykTb+RlyBk8qcPBTkTyovr4roXkdLnkCnpInYGfJ7nueSMfCgXmcViT96QNWScNihdz7HDpWwFge0hUEjW9hAq1/8OAeQhBI1jAo7wIfQIs6ogM/Kzb9y4MQs1gpPFinCLHWmqWrgINc6liJt7CUTO9oSttAm7EK7VfPxdRnfiCQJY3gh6uNgJeUSUUkEsWfNCcNcbQdyJ0LX76EKy2oWlT05GW0ZukA1rwLFcIyLaMNKFyNj1y9q2HCSNjCAroi+YbtO3Tb2xiiNdBlVIjt2AzDMMsJAg/pUIUVjFETGyRJ8iM5A3u/ScI1/EkTYi6H7PQOYM4uzxLM8xMESqWMXJnXA3kN8gcdGn/S8kq0+aX8M/pJCshq/Cvi9ALcmK/4Ro7FVyUT1HEBPWsQcB8T9Gqc7FKJTQdkyo2R3H/yBYkX6tcO97ZP72xFBMUQ6hsiOJCCUlRcgT5spbBPbfsGvvqJCs9lDpu3P6oUEPguIlDlYebdegSvt1PcLafhgkK/qtfqzPRp92r/o1iDLlz+KLND311FPZes3CpK+wAiNe9uox61N1j+tBpMIyHv9Zz2KaEkk0APRcpM9AiBzSV6t5DBkjr3Z5L32279pfIz+pkKxGrr2dlPcgVcLYEZ4QnlXh5DxhZI/7nIv7Ioz741rEj+txbzwjBLRnEd5Cceppk58QykG2KCJTrEbjlJVROiud8ogfWAnL9jcECsn6GxY9fVRtc7XHnmUAxDrEAqvNsgghJUFEom0H+ajth9Ks9u/qcTzPPc7HNWkiOwYlphhZvJAvFm4EjEUcQQprFX9PFivErGrhkm/xTQ0ihXzD9Dd9EKGKMkT/i3xU5Ytj8qUqa+RT3stWENgeAoVkbQ+hcv3vECBcagmB/x3tIUg7e181fu1xPCOEMQHo2Pl62+QphLU82kNQGzXzMeMIb/rFlEuQRXHcq+xl+wKBQrJ6viVEf9TWom1qe9FmnecLhbhw/rYjMyxOQaiiXcc9/rfXbqUVbTr6dO3/9u6LPEb60X9i8GLQgiiFJTysUGFVE0+/sktD/mqfC9nIUzwv4okbz46ydlTGnq+hkmIzIFBIVjPUYh2UoT0B2ZvZqgrFvn52V8pVm09Cm6KgGFgDTLt404oiM2p3noIIotWVZzVz3EKyer52tU3tEWlARoKsICT+syDxhfJtQj5LrELxkkmQsdr23dN9safT6yyK1efWlrGzaZR4BQEIFJJV2kFBoA8RILApKETKqNund/iMWJKCsy4fF9cLydq6UgrJ2hqPnvgXVhptDanSHmM3NceHaeTIkdkh3KLDrlWtrSw8VTLSE3kqaRQEmg2BQrKarUZLeeoaAUqJoorpDeSBhcBUDJ+XcIQvJGvraiwka2s8euJfWFVjSo0ly7Q1nyYvZrCw8h3kw+RakP8IC8nqiVooaTQ7AoVkNXsNl/LVFQIUG5IVUzMsWqxXFJtpGW8+WV2f4jONU7YvECgkq+dbQkwTaoNIPzLFT3DUqFF5iRHkP5zDtdnqjmgV36Ser5OSYvMhUEhW89VpKVEdI1CdoqGowqmWMrOi9LBhw5JvorEouEaRuccex3VcvF7LWiFZ3YOWBbXahqrtEMkybc3vasiQIfkzWd7mMxCI9hmhNlhtl2W6sHv1Uu5ufgQKyWr+Oi4lrDMEKKbqHsoPsbIO0dChQ/Oii4gF60FM5zhuVetBIVnda8TaTbUtBVFCsCxvYHHc4cOHJx9+1w61yWobjWO5iOMIu5ezcndBoLkRKCSrueu3lK4BEKCsWLUoQW8c8s2i8KwDVF3sEdmiHFtxKySre7WONGljQdi1I9ZTn8exjIipam+4+jAyQla2gkBBoGcQKCSrZ3AsqRQEdhgBJAvBsodlgeKz8KNVtp0LKwTlKH6rbYVk7XiNay9VS5ZpQMsz+Hj7mDFj8mrp4X9VfAF3HOdyZ0GgPQQKyWoPlXKuINCHCLAyBIlCqFivfHrHtKFvq7FuBQljjSgk67WtprP6sKoa8lHai3YTbcvyDLNmzcoEi/8f/yuO78iXOMWS1ZDVXDJdpwgUklWnFVOy1ToIUIIsVKwIFB1ChWj5GO7gwYPzp3esEO86ZdmKSrBYsrreH7Qre0wVWkiUxcq6bKykCxcuTFu2bMntCrnS9oolq+s4lzsKAttCoJCsbaFTrhUE+ggBihB5QraElCOl+PDDD2f/LArRfyRLnOoe8fsoqzvlMYVkdQ72IFXaRLQnBMqncHwSZ+LEiXl3HP5XES8IvDTKVhAoCPQMAoVk9QyOJZWCQI8jQPlZu8ir9RyTTSFyVmZtCKsXBYpwNbtiLCSrc81LO9AeYnrZKu1Wa7f+lcVFtSVfFvAJJ6QKuS9bQaAg0HsIFJLVe9iWlAsC3UKAAkSm+NB449Aq3BQkwuE8giUsJKtbMDfVzUGytA2Wz+effz4vC4JgzZ07N7cl7cd1JKvZyXlTVW4pTEMiUEhWQ1ZbyXQrIMCSRRFySkauKErrGVGcziFYLBbiNbuyLJaszrd4bYIPn+UZpkyZktvMokWL8huF4fMnTiuQ886jVmIWBHoHgUKyegfXhk+V0t7ZijvyEGHDg9qFAigzJRjWKlYJ6xiZNnzggQfSK6+8kq9VSVbgJKy3LfK2o/nyIoDv6PFR87YlK19309zRvOzs+2rLXf0PF/5XfPiQ8qlTp+b11t59993s2I60a1cRurfetyhfhL2d3756Tm+Xo6RfHwgUklUf9dDruQjBESFhHHucay+UMfEIZgqd0jcaZkmx8/mgAPkKIQJ2x865Jo577LWEoL1CRx4ib0KWmup/cVphC0sWhQg7fjQLFizIRIuPTbxxqG4CH/cEXn2FU9SZMPLRUdhenuL+9tqYNmS3rtOjjz6apk+fntavX5+dtqOdaWPaZLWNeX57z9Ju4nkR1ua1o/t2ZpuTp8hntY6rx9pIfH/wrrvuSjNnzszrrOmLrtlhHPcId2ZZA/9qGGWM8tZei/PyriwdtRllZv3URqKdhDyqtpeYbq+2l+oz22svkYeIV82zc2UrCFQRKCSrikYTHuv0VaEaxyGgCIgQWKHMCR5CyuiXcvNdM5/eWLlyZf6QsTeTWBUWL16cv7dH8VP6jzzySFaEjh9//PG8BIF4LDA+gLxq1aqsIPkYsUb4fIfnhHIMBSBPkb8I5S1G31WB2IRV1lakEOZRXvX05ptvpjlz5uRVuuGvjkJRwCrqUOi+vtg8J3Z5rNZV1F+EkT91TglqA9qCNqGNWeWeg782tnTp0tzGWGWUeeTIkal///557TBtzWKalrnQxsQ3PaaNImHVNka5wsiz5UMeI79C/+2RR+fqbYt8ymMQpgiVSz8yjYxYsWAhpKydyGeUWxpBDKrhziprrWyq4h/llXd1pxzKaKBBJnHmf/bZZ/M0ujpX99qB9qC9kEk+ERQyyXGtTIr2YlmLjRs35g+zG7gYKMbg0PO1jcBLviJvEVbbj3NlKwhUESgkq4pGEx7r9IQXYRHCVhijWiHhZb2cF154IQstpIgCMzXjW3rW1THtYHfMmmD3ppKpq+o+Y8aMtv+OxXFP7JGGe6RP+BGMFCslgUSEY668Rb4dE7QEbgi9JqyuvysS4R6bY+W3Cjwcx48fn8mrV/GrWAWh6AuBH4oyFGTUV7Qx+UKoKC5WFnmnFBFEdW8xTO1Ee9JGtJdoX9V25ZzlBxAILwFEexI/7nEOLvyQHCMc0kf6fXxbG/N8Slobi7ZUVZLKUY/tq9qPYSrv+gMyEMsz8NeDEXIaVs6oB+WqtqVoUzszrLYdmEcbUj7EGAFHpgzO+JRpL5z3Z8+enes86jnaQsiWkE3aVcgjbSTak+vi2h1Hu3Fd2ogZQoaEIf7abbSXaB/qo5pn5+XbubIVBKoIFJJVRaMJj0M4h3AQEs6UHmVjNEigEDCElt0q4wQQAcWCQOgQcjHyW7t2bbYWIEWsXEbMr776anr99dfz7phwNDqUvvgctyk5CsDzCEurThNylCYFIfTfKJwilgZBS+BS1BRLEIgmrKpOFUn9qTt4wktdsdwgyoR87JRrX5Isz5M3uzxQ/upO21CX6pQyk19tLBQcEq99sT5oG9oIaxbrAgWnDWkH0caE2hxLlUEB0hRtjDLWRrVVlgzpIlqeOWHChExAPDvamOewoiGp8hukC271Rkgo7yBM8hmWQKu1w9abp/qrMtWS7qibeiuT/IR8UiZExiCLXEHCyQftJNb2Uo/IEpmEOBucsWCuWLGirc1oC9qENqJuESRyiUyClXYT7QVW2qY0tD/tRXv0zOhb2otnwljb1BZZj8M6qr0H2dLu+6LPdUpQlEh1g0AhWXVTFb2XEcKMoOWbQPBQ0IgOYcIaQkBTPAQXK5brFJi4hB5lSbG7nyAMUzqhIt0Q/qHgQ9HGSFv8OA6TP8sZ4UcYIgmUo5Eqskeo8ilBvJAx1+RHPqTTyqNF2FKwpk1MwbLsUAKUB2woK7s66SuBr32pE8+lgOSF4qOYoo1pZ9qYOlaf1Sk9lhjti+KyayNBepRDmavtTPmVNdqUuHb3ap9IhrbCmoOUUdoIGBIXbUybt+o5ZUq5RhuDq3Zcb5u6hAGMlR9eMNRffOdSGZAI5Y92EP0ziEC9kSxtRl2TAwZiiA6iqK2oGwRH/zcNiBBVyVO0GeWVhrpX7mgbyq7ctTsMI060H/fCU5pkHpmE4GvD5CSyRxaRSWQTkqctaVfamHTiOfWGcb2141bMTyFZTVTrOnitYiVUKD4CGYmi6IwI7QSaaUGkiqAjaAgsQqNWQIeAJ+RdIyA9y+7YLk4I9Pgfwi7iC8URN3Zpei7lGNY10zsxqgwrF1O+0aQ40m1va3YhBz9lpygohXCEp4zg4nzUUW1baA+vrp6rxdd/BIfFAOkzPcdiFRYj/1mWtD9tTB1TavKpHNFmqm0p2kW0mWjX1bbj3upe2+5C6cEilKlBAvIlHyxlsGPpkldtTGgKm3UjPjcT+MhD7HGuN0PPqm5R77BW70ghhY+QwNdgKOq+im3g6/7aNKvp99ZxYFZ9trzo7wZOSAyZpCwIL9KoDliXwmoUMinKp96jvqOepRl7XKvKpih/9Vy0uQjdV21TsCYTq9Y1MsjAQXshQxEwA1MEV/uSlk15HVfLH8dxvbcwL+nWFwKFZNVXfXQ6N9Fhqx2ZkCBUnRMSxkaAFImRYYzCjAyZzAkPI0GKKNIRxnE8Q+gcQRVCuxqnehz3OBf3xHF7YW18cQg6As4o0XQR5W2kTgmy3AiVwaiT4I005C8EbISuNdMWmEZdq0MECy6ULRIBE3solh0pP9ziWVFv0rPHecqPcvHcqJuwViHDlKg2qC61m7g30otn+B91WD1Xe756TVowiHpuL804F2H1Hm1M24efNia/BiEIIuJCkZqyMs0k/5GGMMoRed4RfLd1TzzDc6q7forMsviwqlDy+jciEDgEJtX8Ou6tvNaWI+qomu/AS95YCskebTamcA2mDKpYs/RpRFz7FT/Sq2LSUdmijNsL4/724lWvOY7nywuyrn+xdGkvrKKsyNoL0oW0s+JqV1F+7T5kpjTivLTL1hoIFJLVoPWsk+q00YH9d0wQIydG44SXaREKkACoEitxCZD2tqrwiesRtzZ0Pc5F3DgX54Xb26v3xnGUiXCLaSiKjyI3RUKw8cug6MWBB+UJA0Ja6FwzbbU4EtoUk7om7An/WiW1I+WHfYzqtZXqTolQJqyg6sBzEXkj+rA+sFZtr41FvqKdVP9HOeNchNXz2zuO60Jbe//hp5zyS4Eql6kgFhXEFZFBapRLnOhzyubY/ZF+5LG7YbR77dcuf9qzqU+WwTFjxuT8IYfOR7mijBHG+Z7O37bKJ+/R/+Q72g1yxXoo/0GuTCc7hzgiiu6D5/a2arl2pGxxf3vP6Ux6yhgySZ0YBLJoaS/6ggGhutFelAlJj3qMPqXtdOZZ7eWxnGssBArJaqz6asutThodVug/5UdoUXg6u1E5KwMSwuoQQk9cgqLeN0JIPgleO0HFJG+6x3QJRRh+NRR8TPEQ7OLGaLjey9nd/KlX/iqmW5AeU3ME/I4SALi7F36UCSxh6j+FyOrAKsqaQrnwd2IRCqUSBKQRlEiUNfIMS31FOfnkIK/aGGKAbGl7gYewN5RltPXAH2lWpzHsvTZvAAAgAElEQVS4QFRYU9RNvfVjeZcvOyy1CYRDnpEQbRSO2itSK15g7956K09HfVNe5VsZlUH71w+0FwNAZVVOU/jaiV19xu6+RugfHZW/nO88AoVkdR6ruoqpk+uo0YEJf9MdOrjRN4uP0TfiRRiITyGI7z7/630LBRhES/6VRRmqipBvGYUv5Ixq5BjYNIrQ7k5dKKN6Zr2EA2VsmmtH6zhwDyUPb5YG0zmIu1XnEXlWM0okFGUonWhvjaBEoqywij3amXIpH7KF0I8ePTpPIyI88IaPsvZkOaWlPrVf6bNKGygheqzSBhMUuvavXuqtfcNOvvVB2PG50iYN+ljTEa6wWlVlURX7eitTe31THpU12oqyKLOBXrhojBgxIs8iGPgaHEZ/Eqrfnmw37eWxnKsPBArJqo966HIudHIdm7DluM6CMXz48DySCr8A1ymBEAY6NsWhk++oAu5yRrtxQyhAZZXfEGzKZVcego3VgSIiyI0gTffwBWoFQRYYwYPFw/SpRTtNWfi/I5s0tRttpaosKXrtjD8cUo9oiANnbSzqSD1Jw17vmzxW8xttTVmUSV+hIJFWAxcWLQMZhAGJEKenN3mAKTLF72fUqFHZcojkwtw1+VLn9daP5YdMQkT5K8k7guq/PsmyFSQj+nBVRsFT+et9k0d5tUf+hcqm/MgW531thVxWj+RUlN19jdA/6r0eGiF/hWQ1QC3VKgL/CTN+SkaKRkw6s1Guc9HpCWPH4sYeQsF/2xuvv5He2rKlQxQ2PP98Wrd27d9dZ+4fN3ZsGjFseFY2fxehB05EuQk0e/yPMgijXMiAPLHiEOymJyjBKKd7Y++BrNVVEsqlnu0UmSk8RAvZpNSi3BG2l/m4JoQ13GCKsJsC4QckXf8pxx3d3nv33e3e+vFHH6d333lnu/GqEZSTYuuJLbDQvihFOCCTCA5LDNJAcbLmIZvRNmEWx53JRzwn8I574cvXB96sZ4G7PETbj/qWxs7eohzyAS+WP9ZObQYhZ41zXv6F9ioxV6bYo79GmbQX99Xbpq6qeY7/QRyVw7GXP/SfYcOGZSuo2YWQye6JvR7qsd4wbpb8FJJV5zWp8+mwOibBFMLJ6NroaODAgXl6kPCnDGJzX7UDVwVh9XjeY4+lM049LQ0aMCDNfnBWmjN7TiZPM2fMSIMHDsrXpk+dFsm2hYTHlZdfkb6373czuWu70MMH8treFmWoXocNpceKQzlRgvzRCPVagdhemo14TvlDwGsjBDt/HVPGlBw/kVDOMKhVYtX7AyOhe0y9esvOdA8yj7R61uY33kiTJ05MN994Y7rl5pvTlMn3pVtvvjn1u/W2bPGpxVF64j80Z066f9r0NGjAwEyG5bW6vbRpU7rhuuvTxHsnpGFDhqZrrroqP6sap/b4odlz0sjhI5LwnrvvTtdefU0aNmRIeu21V2ujdvk/bOAVO3z1MRYJTtuILHz0BXhVFSycqm2zo4dL232xsz6aXlJ/BgvasjbturhRX51Nv6Pn9sR5eVG3cLGbBmS90e5YPZEtxNQ18QLHCKMMEUrPrh8/Mnduuu7qa9LgAQPTBeedl6bcNzln2csWw4cOS1dfcWUaO3p02rhh4zaLMu+xeWncmLFZBtRGnD9vXrrq8ivS5b+7LONbe91/cvXKyy9PY0aPTuvXrdsqinxH3l1or26U1cCXH6PBMGu7fhVEU1mr+EijbM2FQCFZdV6fOrFOSMjqmIQ5a4W1ZAYNGpQXxiOEo7N2ppNW4zxw//3pnDPPSrMefDAtX7YsXX7p79IJxx6bnl6+PD0056F0/bXXJoSrvQ1BO+rwI7ITenvX+/IcYQYDOMHHtBmixYeIEmTpcA2W4jbLFoKdElM+uzbiTdJw2CbUo/zi1W7w0Lbs7heXoufcbvrVSwYUheue9/5776UHZ8xIe+66a/rxD36YfQFnPjAjHX/ssen8X/1qK4vSa6++li7/3e/SXePGpTWr12Rro7innvyLdN4vz02vvvIFGZLnK6+4Ip10/AnZp+WZp59OBx14YFr05JO12c3/OU1ff+11mbA9+uXbXKakBg4YkI458qhEgfbkptzajnzCwfNZChFQU6jwMk2kDcK4qnw7yoc0YQ9zaWq3pr1ZpdUdy7RziJ3r9dZu5Ud5I+8cvYN4anPwCLy6kvenli7N7eP2225Ly556KtczOYTEsaqfftpp6Wtf/ed0//Tp27Si//FPf0ojR4xMRxxyaFr5zIq/q4ac1imnpv/8//6nPABIaWuCw8J/9hlnpq9+5X+koYMHp9de3THiruwGxXwYWfjULRcPBBR2sbfXN/8u0+VEwyFQSFadVxlBHIKMwPIqtNHtnXfemb+zxRRPSIdwF397mzgRzyivOkK74brr0vnn/qotiSWLF6f7Jn8ximw7+eUB5XbEoYfVDckKZQUnSpDCItQ4xDPTO09RUoDNsqlHQly5Qlg7pphZElgVLOHBoueca1H3gQHhDhtKkTKw2jULDUdraTinfcE3FMHnf/hD+sWJJ6ZTTjo5ff7HP+akxowek5Xf0sVL8n9pUlII1ceffBKPy6G2s8vXv54uOv+CnKcXNm5MP/r+D9Ld4+5qi3fn7XekFe0oR+n2v/2OdM5ZZ21F6Nz4l7/+NVu2pk2d2pZOTxzALPohnGGhLyKgiBas4AZj8dRJLc61+XAdntJjJWSlifoK/yv1Ff273tqtMiorHPir6WvaDesPoq5c6kr+xe3sNmTQoNwWLE1ik4YBXbg1jBg2LBNpWG9re/mll9LsWbPSySecmLSl9rbJkyanC847P5147HHpD599tlUU9x/wox/nvCB7O7pF/9S/OMXHiwDcG5Qt+q22sL02s6N5KPftPAQKydp52HfqyQRrCHedlI8DC5apsFiyIIRZZzupjhwCm09WdGxCBsliYYhznvneu++l9WvXZasWs7lzNib9WpKF9LFc3HLTzWn1ylVtZfz4o4/Srbfcki656KI2Hy/C2Wh09IgRWVndc9fdqd+tt6bnn3u+7b7OHhBkIawiDJ81Fi1vXsobLKPsnU27nuOppxDilJmdYnbOSJlFzzQFvxBKy7XaTVz3UYzIKJ8j0xpG3lWCBdcgWdrKmaedli1P7rMhSD/83vfTqhUr8/+p901J//KP/5StXrXPVAe/ufiS9PV/+VpatXJlJsU/3f+A3PY8x/bO22+nz36/teJzfuWKlWm/ffZNCx9fWJts/q/eq/5ZFKSpx3633dbW9kRk7Ro9ckS21M64/4E0oP+d2dnctSmTJ6cLfnVemjZlavrwgw9zutEPKfdoYyxNCAbrE9yCzMO0M5t03BP+V1YU9x+mnhe79KJPdibdvogjT/KJOHghAJlHHJzTnuCERHS1z91z111pz113S4/MfaStGNKJtjtuzJhMnAyktrWRLdrkzTfelOWU/l+7mXJEyHfb5dvpsUcebbuszrXjQQMHph/s9730xML221rbDds4CCINE7LTFD5rlvaiTzoPI+VrJtm0DUha6lIhWXVe3TqdTqojEmBGQdaa8baTjhnCPoRQZwSxOO3Fa49kgWf2gw+ma668Kq1etSorKj4KTPcL5s//O5LFEX7h449noXTc0cfkqTpK47eX/DpNnjQp9b/99vSrX/4yrV2zJucf8Tr4wJ9mckUgXnTBhenff/ijNPehh7pUM0EUQmDBxjHByn/GlA7SgHjAtIpBe1h06eE7MbK8Kw8BXbtrNxSR1bU53sIBaapugYO4yIm35igAUz9IMAy1MaE9yMNnv/999tc78fjj29JUx5dceFHG2DP47P3LP301vfjCC9VHth1PnzYtfeUf/muaOmVKPscP66tf+Uo647TTsm9PW8Sag3vvGZ/22m339M7b21aybntw5szsK/bEwieyX9m555yTJoy/N5dlQP/+ab/v7JOno351zjnp9FNOzeSMcr7wvPO+mKq65trs5wUDWGlX+prdOUTCW4CspogGMg/zIEWBbxTBf5tQGqZ1kRMkjSWLRQvOnhNtWBjpRTo7I4yyRChfHPRZiskk1jckItphyCbxukIeYHDiccenb3ztX9PAO+9sa19R5jGjRuXr2yJZyC9ZwwLGL+v7390vH0caEbJwLV60KJ12yinp9FNPaxtEsO7z7eOL+OPv/yDLtLinq6G6U9fqVT9DQuO7o/xq9TMYFZLVVWQbI34hWXVeTwQaAUVosF4R5AQzAabzRufUQTsriENI1ha9PZK16cVN2Tn0rrFj84j17rvuSiefcEJWgqYSWbL4z9gQJtM4G57fkJY9tSwduP/+adTIkWn1qtVZafGR4Adx2M8PSXePG5fvGTViZDr2qKPT0iVLssJSzoN/9rP0y7POblPWtfls7z+MCLDYYWGHC0dl2HmlHOETR3zXI4RJo25RhihzhMqunVBaFCFHatNbYSUh9EOwUwIsEsgofz+YuRY7zAIvOP3/7L33t1VFtvb/T7z3hzvuveO+3d9733u7tW27bbuNiAkjKrZixCwqoggiSRQBRYKCoCg55xwl55xRJCNIkNjm1LbdPb/jM/E5LPZJ+5yzzzk7zDVG7bX2WrVqVT01V9VTc86qRfwWzZ6zSy+6yJ5/7jl7sFEjnyhB/Wl7sW07O+/X5/jgQOeSe+TnyjpXGJoLNtJcOH+B3VjvOrvgt791rSr+X8mNPPTo1s3qXna5HT92LHmp2DE+hpAoNKTaOnbo4JM1jn76qfuDNfzzHU6yDh865E72H+/72IgzbOhQn0nJs/7coIFrH0iD54OJ3jv2YIzmTGQeHCmL6oE9+HGf9nSsOImjMdT6V2CnOkm9hzquTRlNlTHKQRlw6EZmkCsGMEk54Vgh3bzrLTx+7Li9/tpr9rvzfmv3NLzrrMk16ZAszNHIJ/Wy/+P9TrJe6dDB60CyQJ4YCDCDGk3VJRdd7D6AP/zw/Wkf1U2b/PytN99cJZLFc4QD9QqWDFIhWPg9Ii+Qda6li5PKEPvsRyBIVpbXES8djTO+MTTImAvRRuiF5HoyVKU4JZEstFKQIjqqiRMmuGll9ixMlSdtxbJldt/dd7vfDJ1KvauuttdefdXV7zOnzzBMMDu27/AO6fDhQzZz+nR7o1t3a9emrU2dctpnZsSw4db40ceMmWXaXmzb1h66v5GdOH5cp8rdJzHQMY0ZjRudIKNsOgM6BRo4dWJ0ksQhbi5vKrP2Kjvlo25YegFtAxoTnG4hURBOZrMRByKGqYqJAvgWiSQoveQenLj+TJMm1uje+1zjg98LDufMPNQGgcYciMazpA0tA2SJiRWkr+3QwYPWrnUb+/X/+x8bNmTIWXVDuQYPGOhajgXzF+iWs/akRbwJ48c7iUs6z2MauuD8823NqlVeBmQPDZq2lctPy/voUSNdw0T8hQsW2GefnSZ7SRw4lhwhY5qNOW/evLNIKqSWzh7NC0QE/zj8KvFhgvjjNE89iGAhj6nPUf5qaw+eScJN/SMnyAtlQWPM9aq2SzyHNNiQSybkYDq89aab7eAnB/18OiSrf79+dkeD2238uHE2ZvQY147ffMMNtn//Ga3qP//xD/vzbQ3swM/LknD95fbt3UeVNog6WLF8hd3RoIGtWL68StCn1idlRA5YcgZTPu+jsKvSg+LmrEMgSFbWVUnxDNE48zImbfhqiIrHrvwZnJm7d+16luM7flc0cnSINHo8V40Bo8X777mnyKfmissut5EjRhZ1FuSERpMZZkzHxs9l88ZN7nczZfJpE9GwIUOdZNHQaUOz1fW1Lj6607nK7GnYaPjpvDCFYTZjajyzDSkLnZn2KlNlnpON9yTLToeIGYfZdxB1yCaaLTp4iAEdP6NpzFb4cCFv4ELdlbZBKpo+9aTXHTiilapz6WXWrnVrJy/cx7kLf/d710iQn9QNf5jLL77Etm7dYlu3bLHVq1YVRTl5/IT7wjR58sliGs1lS5bab8891zp2eKUofvIA0x3mTsx+PH/BvDOmZwYNF1/4R88bmDz+6KOutdL9aNIwReKvlcTgn/8onn/uQW5EPuQDCL6svo92AtmjM8UMi7YHggvumP0hJ5jbiMezFEivJLyUx9rYJ8tJPpERygTJkmY9SbIqm8evvvzStUcMALQxEPt/v/j/isg6cvPow4+4Jk1xkEe1Ifg5vd2nj8dnQMWglAFenUsv9TZI99g//+lO7Uy6YBs4YIC3dUz0wRePDZm8+847q6TJ8oRSfqhfyDeDZrRZ+GkhK7HlHwJBsnKgTmmYGfXiYEuHmGz8M5l9/GxYf+aZJk8XdbCY9264tp77pfDsr786/X3EL7/8wpYsXuwjQcweNBrMNnuycWP79MgR7zgwf6AhYY2k+jfcaMeOHrM9u3fbww886L5df/vbj76GDb5bamS2b99hdza43f0kKFtVOhvupeEHLxphNAZ0bjRslEXX1DlkEsvaTouy0zHScNOJE+hwIB+98Ytr0cID2iuWAMF0AfGCgBIXTMoiWcShvvGd+e67047v773T1/7nl/9lQ4cMdbx5Pr5OmOzorJQe5yF1TZ9qYu/0edvzOW/OXJ9Ygbyo3p9t+oz1fuutYp0PnROaBtKFnCld7mMR03ff6WtLFy8xNGLXXXONp0t52Ab1H2ANbrnVjh896sQT7RvT87XhK4ij8+uvdTEmayAnvANJDZ3isk+SD8isFsSF0CP/mNTA+PXXX7d+/fq5aRCTP+8y2h/kMimHHEuTlXxObR+DMXkjkGc0owz8KCfkUmUg78n6qGi+//7TTz4BYUD//kW34krw8AMPFLklDBowwG6rf0uR9ufHv/5YpCXnplkzZ1qbVq2K7ueAtu2ehg3t0QcfLpqlyLOoa+qXDT/X88/9jb3c/iWvV86hxbz6irru2+eRMvQDRrRLEHAGfiyenOovmaFHRTK1jECQrFqugPIeT6NFQ8Z6RTRsvJg0aFVpyEp6Jp3J6pWrnADRCdEJ0HjSoNIR4jvTvNlz3gANHzrMnX1ZFJBRP4tBkk/Wt7nu2mt9xhmLVPZ64003g+zaudMa3HKLtXiuub0/a7aTOFTzH3+8z6ZMnuw+MjjWs2bXSy+2t/lz52akfEmSBWZ0ejRodHqYbzinkGk8S8K4Js+p7JAsOn+ICZ06ZKpdu3Z22WWX2YUXXmjdu3d3fxc0Ekkn3LI6S9KCYN9+621Oqj/6aJuTkS+/+MLatm5jv/vNeYapEEx5freuXV3zgMkFEsfIHTMNdf7tN6cJ2gdbt7ojfe9eb7lmdOaMme6XB+kpaaNDerVTJ3uw0QPux8UMRTRYaEyZofrZZ6ed4pnhiN8gWq3du3a59gtnePDB4fn6a661Vs+3LPIbAyscpjFjsrwE2jImc6BhKWmjjMgQ7yVlFcYQEMxpODiD97XXXmuPPPKIL72CyVraQu5LBtKCuJG/2t7Ig/LBXu8KGkAmkeBLRjsB4VYZypKbdMvT95137Nb69V17vmH9BvfNw/T7ww9/9eUhWGLmj7+/wM3BSxYtsgljx/syIb4czc6d9uhDD7kfF++4NvBGQ35VnSu8vULbtWHd+iKfPQYalIvZ1SLdEOSur73mJu83e/TwOlN6Vd1Tx2DGwAfzMlhC8oR3VdOP+7MHgSBZ2VMXJeaEzgQzDo7bNBRq6DJNCujM8HVgRg2kacigQSafF4gWo8lxY8bY4oWLfD0ZTB+QLAgXJj8IDBuaBTRXrB6vDtQJ2Lp1PkuRtNBmLV+61DvhEcOHe0c9dswYb1STn12paoOjjoHGDNzoDCAS+CZhjlCHRoOXaTxLrMwaPqmGnPJDotGIosl75pln7He/+539x3/8h91///2+aCuNPIRAWizqrDT8Ma+gLRo0cJCTKeQAkxEbcsDK7iz1oW8nko81q9e47xPLIjBzb96cOcUwZ/FNlv5AQ9a5YyfXgpYFGbKExqp3z16+gO5jDz1izBjEBJrcmJqPnEGetCYc5Zs4YaJPzEDe8f3RhtYDP65xfNR42bIyNQxgRFp6L8EZAsJ6UWgnWM+uTp069p//+Z9Wr149e/PNNx1nOnRkTrLHsf6XhrvyV917nk+ATENGaHeQC0gk5WTwxUxI3iPqXe8XZVF5qpJHiCr+nx3av+SuC8iT3k9cJlhwFj+6IYMH+6rvtEH4Xi1busxGjRjpbRLX1/28Xht5YQDIlwa4h8k41C/+drRd3D954iQvH2WFXFFWTMv4BHq7OGCAbdm8pSrFOutecAI3SD2L2jKjF79b8I0tvxAIkpXl9Ukjh/aF0S8NMw16JhqytIpdA6NpGkUWq8S0k+lNHaA6ARowiAarUtMRgiedB52JOhEa13wIEBDKRBkJjOrRiHbp0sUaN25sN954o/3mN7+xyy+/3Jo1a+bmaBaRBCPJV7qdPfHoBNOJn6k4qbJCuuWlXd711DTT+U+aIkjswQ+TIaQVE+F9991nv//9761u3brWtGlTxxkZRINBB0sdUVcKnOO4NmVQcqPlGVggFVMyJID2CG0kztpohCHVqRhkCmfhmk49VDVOpvKcbj54x5AVgrS7+LhR97HlFwJBsrK8Pun4IFmQAl5AXk5CTTcK1QETDcyb3XvY7bfc6j47LPGQyQ2MIKUipvxHg9WzZ093AMfUgX8WZib2aFLyKVAmAuWkAUeL9fDDD9vFF19sF110kWuzzj//fLv55putv3/v74hjpc4tH2Qsk/KUTlpgBjkBz3vuucduuOEG37dv394XhcXpHS0Q9YIGg5BNMkd+JDM45vfq1ctuv/12L8dTTz3l/nwQSH1XEVIYW8UR4B1T28Q6a7TxLJ0CwY0tvxAIkpXl9Yk6HrU8jsKMbiuqZcjm4uEH8VK7F90PjE9p6LMZmcozHR54JUkWfg+vvfaa9ejRw4kWs+3wd6PjwCE5nwJlIkCuCJiuGjRoYP/6r/9q//Zv/+Y+Wbfccos98MAD3mnS2IvE0wnEVjkEIFlvvfWW3XHHHfb000+7rA0aNKhIzpA55CybZY48MtmmY8eOTsj/5V/+xc455xy7++67rVOnTl4+SBha4tgqjgBtk0gW5lFcQvDNQqseW34hECQry+sT0wMkC1W9SFa+aLLw7cC/h4Ug9/ER458/15OpKqEhgywkiRaTB9544w3v5NAgMDOS0Ts+ZmCcLwHNJ2VS+TA3Y/bBBwvTFfuuXbu6LwhaF2QMUxDaRfAKklV5KTxw4IB169bNNViQLVYNx9+NQL3omPrhONtkjjzxbrC4KoOR+vXruz8Z5s6+ffv6xAVkCZIVmpfKyUlyAChNFniGZrByeGbzXUGysrl2zLzjowNk/SIaNGkaeEljKxsBNWRgJv8HloqAVEA+mFTAyBFnZbBlVJ4vAUIunx/KRkOOOYLP6zC7D5MQ08dZMgHzFbMLcRin/BCsIFlly1ZpV8EN7TPmwauvvtpatWrlhAVZU32wV5D/VTbJHXnDjw+yiAM/PoxMvGHtL4g4Lgx8axHNCwOl5BbtUhKNso/VPjHwY2012nje29jyC4EgWVlenzjIYq/H0ZRjGnHUzNGYlV9xasTAi8YLsgGhgGTgbErHJlMiRCwfNxEmyk4HSYBUQjq5Bi6YoiHyaDDo9HVPyFh6EgFeyA+yBH5oqCBXF1xwgV1yySWuOZW8gTvxshVj6py8kUeIIeZ1zFnID7JC/iFWzNKlXYIgKD73EGIrHwHhDJ68d5hneQ8Dv/Kxy7UYQbKyvMZovBk1MsUXXw9eQshBvpKCTFYHDZnwooOQ7wNT65kVxTV1duCZj6SCMilQ1tSNa2i0IFl83BgiDxb5ikdq+av6XwSDzpL3kmUrICAvvfSSz9z893//d18jC/MaBFdEBXwle1XNQ6bvT8oLx2zseV8oJyQdTTC+jJgVk9o4rpckZ5nOY66nB0bIABpD2iP882jfhXeuly/yfwaBIFlnsMjaI/w4cJxlFhwvpTQwWZvhLMmYOgbwonPjszI4gOODhZkw2dHRgRRqA4dmgun4zHzDRARWhYxHRcQ3SbLADfwwveLLhJM4szeZYYj/G3InLSJkJJcIicqJXECqMC1DzCEIyA/vGOXhepCs8iVIeEKs0AhiemWAE1v+IRAkK8vrlI4frQuzkWjUUN/TmEdDVn7FgR1EioYf0wfrROH7gImDDkHXuE4oVJKFDw5EHjMqfiEsxljIeJQvWWdiqLOEZIAbAyFMP3yIm1l4LPzK2mR0pKyPhRwSVwEZzIWNcpJX3hvaH3z8cNRmVhyEi3NBstKvSfDEBIu8YKXA3w38Yss/BIJkZXmd8jLSIGO3Z20afcaiUAlBRaorSbLoCDBv4JMl3zZ1GjRu4FyoGziwnAYLTuLoLBJaqHikW+6kfEFUkTHwA0feU7QTkBC0p5hiGSyJjIiQgH0uvMu8HxBv8o8mC03w9u3bi8zMaLMoU6G/S+nKDnhKi4XMYErOFVlIt4wR7zQCQbKyXBJogGncIAaYc9Bo8XLyknKNkDzO8uJUW/aEAw0VeCjwH18s/NpozDDn0BEoPtjyv5AbOLBiVM1oGvmCEPB5kaRcgVchb5RfGEh2wAf5ISBjaErxrWEGK4SKmZvMxOM7hgSILLKmeySruYArZSW/5B+ixcAPYsXyFGiHkR1kiDh6l4SZ9rlQzurKo2RH6eP2wYBPn9OR+0JqPMWPfe4iECQry+uOxk0NMw02CwTy/S7U9TR0IglqBAv1JRVOYAJewgzzDI0ZWixmffEfzNTws+deQqFiR6cIbhADTEDIGJoYiD04ClPhluWvTLVkD9kAJzAQHsIGZ3ccwUVQwVFx8MHCBIsJEZMsnalkk7SQu1zY9L7oXREWDPjQ3OGHxgxKtFwqH3GIz75Q3y3qNik7YIEMQEppkzTZBFkodJxy4T2oTB6DZFUGtRq8hxeUBpvASJHOj3WeWNJBRItGTQ1bITZmlJlGSiPsZAeHszGkAS0DeNEJEADaVJ0AACAASURBVLcQcSpNbGncwQyTlxy30cjQEUC0ZCJiT9xC3SAMvGfgIEzAh8VEIVEMfpipmSQaxMf8ij8l2lRkkHv1vuYynuBBm8TSAxBMys9nqzind5B3jUDcQt0ov/CAYIEXBAvtJmZCrkseol3KPykJkpXldcpLxwvIS0pARQ9hYOVl9ph1uE4o5JGQiII6QLQLaK5ozDCz0vhDIoRTlld7jWUP+UqSBzrI3bt3u6M2xACihUM32EEecpkUVBVUcFKHiJyBCwQLQkrARwkzUCqJIp5MicxwBUfFyWXyIbnhXcOBm8EMWi1IpWZBi1wUMnlQ24QWHRmBkNMuSRZok/JBHqr6fuXr/UGysrxmaZxoqHgJ2dPZMRpmyj2rd/Ppi6NHj/p5OoBCbcwoO50X+EA80WDRmEGw+DSRGn0atFzu2KpDXJEZNfTIGZ0BfkWQLAKTLjCBgW0hkyzKDj4QUWQMEyEyBsHCFAjZACN1mGAquYSs4gCviRciH7ksiyIPlBf54CPkrAemdw45Ag/KWqjtEu8rdQwW0nhqNqHapGT7nsvyUB1tUz6kGSQry2sxSbJotNWI42gLwWLGIQ7dO3bs8BdZjRl7HauIqf91Phf3Kp/2NPg0WviI0NhjvsA8w6gaFT0dAY0ZoZCJQkl1DYaQATCCqBIwgyFTdJg4Nq9cudKx5RqbcC8pvVw/R9lK2sCIzhKtKDKGNkLvHnjxbopUEJfAO4vMsfQKfkvER0Y5jxzmsiySdxEEyk2bhDsDuDCrEuJ54sQJl6ckecg32UnKS2rZkAEIKJ+xgoyzTAoDGORI7ZH2yEQSp5JkMM7lHgJBsnKgzmjMeFlT94ymadRQ0zOiZmQtp1vi8sKWFpINQzZDoEYrWY4kDhzTONHJoX6HWMkBmY4NUqAOT/toyM6ucTAWpmAEngRIq75Th3yx8CT/Oc91yVhJdQTGuSBj5DEpWyUdEwdc6Bj5LiFLM4AH2mScvdFsSQ7BhbjCRjKHA7zW0KKTpWNVvLNrI3f+SWYkL5SH9xDNJ2QCjCDn+B3xHkomuE8hFW/JUrajUJrcqN7ZIxcM8jAVo73i+4+8P5r8IFkRftwTW/4hECQrB+pUDY/2ZJkXktEj/h44UjJKplGjA8CnBtMFDXnypeeYhpCXOhdeaDVk7NVZsadcaF0IdHw4G9OBoSVg0UeOZUKlnMItuc+Baq/RLCaxEd7gTIcAvnSWYIuzLqNyCKw6CzCWbKmehHuNFqISD6OTT3Zyyr/2XINUUl4GNGhoCMgYSzLwDoo8pGKY/A8eTCpAK0inCxkhbZ6TyxtlTJafY95JBjy0RQx4IBe0UfiTQrZUbuRLx+wJuSI3lJu8JvPNf+oTmaD94T1BVjC5s9QFZFNtMnGFG3sd57IsRN5LRiBIVsm4ZP1ZXlJGSnR0jJIxYTBVnEaNhpwXnHM05skXm0ZAjVm2F1INmRovdXw01JQLswvfTqPjp9wLFizwxh0NH7hIi5Xt5cy2/Al3dYJ0GmAqTSFmDzpQNDIQDUgIcSVb7Kkz0sn2jXyqnLwXkjEReMgVGmIcujGDoSnFjMrghjjET7ecyCxLZICfPhjN/fm0QRbAk/cP2YCYQjLQbPFNR7DDrIhMJXHnXRUBI41s36hz5IU8UxZkgT3mUd4L5AQfPPYMepPygszlyvuR7fWQC/kLkpULtVRCHnlJ9YJrz0iR2St0gIygmFK9atUqb9B5yYmnDjBXGjI1SORbHR/kCsd2yge5wm8IssXijxBP4lFW9twfW8UQoAMBb3WC7OlA6Dil0QF7Ok86EcxDjNLRYAjzXJAvUEE+KCuBTlMyhvYOmWKpFEgRWjwGMZRfpJK43JcuySJ9Pq2D6QhNGLKaKzilK0HgCS4E3kHaJEgG5BKixQCQY9opyBZxwEWyBp65gAl5JK/UIW0rhJLJDbS9KifaX86XVEZwSldu0sU+4mUnAkGysrNeys0VLykNU7JBU0fIi03Hh88InQNmNJzkaeC5xoia+3Jho4x07jTIzBKko6ODp7FGg8V/NHZo84irzlKNNjjFVjEEaPwlXxqt05nQWRDoVNDEQOCRLToVTEJoLTiPXyB1Rl1k+0ZnybuA/KCFIP8QIIg75ULG6CzxpcEEDw7SXHAfZUy3s+RZDASQX9LlON825AZckBP24KX3l/YHUynkXGZTtD4QdGSKuMhbunjWFnbUI+WDQEpeIOOUifdBGjuuqx2iXMkATtleztrCN9+eGyQrR2uUl5RAI09Qw8ZLzTFaBfwC1LDRABDoDOkcUdtznc4ltTPk5U8GGhWCGoXkNZ0TjKnXkv8Vh33yfGoalIsGl04PYoW5BlMghFEdOpostA2Uk8ZLOAgTNWj8j61iCFAf1DfYESRT7NVpIGOQdToZyBVyRecJeYDQowXiW36QY+qypHqQDCh3yf86Tt1LFrXnurbUuJxPnlM89uSHzh+igzM7ZYAAkH/KQXkwueNHpUEJMkW5CcICuUvmIfmM5DFxiIsWjGfxAWn8lCgHG3vlNXlfrh1TjqS8CCuwg5wiD7Q9yAiERG0SszVZ4oABk/xJS8JVGFV1n8S1tLSScSgX+cdsjkyQV1ZrxxdWZJwBH+8DcZB5yk659R5pT1qE2AoDgSBZOVrPaoC056WlEdeLrGNedF56VPaMyPUJDBoHRuuo7lFzQ1hoAOkEuIf71RiQZvI/5/Xc1AZK11LPKz5wc6y02ZM2DRidGZo2iCGNLh2dpr2TV4gWjRsdozQlek4yPY6FQ/K5OVrVtZJt4ZpaV6k4U3fIDIQdOUKe0NTQgUJY0Kbi9AuhwNSGxoK6TspT8lnJYxVc51SvIjt05pzjOpvisVc+JQfcQ8dHB47mhPwgY2ggyKvM63ScaFcoD/GT+SStZLrJZyuvpe2JSx7IMx0xJAtswI78Kp8VSbO0Z9XmefKfxEn/dY49GPCuM/OOAR/vOfgziOI9h+xC0tEeMtACI9U16QmjZH3rOPV66v9kPI65LuzZJ8/RDpJPZAFiiBxjHkeu1X7SJrHoMS4MGvAly5qa1+T/2qyneHbNIRAkq+awrtEn0Vho48VWwwaZohOhccN/gA4Gh15mJkLAIGIQGUgZDQcLn0LSaEAgNgRU5XQ+apT0nORejRXx6FzUwXAvaZEmnR0dDv4ZaA1YIgAtAj4r+MHQWdMRst4ODS4kkOeTVmlbstylxYnzmUUAzJEFSAl1RF1hrhaJQVuBEzB7OiXqmjqn7pExOlLIl2QrqQFQp0SO9RzqX+Yo5IuAfHMfgXzQOZIuxI78QKowA0rGkHlkjU6TfJJftKbkn/spTyY38q73gLxBsFjjDq0IZdR7og46V+W4IvmmzGBBO4A8UD+QdEgM77/aAMgNBJ76QdMF6UFeIF/UleQFfEkzKTOqQ/JFAF9hzX0QftIhPeSFQR51AqlCg05+IIC0ScgMJJAFZWmTJC9qk0i3vPKXd135jX3+IBAkK3/qssSSqGFR40LDQqOCvwAEig6Ixk3mHho2GhOpwBnp09DQ0GHmYIQJCaNRhIhxP40S5I0OjU6ThpBRKo0Qphg0U9xDR0YHi88CnR2NKc+B4BHo9CB6dHrcQ3rkk0aMxlSNKI1ZbNmDgGSMeoHsiOTgm0UdSjNJ3ULqqXPNgkUGJGMQfzo2ZAVSREeHyREyhkwhY+z5z3kCMsisR55BR4xWARmjI4TISMaQaWRbMoY8cx+dKjIG8SffGkBkujOk40d+ef/AiLINGzbMBzvS7HGeOLyrmX5+9kjLmZyACWWlzGCA6wIyQx3LRYD6o86QGUg62i7kiDaJAaHaIwaOyADtDe0O7Q/yQnukNgm54ZrkBTlDXmj/aJOS8kJ7hIzyPAZ7XEe+SCs5IEDmFSgHZYotEEgiECQriUYeHtNY0wjQAKgRZ6/Rn0gXI3gaJhoqGi4aMNT2kC86Rho4BRo9AiM8qflpjAj8J34yKA4NJUENF5o0zDN0rhAwCJvMA9JUKM/KbyF1QrkijnQskjHqh7qi/iAtBEgyGgtIPYQcAiUihGaLTgwZQaYkRzpGjjDNcB1tAp9tkRZKcsU9MitLBvlPZwyZp4NkgEBHTCeLuRlSRcdOXpGxZKDjz/QmkgUuYASZ0MAGopd8P6vj+ZkuTybSS5Ubyi05QmbQdkNqIE6QIdoJyJVMvGpLkAPJQnKvY8kE/9Uu6RpyRrvGHpmBaNEmIS/SnlE/mJlFhkUMqTMF5TtIViYkI7/SCJKVX/VZrDTSMqQ2BnQqNAxqHNTJEI+Oh06IjgDVPB0joz86R2mkIGJ0lIwC0QrQkRHQQtEYch7ndOIxKkW9DpEiDTo6Gk/S5zmMYOmMeTb5USNGnnSOPf/JW6F0QsUqM0tPqLOUPEmmIBSEkmQtqbmQiYbOFCKErCAzyA8yRodH54p57e233/YOEU0VcoazMXGQLTpF7kdWGTBghmLwkCRUIlXIU0mBvFdHR0makmH24MK7gTaL8vJf+CHfhaLJSmJCuVMDmCA/4APxQosESaZ+0aarTZLMICvIBLKRbJc45hzXkS1IG4H7GFiiEUWDxiBP8qL2hzwqKH/6rzqjfrlWHbKTpa99ZCtNBIJkpQlULkfjxU8NahDUOKjxUOOejM81GhWRHBo8OkkC5AjzIw2TCJN8JRRHe+6jk6NhIk2eRVAeksdcVzzlReeUx1yuk3zJe7IOVU/aq75S65HrqkPVOeeIh3xIvpKaMDpWiBaaCDpFNAuSNzpfZCxJoEhL+UjmMTVP/Fc89vxX3jJdR6RL+nomgxdMmGh00fQlcaquPGS6TFVJL4mHMEnWBddLC8SnPRIBUxuDLBBogxi8qV3iP0GyoviSmVTsk89N1pnyx7mSZKwqeMS9+YlAkKz8rNecKxWNmjYdq6HT+djnLgJVrVM6SLQQmBfRUNHZST6Udrro6D7ip96b+j/dNCsTjzJhkodo4bumgQwdeE3mozJ5z9Q9Kqf2mUq3utMhv7mW5+rGJNIvGYEgWSXjEmcDgUAgixBAKyGShXkxSbKyKJsVygqdNCYvfM0wcaFlgWgVEsmqEGARORDIQQSCZOVgpUWWA4FCQyBJslI1WbmMBc7dzKBjNhv+jzJBhZYkl2s18h4InEEgSNYZLOIoEAgEshSBfCRZECl8gnDwZ3FSnPbxMZKWLkurIrIVCAQCFUAgSFYFwIqogUAgUDsI5CPJAklMg6znhEM//mY49Ne2ubAkLRrnyguUR3GSUpJMT9eTe8Ut7Zyuxz4QyEUEgmTlYq1FngOBAkMgn0kWyxJAsFj3iRmHmAxrcxPZUR74nzqrTmZNnS9vrzRT40EoFbjGMXttuk//Yx8I5BoCQbJyrcYiv4FAASKQzySL5QRY5wsHeNaX439tbqnEhv+QH4gVQUsnyEk/SZyShEnnOac0dY4950lDQekrPhjovtrEI54dCFQFgSBZVUEv7g0EAoEaQSAfSZbIC+uCsTivVrZnAdXa3ERstIcQQYAgQ9oniZGIFXsRpZL2Ilap8SFt+KYpfRExMFAeahOPeHYgUBUEgmRVBb24NxAIBGoEgXwkWQAHGYFk4YvFEhWsmcWyDhCRbNhEBCFCLA6rRTxZ5JNvPvLVBlZJZ7FYltaALOr7knwmi+8FYgLF74xZocygJD73MbOScmuBUHDgOZSd58YWCOQDAkGy8qEWowyBQJ4jkK8kC+2NiAufimE5BxYopby1tYlYQXrIB4QIgsTnsFhtH9Mm63rxGa3Fixe7Pxnf/ONbkeSf7wLiX8YHltnzHy0d36jku4OscE8Z+UYgn7vh80KkS/osyoomjxXwwQUSGoSrtiQhnpsJBIJkZQLFSCMQCASqFYF8JFkiM/JxQrMD8YCUQLggGDKxsU+XbBAveZ/Mb9rrutJUXEx24IymCQ0US0rgI8bnjObMmeMEig8pQ57YQ5o4nyRNyW+XopkjkAbnIWWQKz7azX36MLjSmzFjhp9nEgDkCzLHNwUheGi8IH0iXZRB5UDzpbKVtK9WwYzEA4FyEAiSVQ5AcTkQCARqH4F8JVmQAvk3YY6D2EycONHJCZocCATEIl0TGsRD9yjd5J60FGQChNxh4uPj75AbSA6EB60US0tMnjzZtVRorSBNfIhbH3nHTIjmCdMh2ic+FUQ59E1A9pAjznNdJsbjx487eYLMocXio808G/LF8wiQTQLaL0gapIv4aNYwMZJ/yqbysFdZdU4ErPYlOHJQqAgEySrUmo9yBwI5hEC+kixIgIgCe7Q2s2fPdmKBRonrChCo8jaRLNKChCTJjo4hPBAjCAvkBu0ShApyB6nB9Aep2bRpk+3YscO1apApCBL3QppIn3xVZVPZyRekCW0Vz8GHa9euXU6qli1b5vmB9KE9w+xI/tCO7dmzxyBryIbypDKSPwJki+ekg11VyhL3BgKlIRAkqzRk4nwgEAhkDQL5TLKkdWGPQzn+ThAeNDwQJUgCGq90iIJIltIU2YKEQGJwTEdjhQkQwiJihQlv3bp1tnPnTo+DtgjNE1opESqZ4khbBCadPJUmRKSX1Ebxn7Q5x3Opc4gdzvI40aPJIt8QQfl6kW+IIsSM9cbQ/im/wiBIVmk1EOdrAoEgWTWBcjwjEAgEqoRAvpMsiAWkAE0MpjiIBIQC4lAVkkW6YAcJgUTJHIcZUAQFjRaaLeJBbiAq5ANiJhIkUkVeFMhvVUkWaSTT5pjnSjPFf/LAf7RomDaZqQhRxHyJhouy4N+1cuVKJ2OQQ+GptCFwsQUCtYFAkKzaQD2eGQgEAhVCIF9JFp0/RABSwx4CgxYJAgF5gHDpfEmEhnOkocD9xCdggmNZBciVtFaQLExtOJRDrJKaKggP5IRAfpQnziuIYGnPc8mD8qFj/U+9rnwm96St9JL5pwxc0z4ZD9KFlgvyiFkTPzL5cWHqhDhCyoSF0ld+KiR8ETkQqAICQbKqAF7cGggEAjWDQD6SLJAT2YAEiABAfHAuxwcJR3PIEgQD4pLc+C8SIjIBQUIThcZn27Zt7ts1duxYJ1mY1SBdYEk8nsn9Ii/sOa802St/HBNEVnSsPCuerivt5H+OiZdMV2SMfTIovdT0+a+N+KRJeSGMmFdxkudj22gCKS8+XhAyysUe4qiyK53YBwLViUCQrOpEN9IOBAKBjCCQrySrJHAgIfhO4QCPkzdEgXOQiuQG4YAwiDiwh5BhTkObg98SPleY0Zg9CHlLpsH9pJskPSJCXCOI+Oh/6l7psU+9lvpfeed8dWwQTbCCmKIFZGkINFzSalF+BbCqrnxUR9kizdxFIEhW7tZd5DwQKBgEColk0fnjV4RZD20WK8BDpkRoVOn8h1igyUFLg9M8swHxT2LleAgG9+LXxf21vVGH337zbbFs/PDdd3b000+Lna/MCQgjOOAoD9HEhIipFK0WMxEhWfI5g1DGFghUNwJBsqob4Ug/EAgEqoxAIZEsyBOkiCUKMHtBFiAOZZEszGXr1693coUGi1XUmZUHbhCwpCYMArdh/XpbsXy5zZo506ZNmWrTp06zmdOnF30iZ8/u3b76+v6PP7Z9e/e6tmzTxo22aOFCm/P++zZtyhRbsnix56u8yj154oT1e+89e+vNntayxfM2euQoLx8m0S6dX7XWLV9wH7Hy0knnOsQJLRVkCt821h2DZGFCZKFXmQ+TeKSTbsQJBCqLQJCsyiIX9wUCgUCNIVBIJAtNFhoqiBMO8GimMAHKvAXZIvAfUsHSDKwnNXDgQNd84dQucgXZSCVZaHJGjRxh9951t73WubPP0INsNXnySZs5fYY7jE+dPNnuubOhvdmjh5saISWcu6buldb82WY2Yfx4a9emjT31xBO2csWKUuXgbz/9ZN1ef90mT5xoW7dssdGjRtnQQYOc9KFZatu6tV104R/dgZ1E/vrDD/bdt8W1XckHqPzJczoGDwgqAQwxn7J6PmbX4cOHu3YvaX5VWtorndgHAplCIEhWppCMdAKBQKDaEChEksXsODQx+Bcxgw5yJGLFnkAcZg9CsNB6QSjQ5EA2IBkiHPyHSGhbMG++XXbxJTZs6FCPzz0jhw+3ieMneLxVK1fab885197q2cvT4r79+z62Opdcas83b+FEaPeuXfbIgw/avQ3vsmNHjyrps/Z8Sgcy9+mRI0Xnv//uu6Jjnn913bp2YP9+Pzd/7lwnYkURSjhILUsyivAhjo4pG1o9Fl0dMmSIEy0IbDKO4rKPLRDIJAJBsjKJZqQVCAQC1YJAoZEsyBEaKJYo4MPLrGmF5kfESVoaFugcOnSom8T4uLIIljQzyX2yYlYuW2FXXHa5jRs7tug05AdTIvfs3LHj9PUxY4quf/H553bn7X+21i+0KjqHZuqiP1zoM/uKTv58QDrjx42z++6+x/bt3eek59TJkz7DUXEHDhjgJAtNHdqyVi1bWqvnWzoB4n5tHItcSUvFnjJDjLiejJ96H7igwcJPDaKF5g8NIGkmMQ2SJeRinykEgmRlCslIJxAIBKoNgUIjWRAOOn99NBoHbtbMgixALjADsjo7vkbMIISk6BrEobxt+bJlVveyOjZq+Aj7+08/OeGYPWu2mwa5Fwd6SNj4BAn7y6lT1vDPd1ibVq2Lku/erZs1vONON08Wnfz5YOqUKXbv3XfbHy/4gxOt1i1b2pONG9vtt97mBJJokKwb611n69ett26vd7XzzjnHTZLPPfusLVu67DTh27nT+vfrb40fedQmjJ/gGr3p06bZE489bi+0eN7GjRnr6Y8aMTI1C/4f4iTSClHFdDho0CD3YcOcyDWwI5RE1EpMNE4GAmkiECQrTaAiWiAQCNQeAoVCsqSxgWRBliABOIhDsvjcDjhAvljvCjPiqFGj3GkcUyIB7RfXy9sgWddfW8/atmpto0eONMhS+3Yv2t49e/xWkaxxCU2WSBZ+VGiBRo8abe3btTMc4kva0HwNGTTItV/4baF1QrN18R//ZN98/Y3fAsm65sorfZkFyvTYI4/YM02etkMHD3mcKZMnG4Rr1cpVrl2DoC2cP98+/+wze63zq06u+rzV2/q9+66tWb26pGy4pkskC4xYHgM8R48e7c+FXEmbFSSrRAjjZBUQCJJVBfDi1kAgEKgZBAqNZNHpEyAAkBMW2YRUQRDAAsIFwWIWIUSMePhncQ1CUR5ZgGRde+VV7pTOTMPJkyZZ1y5dimb5lUayMP3h7N7plVfs3P/9lXXu2KlMAZg5Y4Y9eH+jIp+sZUuX2pV1rjiLZOGTRRnZWrZo4c7wSrRpkyZ29513+oxEtFiPP/Ko+5FR5vf69rUmTzx51qeHdF9yD1mFfGr5Bu5FC4jZcN68eUX3E6883JLpxnEgkA4CQbLSQSniBAKBQK0iUCgkC5Axb8lcCNGi7Di3s/YVyzRgNmRZAsxeLFMgLQzkQZ+SKa+yIFmQnVEjRzqxQMPDzEJmJrJBQkoyF951x53Wrk1b/6RNh/bt7eIL/2jz584r9XGYDBvde1+RYztLQJREsiCPlButVZtWp32+yNOdt99uA/r1cxL5/XentXXSSvXu1cuefvKpcjV3MhdK08f9rB2Gfxb+bKypBd7EC5JValXGhUoiECSrksDFbYFAIFBzCBQSyaKjR6tCEOGChPAxZMgV2hfMXZgR0WApjrRf/C9vW71qlZOosQlzIM8VyRDJSpoLv/ryS7ujwe1FPllHPz3qpsBbbrrZncpLeuaM6dNdk3Xo4EG/zNpaV11R1374/gf/P3jQIHd8Z/Yhz27erJm90KJFUVKPPfyIPft00yIfLi6gkYIUvdOnj5sWOS5rAw+wJJ4CWIEpJkM+xA05Fd5lpRXXAoGKIhAkq6KIRfxAIBCocQQKiWQBrgiPSA/lX7FihZu43nvvPZs+fbovSwAxKCl+WRWEJmfSxEn237/4pb3c/iXX6ug53IfGZ+K4cfa///Xf9mLbtnbi+Aknc5s3bbLf/O+v7Lb69V2DRlyWeqhz6aWufcKnKrlBXNyx/brrbcvmLa5xYq2tC357vn1y4BPX0PV84w374wUX2IdbP/DrPbp1s/o33mjr16077fc1cpRde9XV9l7fd23bhx/6mlxrVq12UscaXqzlBVlCi1felsSUY8gaS0xgNiTvELB0CGp5z4nrgUASgSBZSTTiOBAIBLISgUIjWamVgOYF7RKz4l5//XVf8wkSUxlSwIzFt3v3cVNcs6bP2Lq1a12Lo2ceOXLEevfsZfc0bGgtm7ewFcuW2/Fjx2zQgAE+M/DBRo1s6ZIlim4L5s+3B+6739MkT9owPeKUjh/VgvkLnDRNHD/eHnvoYV85nk/+DOjX355s/IQtWrDQvvziC1+w9NGHH/F7Nm7YYCwrAZm69aab7eFGD9q7ffv6KvO7du50Py3yP2/OXHdg13PT3UOqwLRfv36uFUzHly3dtCNeICAEgmQJidgHAoFA1iJQ6CSLijlx4oSNGTPGunTpYqtWrSoyFVa10iBqSU1WZdKDBLI4KT5iVd3QpFHfye3UyVNe/uS5qh5DstCCsQwGK+vjHF9VHKqap7g//xAIkpV/dRolCgTyDoEgWebEA7+s7t27++xC/LGqQgq4F3MjoSrp5KKwUV5IFsQV/zZwTcfkmItljTzXLgJBsmoX/3h6IBAIpIFAkCxz52yc3t99913buHGja7IgC5UlSNxXqCQLkaPsfF4H/7ZJkyY5vpXFMg0RjigFikCQrAKt+Ch2IJBLCBQ6yaLzx98JR21Mhrt27UprPazy6hhTYWX8uspLN9uvi2CyAjzrj/HdR/ANkpXtNZd7+QuSlXt1FjkOBAoOgUInWVQ4s+HWrl3r5q1MkayCE6SfCwyZwlzIrMIJEyb4Yq+YC4NkFapEVF+5g2RVH7aRciAQCGQIgSBZ5pqrbdu2OcnatGmTO2oXohYqQyLlJGv//v2+hIMmEmQq7UgnEBACCDIVtAAAIABJREFUQbKEROwDgUAgaxEodJIl8xYfgsa8xWy4r776qiBNfZkSUpZs2LJli7Hu2J49e5x0hSYrU+hGOkIgSJaQiH0gEAhkLQJBsk47uPM5mIULF/rK7xAuTF4Qg+QyDEEUiosxmCQDeH355ZduJhw7dqwvPZHEsHgKcSYQqBwCQbIqh1vcFQgEAjWIQJCs00SKNaT4nM748eN9GQdwgWjpkzochwnxbMGEXAkj7cGRj2APHz7c/dzwdwO3wO5s7OJf1REIklV1DCOFQCAQqGYEgmSdJlmQhGPHjtnMmTPdYfvjjz/2pRxYSBOiAHkgTmxnEIA4YRpkXTECWGlWIVosVrjnupazOHNnHAUCVUcgSFbVMYwUAoFAoJoRKHSSBVGAPBGkzWKl8vnz5/taTxAHzrOHLMR2BgGwQ9MHNgRkad26de7wvnr1av/PdbANTdYZ3OIoMwgEycoMjpFKIBAIVCMCQbJOEwU0LhACvj+4aNGiIqKAEzxaGmlkqrEqci5pkSzwYS0svlc4atQoX+UdLRbES9iFP1vOVW/WZzhIVtZXUWQwEAgECp1kya8IEqUAQZg2bZr7FW3dutUJhDQyQRbOvDNo9sAMcyqzCFkXa/To0U62OAdmkKzQZJ3BLI4yh0CQrMxhGSkFAoFANSFQ6CQLbQxkQSZDjiEHrPPEJ2EwHeIQD05cg2QRuI+g/9VUPVmVbLLcwoyFRvfu3esEa9iwYY6VCJawZA9WsQUCmUQgSFYm0Yy0AoFAoFoQKHSSJZKUuhfRGjdunEEe+KbhF1984QQMQsZ1gohXtVROFiVKOdFaqdwcIzuskD9x4kQbMWKEbd682T8GnUpAwTa2QCDTCATJyjSikV4gEAhkHIFCJ1klAQopgFTgU4SWBo3WkCFD/PuGfC4GR3iZFiEd+U4iKB/lpdyY/8AF37UNGzb49x755iNmVWQpTIMlSVScqw4EgmRVB6qRZiAQCGQUgSBZxeGEVECeIBSYvj755BNf2oG1n95//30nXiy4yXWZDIunkl9nIE+UF3k5dOiQLV++3J3cIaAfffSRr5LPdWn38qv0UZpsRCBIVjbWSuQpEAgEzkIgSNZZcPgfiJM0N2htIFqsocV3+NDa4OC9Zs0aXwcK7U6+a7IABRxOnDjhGismBTCLkBXyIaD4ZUGwpOlCCxhbIFDdCATJqm6EI/1AIBCoMgJBsopDmNRkQbYgEJAMlnNAazNjxgwnGbNmzXJH71OnTjkpK49slXe9eE4ye0bP17681IkHYaLcu3fv9rXDRDJZD+vkyZOOTRKjQjCflodbXK8ZBIJk1QzO8ZRAIBCoAgJBskoGD20WBIOAqQwiIZMZflkstjllyhT/DA8Ll0K+WO0crQ5Eg/vZICpKS/5KSpfziqdclHRO19Ld65lKS3uenxrIi65zH4E4aKXwu9q3b5+bBtHesYo72itWw1c5U9MjrdgCgZpAIEhWTaAczwgEAoEqIRAkqzh8Ihu6ItKSJFxod1jmYeXKlb6m1uTJk13Ts379el8zCi0PZkbIGaSLoGOIibQ/7EVySJ94XOeZld1IT0ROe9KVRo5nQqJk3lP+RKwoFzMFFy9ebFOnTvXZgwsWLPBvEn722WeejvIZpKqytRT3VRWBIFlVRTDuDwQCgWpHIEhWehBDekSyIEEiJiJb+GjNnj3bZyLiDD537lz/QDJmNjRcxANrzI7cC9HhmL2IkNLNBMkijWS6PAeSxZ4AoSI/5AtfK7RTzBZEKwdhRHOF79XSpUt9mQaRK9JNhiBZ6clPxMo8AkGyMo9ppBgIBAIZRiBIVnqASpuVJBgcQ5ggL5AVZt1t2bLF5s2b52ZEnMOThGvHjh3uLI8ZTqQLskMaIkTsq0pclFftIVVo1TDxUd8QpqNHjzp5wreK/EKsyC8+V/iaoZFDo0VekxovykwehUNV85oe+hErECiOQJCs4pjEmUAgEMgyBIJkpVch0mRJg6U9BCZ5DJFBM8RnZiAqmNkwuUG2pk+f7oRmxYoVfg1CxmKeBw8e9HtY7JRvAEKISFOEBiLD80vbRKYgP9wH6SMN0oIkQf7QqH344Ye+qCqzJNFYkR80VuRtzpw5PmMSIggBQy4om0yM0ropX9oHySqtVuJ8dSMQJKu6EY70A4FAoEIIqDOmY1Rgvae1a9c6GeCbfXTUxFOo0APyPHJSg8Nx8j+kQ8RDWh6Iyeeff26HDx+27du3u/8WWiPW2mKGIuY4TIwQHMjYkiVLnOjgD4UjPR9cZjFUNEoQMRzuWUoC8yN7/kOguI6DOkQKksTCoBA8/MVIl+ehnYJUEXgm5sxly5Z5XJZhYIakyJ3KUto+Sf7yvMqjeFmMQJCsLK6cyFogUIgIiGQlyQEkgJlyaDYgAyIP7Ikf2xkEhJ80S8n/Iq3ap2IHnmiWIEiQIsjQpk2bnOBCriBaEC+0XpAvESL2yf8cKyhO8jpp6Dx7yBUzAiFc+Fxt27bN/a8gaZgsIVLJrawyqWwqf/K+OA4EahqBIFk1jXg8LxAIBMpEgA5UnSidPh0s/jkyH0GypKUIklUmlJW+CEEBd5n00CSiRUIrBfnCfIhZD1MiJAyfKeqHFdYhYxAmtFPs+c95CBTaSL6vyH3cTzo4s6OdZKYjpkhMmTyX55OP2AKBXEYgSFYu117kPRDIQwREsOhgRbLw2aGTliaLDljmLuLHlhkEktgLf+pA9QDmqT5QOJzLYR2tEwFSRtB/9vLjIj4h1X+KZ5C+nqu8RP1mpm4jldpBIEhW7eAeTw0EAoEyEKCjpcOVNgUtijRZ+PfIkVudcnTEZYBZgUvgKFIlsgPGBGEugks84nCP8GfPudSQGkf/iad61j71+XpGBYoRUQOBrEEgSFbWVEVkJBAIBIQAHS2dupyyMVFhdsI5GkdrNFtygI5OWKhVfS+SBOERriI9IldcUxDRUlz2BN2j6yJVqXuuK12O9Vylw3/OxxYI5CoCQbJyteYi34FAHiNA5wrJwj+HmWs4XA8dOtQGDRrkTtfMbMNPizjRCWdWEES0UgmRiJTOiwjpv3Kh/+nuqT/FTT4jmb7Sjn0gkGsIBMnKtRqL/AYCBYAAJAvnZ3x3cI7u06ePPfLII9aoUSN76aWXXKvFjEO0IOqYCwCWKGIgEAjkGAJBsnKswiK7gUC+I4BWA/KEqZDAjLa+ffvapZdeaueee641b97cZ7SFuTDfJSHKFwjkPgJBsnK/DqMEgUDeISBNFtospvWzxtK1115r5513nnXv3t1YmDKm+eddtUeBAoG8QyBIVt5VaRQoEMgPBOQIjcmQBSobN25s9evX90+sYCrEHwsyFlsgEAgEAtmKQJCsbK2ZSuYLU4t8VDhm0zlG/phY+N4X69awjxAYZJsMaG0lLYDJN/ZYuLJHjx72wgsv+KdWWAmcZR1wftd6TNlWjshPvFuSAcl06nphDBTUTtNWy9mfPYMM9rHlNgJBsnK7/s7KPS8kviyaEs0eUkVnxIdg+SwJs7QwvUycODFCYJDVMsBHgceOHeuBmYWdO3e2tm3b2jvvvGPjxo2z8ePHeyBeyHO8z9kqA8gnsqqPXPNJIr7LuGjRImOWLN97ZKAA4VL7zbH+B9E6q5vLuT9BsnKuykrPMCMftFUERkz4raxZs8anvI8cOdJGjRrlndOUKVOKfVcs+R2xOD79gdrAoWo46Nt1ld0n8Udm1YnSSREmT57sQd/Rq+xzSrov+ew4rpocFDJ+yBbyifxKbjlGdseMGWMjRozwQQQfwuZj22htGRjThjPpg32QrNL7vFy4EiQrF2opzTxCsngxWaiRERIvMhoARv2LFy/2j70ePXrUR03E00hJo6fYn9YCBg7ZjQNyi/zq8yx0RCHL2V1nhfpOIZdJwoTMYkLEusA3G9evX+8f3IZsjR492r/3yMK7fIJI99Gux5a7CATJyt26K5ZznID5yCrfeOOFRT3NB1khVrywvKwE4hH0P/ancQkcMouDfAHZZyJI4JNpMconJM9V5VhphSxkVhYKGU+1t8m9BgXs8SvkKwZ8TJt2G83f9u3bnYwxmAC72HIXgSBZuVt3RR0LRaBjYar70qVL3SyI+pmREiMndUR6yRlVclyVzijuzQxxyHccc/H1yvc6ifLV7Lsrgqn2l/86loaPQTAWiC1bttikSZPcCoH5EK2X2m8NAKi/2HIHgSBZuVNXZ+WUF04vL3t8sNBaDR8+3FfDxrbPi8vLnHw5dU/yXDS6NdvoFhLeZwltjvwppPqJslb/u19aW8t5BZEt/LF2797t/luQrX379nk7roFxsv3Okdep4LMZJCtHRYCXUy8c2qoPPvjAcG5Hg4XJMPlSllbEaGCrv4EtZIxLk7vSzjMoWL9unW1Yv8E+OfCJ+1kpLvK+c/t2W7d2je3ds8dOnTzp148cPmxffP65m1wO7N/v2gDu+fKLL9yJmFlbxOEdqchWyPUWZc9su1CW3IE1mzBnUMz3OvmUFL60s2bNMpYrwWwoIka7z/uge8tKP67VPgJBsmq/DiqVA14yXjps+sePH3f/K17Kw4cP+zmpo4kXWyCQ7Qhs3rTJBg8cZKtWrrR33n7bmjzxlJMp8r1v714bPmyYzZg2zYYPHWptW7W21atW2d9+/NEWLlhgrV9oZR07dLDNmzYai5SyfXrkiL3+2mvWotlzNnvmzAqTrGzHK/KXfwhAmmi3GWzg+L5x40b/IDoWCv4nB85BsnKn/oNk5U5dnZVTkSzUy5s2bbJ+/fr5S8mInZeR0Y5MhWfdGH8CgSxDgIkZTZ9qYt26dvWcoZG67+57bNnSpf6/e9du9mK7tnbs6FHXTr3du4/NnD7dr+3audNuvuFGe7Jx47OIFIOP9m3b2W9+/WtbumRJlpU4shMIFEdAbTqyS8AiwbIPrBXHQJpzMXgujlu2nwmSle01VEr+GPVApDCHsNAdL2LSTMgLK7VyKUnE6UAgKxDYvWuX3VjvOuvzVu+i/OzetdtOnjjh/+9peJe90qFD0TWZADnxl1On7Llnn7Web7xZdF0Hw4cOsyvrXGEbN2zUqdgHAlmLAG26TIKQKUyEzDIcPHiwD6CDZGVt1ZWZsSBZZcKTvRd5ISFSR44csT59+ti6dev8peRcasjeUkTOAgGzzz/7zB66v5H96Q8X2ry5c+0fKbOnnn26qV1w/u9s3NixxeA6cfy4NW/WzHq92bPYtRHDhttVV9S19evWF7sWJwKBbENAA2cIFgNkAuZvtFksx4Ovlq4RN7bcQCBIVm7UU7Fc8pLxwmEqfPfdd90XC3KljesKOhf7QCAbEUBu165Za/Wuusr+6//+0rq9/rrPllVeDx08aE898YRd8NvzrUvnznb40CFdMkhWuzZt7NGHHrZXXu5wVmjyxJNuSgySVQRXHGQ5Amqz2bOhveJzaP379/f1DiFetPu6nuXFieyZWZCsHBYD1MkzZsxwcyFrZOkFzeEiRdYLGIEdO7bbk483tl/913/bE40b+6xAwcGCjW1btbL//sUv7M4Gt9umjZv8EibFli1a2EsvtrcPtn5wVnijew+rd/U1ockSiLHPOQRo03fs2OEDaUyHQbJyrgqDZOVelZ3OMS8fM06GDRvmyzZwjEYgRji5WqOFm++kzH791Vc2euRI+/15vzVIEgMJbcj45EmT7L9/8UvDhMjG50lKMxeOHD7CfbJCkyUEY5+LCPCZHSY28QketFihycqtWgxNVm7VV1FuIVSsBow/1vLly70zYpST7LCKIsdBIJDFCDCLkGUWtP39H3+3P996mz3VuLGvjTV3zhz75utvdNm6d+1qt9x0s//HZwWS1fONN4qu6wDHd3yyNv6s9dL52AcCuYQAy/IMGDDAVq1a5QQL5/ika0gulaUQ8xokK0drHTIFyerVq5etWLEiSFaO1mNk29yhHaLEVwrQXLGwbr2rr3bixEKMTzz2uLGOFusHMYO262tdrMNLL3lHw8KkzD5s80Irdwym8yGwtAm+XRf+/gJbumSpm1kC60Ag2xGgXU8dKEOy8MmCZGn2YZCsbK/JM/kLknUGi5w64kXEfMIIZ/78+X4cmqycqsLI7M8IsMTCw40esB5du9q0qVOtTavW1r5dO585i5y/0LyFk6iZM2YazuytW77g6wbhp4VJ8Z47G9qfb7vNyRrnGHxMmTzZ7r6zod1+6232aqfOPjEkAA8EshkBZJ02nKDBAnuZC5lBzkBD17O5LJG3MwgEyTqDRU4d8UIy6md9LKb34vgeJCunqjAy+zMCyDKL6DKLcMf27Xbq5Ck3iwggZlgxixBtFoRMn8jRO8B7wDk6IM4RuOf7706f43qM/IVm7LMRAWQWGUVTJb8r2nPkGMd3fLLQ8PJfBIx7Yst+BIJkZX8dlZhDXjA6Ffyx3nvvvaLpvSVGjpOBQCAQCAQCWY0AbToECyIlvyvaeD6r07dvXztw4ICfj8F0VldjscwFySoGSW6cYDTDy/jJJ59Y7969bevWrUUj+dwoQeQyEAgEAoFAQAhAsqS9kkaLrxvwkWhmkWOtEAkLLZZQy/59kKzsr6MSc6iXER+U0aNH25QpU/wTOyVGjpOBQCAQCAQCWY2ASJaIFETr448/toEDB7rFQiZxtFth/s7qqjwrc0GyzoIjd/7oReRTC2vWrHGb/Z49e/zl42XlJYSIEWILBLIdAWS2tKC8S65T4+k6e/mrJM/FcSCQjQhIVrWnrYZYEbBSoMViUtOQIUN8Egjn8C/kOvfElhsIBMnKjXoqlsvkC8n3C8eMGWOzZ8/2b13xMjLa4YVkT6cUWyCQzQikEqeK/Fe5kvfoXOwDgWxEAFkVmWLPoFn/abPRWuHwntRiKY5IWTaWK/JUHIEgWcUxyYkzSZLFmkAbN260oUOH+neuWKARgiWSFaOenKjSyGQgEAgUCAK0yZCqZNDgmPacgTMfhmbwzDEEi3to94Nk5ZaQBMnKrfoqyi0vmkyGkCkWaZw7d64NHz7cPxqNkyTneXF5MWMLBAKBQCAQyA4E1H5LOyVtFgTr0KFDtnDhQm/LmdCEVkvkSmRLWtvsKE3koiwEgmSVhU4WX9NLCoki8CKyMjAfjGb0w8J1rJbNS0vc2AKBQCAQCASyAwG13yJZtOG01Ti6v//++zZq1Cj3tf3qq698MC1yBdkiQLJiyw0EgmTlRj0VyyUvqWz42qO5OnjwoPtm8ZLiNIkzPA6UxAmyVQzGOBEIBAKBQI0jQFsMscL/ii93HD161LZs2WLTp0/3QfLq1at9yQbiQKogWRArHXN/EK0ar7ZKPTBIVqVgq/2beMF48TSy0cvHS4kGa+nSpTZu3Di367NgKU6UaLpOnTrlnx1h1IT2K0JgkI0ygHwyc5YOKBk4lxqyMf+Rp3ivJAOSZfYE5Bl3Dtrpffv22YYNG1x7xdc7IFms7C4NFu06bb1IVfK49nuhyEE6CATJSgelLI2jF0/Z0wvIi4n2CmKFn9b48eNt4sSJbkpEuwUBg3jxYekIgUE2ygDyuWzZMluyZInL6+LFi23RokV+zHmuK07IcshwNsqw8iRZlbzS/iLL8+bNK3Ju59NoyDWWCLRbtO0aQNOux5a7CATJyt26K5ZzXkZeTF5QAi8ro6Vt27Z5h4Stn5ESC5dOnjzZ9xxHCAyySQaQTQIDAwYIhMGDB1vPnj19SjvnlV/FDXkOGZZMZNs+KaMcT5o0yckVK7kz6MU0uHfvXl9+J2kWVFseJKtYV5dTJ4Jk5VR1lZ1ZkSyNgNjji4WvFurp48eP+8wVvoHFiClCYJCtMoCMYkqh89m+fbtNmzbNunfv7sRr586d/jkpPimlkK3liHzFO4aMIs+SVR3jvnHixAl335DvldpuDZTZB8kqu9/L9qtBsrK9hiqQP15I+WmxV9CLy39e5nCCrwCoEbVWEECWNaGD5UmYyNG0aVMbMWKEL1cimWYfnVCtVFE8NE0EkGXJqdpoyTbtMe2y4hCP4+SAOeQ7TaCzNFqQrCytmMpkK/li8hLr5eWl1Uss4hUvbmUQjntqCgHJMp0QGq0OHTpY3bp17eWXX3btluRYnVdN5SueEwhUFAFkmfaXTcdJ+UWGRa7UVise/zmOLXcRCJKVu3VXYs71cuqlTb6gHCuUeHOcDASyBAE6FwYKzMTCgbhRo0b2y1/+0u699153EGaGobQASRnPkuxHNgKBMhFAZlMJldrmkvZlJhYXsxqBIFlZXT2RuUCgMBFgkMDEDXxWcHRv2LChnXvuuVa/fn1jJhbn8TVEIxAkqzBlJEodCOQCAkGycqGWIo+BQIEhAMlinSE+McKMLMyFjRs3thdeeMH/41DOdbRdYVIpMOGI4gYCOYRAkKwcqqzIaiBQKAhAstBU4fTO4oxz5szx5Rv4aC7fc2OFbBZ2DJJVKBIR5QwEchOBIFm5WW+R60AgrxGQT5aWH4FosSL2mjVrfKFdfLKkyQpzYV6LQhQuEMhpBIJk5XT1ReYDgfxEAOIkx2B8s1gbC1+sjRs3Fjm844+FxitIVn7KQJQqEMgHBIJk5UMtRhkCgTxDAOKkgElw165d7gC/efPms6bDB8HKs4qP4gQCeYZAkKw8q9AoTiCQDwiIYLEvjWTlQzmjDIFAIJDfCATJyu/6jdIFAjmJQJCsnKy2yHQgEAikIBAkKwWQ+BsIBAK1j0CQrNqvg8hBIBAIVB2BIFlVxzBSCAQCgQwjECQrw4BGcoFAIFArCATJqhXY46GBQCBQFgJBsspCJ64FAoFAriAQJCtXairyGQgUEAJBsgqosqOogUAeIxAkK48rN4oWCOQqAkGycrXmIt+BQCCQRCBIVhKNOA4EAoGsQCBIVlZUQ2QiEAgEqohAkKwqAhi3BwKBQOYRCJKVeUwjxUAgEKh5BIJk1Tzm8cRAIBAoB4EgWeUAFJcDgUAgJxAIkpUT1RSZDAQKC4EgWYVV31HaQCBfEQiSla81G+UKBHIYgSBZOVx5kfVAIBAoQiBIVhEUcRAIBALZgkCQrGypichHIBAIVAWBIFlVQS/uDQQCgWpBIEhWtcAaiQYCgUANIxAkqxoAVwdB0hwX+paKR2CSOxKhukvuqzv3POsf//hHUfjxxx9t586dNmHCBNu8ebOfr+48lJS+MCjpWpwLBAKBQKAkBIJklYRKFc7REP/973+3n376yTuDQm+YUztMOs9Cx6QK4lWjt6rukOck6eF8dW88829/+5uH77//3rZv316rJEtYSH61rwksqhvrSD8QCASqD4EgWRnGlkaXDkJBnRPnCzEIB/YQT/ZgElt2I4CsUk/J+ksSi+qWZQjWX//6Vw/fffedk6yJEye6Jos8sVV3HlLTFxbIcVKWiRdbIBAIBAIlIRAkqyRUqnBOHVNyX8iNMDgQkp0SnVUhY1IF8aqxW6kfkQrVYU3WG/ICyfrhhx8MkoW5cPLkybZly5ZaI+l6pyGA5E+4hCzXmFjGgwKBnEMgSFYGqyy1Y0p2FPiVFGKgo8TcQ6DDBAM669iyG4EkMUaOIRbUH/VZ3XIscvXtt9/a119/bV988YWTq9GjR9u6detclshPdecjmb7yhBxD+tiHLGe3DEfuAoFsQCBIVgZrAZJFw/vVV1/Z4cOH7aOPPvJOYfny5VaIYdmyZUZYunSprVy50rHYtm2bHTlyxDupsjQAZV3LYJVFUqUgAMmCWHz22Wd24MAB++CDD2zt2rW2YsWKapdlyQxys2TJEluwYIGNGDHCOnfubEOGDHF5qsn3KSnH5GnVqlW2fv16N2EeO3bMcSpLXsu6Vgr8cToQCATyBIEgWZWsSBpOmQvYo52BXOGgO3PmTBs1apR3DHQOI0eO9P+cK6RAuRWGDx9uw4YNc0zGjh1rc+fOtR07djhmaEqEJzhKc6LzlayiuC1NBIS95Bgt0alTp2zTpk02bdo0Q4OkeqwNWeaZAwYMsN69e1v//v1r/B1SmXmXCUlZZsbj4sWLbd++ffbNN994O6B2IWQ5TQGMaIFAHiMQJKuSlUtDCgkgYDpgtD9v3jwbPHiwk4nZs2e75gYi8cknn9jRo0cLMqC1OnTokH388cdOQNEAvP/++47RoEGDnGzt37/fTTBoAdGeyDTDPkyLlRTQNG8TwRKxZaCA/xMDhaFDh9qYMWNs/vz5Trh2797tdVkbsozGSKE2ns8zkeWDBw/a3r177cMPP3SN1vTp0127BvFC44UGW6ZEybHMrLQZsQUCgUBhIRAkq5L1TefEiJ/RK9qrcePGeWO7aNEi+/TTT50o0KgSr9C35Ihevj0QL7BCSzB+/Hj3ucH3Rh1S+G/VnNRQPxBcTIOQYDRXhNWrV9vx48ddlokTsmxO+iXPYMb7D+li4IAso/mThhYZljwTN0hWzcl0PCkQyBYEgmRVsiZoMGlgt27d6loZzICQLRpVOiNpBmhcOa7p7a8//GCnTp6s6ccWex5lBwOCnJXZc54RP9oRSBZmGBaa/PLLL4s0WdxDhxZb9SJAffzlL39xzQz1gHYG85c0iVxX3dWGLFdv6dNLXe+05FiYaI/cIr9o/jAh0hbQPkibRbwgWelhHbECgXxCIEhWJWuTzh8TIf5FjGD37NnjDWqyEdYotqId05HDh23Xjp0VzhmN+No1a63NC62se9euhhmutjfyBFbJQMcDwRI+5HPSpEneOe3atcuYVUYcdfK1XYZ8fj7kgbrAsR2CgJkQkxh1I1lmr/+FSnrBibLzLhN0jIwy2xB8kFsmu7Ce14wZM7x9kJyDIfeQTmyBQCBQOAgEyapAXdNAKnz++efuq4IzN+YBGlMaUgKNcHLkX5ERLOn07NHD+r/7XgVydjoqeYOkPPfss1b38svt2PHjaaWxetVqa9e6jU+VT+uGCkQiTyJa6pzAiHLSQQkrNCd0TjjE4//CNeJVBLsKZKvgo1IvbOCLrxGkYOoU6OVHAAAgAElEQVTUqW76gjRIlqWpkVzrvkIDUHIsWU6SrKQsgx1reSHL+GihIQQ7cOSe2AKBQKCwEAiSlUZ908ASaCQJNKo0pBAspnQzglVDCmlINsgcV2TbvWu31bnkEmvR7Dn76W9/q8itRXGXL1tm111zjZOVopNlHHy8d6+92qlTtZAsHpvEg06KIMLFMdfBb82aNe7bxqw21kciDtdjyxwCqgvJMo7uLK+BTyHmLnCHECSx5x6FzOUk91ISBsJQsiwsJcsQK2YcTpkyxQc9aLnULuReqSPHgUAgUBUEgmSlgZ4aVRpTGsuTJ096A4r/CrOJpHWpakNKOitXrrAG9W+xG+pdZx9t25ZG7opHmT9vnl1/7bVnkSxG2PiIlLVRztraeDZY0jFJm5Xs6GsrX/n2XIgAuBIgU5hq8YnDTIgGEbJb03LAIGXWzJnWtEkTGzFsuL9PuYw7uKJRRpZZz4sJHVVtG3IZj8h7IFDICATJSqP26XQ0WqUBZTkCHN0hA/If4jxxqtJBffjBBzZk4CCbOX261bvqGhs9atRZuVs4b761eK65DR40yAb262+PPPiQLw9BpM2bNlm3Lq/b0EGDnaTdevPNvgbVxg0brVnTpjZ65EjXwK1ft846d+xobVu3scOHDtmnRz61Ht262eOPPOokDO1Z37ff9rS2btlqHTt0sIcfeNCWLFrsHYUyxLIU3bt2s+efa26vdupse3bv0aVK7en8wZLFJ/HPko9bVfCsVEby/CaRLOQV4o3WEL9CFhpFiwXRHzt6tL304ov25OONrfdbve3xRx+zzq90tFUrV1YLOuSFJRFurHedNXniCfvh+++r5TmZTpT3vU/v3rZu7dqzkkZm0Wax9AVmWGbSUsaQ5bNgij+BQEEgECQrjWqmcdToH9U/TsKYCtkz8legIaUTq+y2dMkS6/VmT39W40cftSZPPHmW9umDrVvtpuuvt+bNnrNRI0Zah5deMnzDdu7YYa1faOVE6+Ann9grL3Wwm6+/wReUZBT9xGOP2ROPPe7OucRv3+5Fu+LSy92XjPL07PGGnfM//+saOsra/7337LfnnGsD+/e35cuWW4tmze3PtzWwrVu2eNHI5zNNmtq0KVNt24cf2nt9+1rzZ5vZp0eOVLbo3gGBH47DzM5iKQFIV3RMlYa0xBuRT3BGnpkRB6lF48IsT8zgXNu3Z6/L3h0NGrhGZsvmzfZG9+7W4NZbi0h9iYlX8SRyicz/+Ne/VjGlmrkdkvVs02fs/dmzz3ogMguB3bBhg2MLgQTb2AKBQKDwEAiSlUad02jS+RAwueHDwuc9NEKFZMlkWFmSxXpEA/r1t0kTJ9runbusc8dOdvuttxrEShtpv9i2nbVr08ZOnjzhDTn5ebFNWxsyaLCi2Zz33z/LXIjG6aFGD9j3333ncXr3esuuu+Za27Xz9AxGNBR1Lr2syLwImbr0TxfZpg0bPf4HWz+wP9/awEaNHOmk5/nmze3B++93TRkRNm/abJdffLENGTy40iQTjOn4ccLGaXjhwoVuZgmSVVStlTpIxU84I8us6s76TmhbwB051mCi5xtv2DNNmhSRXGTisosutnFjx52VD4gGBCL1OUTinSDoWlLTy/N5VnJ75eUO9vSTT7mccr2kjXdAPk66zjnSZs+z9Bz+8wzOcUwgXcVFa6v4//jZFUBpsvdriTxy7z//eWYQRTrHjx07ayCk+8ESkyHrZrHeGAOG2AKBQKDwEAiSlUadqyGmkcWkAgGAZKEloqFVx6TGPY0ki0Vhht+dDW63vm+/Y106v2rvvt3X7m54VzGTYadXOtqLbdva19987Wmggbji0svOMuWIZLFCNlu317vaow89XGSGQVuWJFmYEK+47PIikrVj+3a7ss4Vtm/vPr8f7dgTjz5uI4ePsC8+/8JurHe9dXn1Ve+EiPD1V1/Z9ddcay2bN3fi5zdV8AfswJcFMSFZrJiP1i22yiOA3CKbdPA4uIucgDPnIfaQAMze4C6SAkF4u3dvJzzEY9u4caPVv+FGW7F8eVGGSG/40KHW6N77bNSIEfb5Z58VXduwfoO1bNHCXu3Y0WbPnGUsSzJowEB7tWMnO3zosGtsMTUvmD/fn8uNHV562Zo984wtXLDATdBDBw+xzz87IwOUZ+77c3xQ0fedd3xlegje9GnTfHYscg3RHzlihGtpRwwf7jNt0fr26tnTJowb54MYNLW8Z5MnTXJt3uiRo+zt3n0MX0ZtlG31ypUu0zOmz3AtbpvWbaxThw5eFuLNmD7dy8P7Q960qb3ApM6aY2gLy/OH1L2xDwQCgfxCIEhWGvVJo0kHBBGgsaRT4pMjdEZsXFdII7liUbh39syZNqBfPycpmHFo5Fu/8II91bjxWcSliGR9fZpk4Qv1pz9caMOGDi1Kl44LsyKdKBskC78qFihlQ5NV7+prbO+e035UIlknTpzw65gf615ex/2iOHHo4EH3z6EzgmTeenN9u/+ee1wTwvWvvv7K0+va5XUnSp5IBX/AFjwpO+ZCOn/8WqqCawWzkFfRpbmhvjBX4R+ERoXVyalniBfaq8mTJ/sHmJMkAGIFycJ0Rx2cPHHS+r37nnXs8IprpgAKLdgrL71s/fv1c7P5fXfdbZMnTnIMeSb3ooWF3GFqXLN6tfvw/eZXv7bur3e1WTNmuk9hnUsvtblz5vh9yPY9De/yuOPHjXeZat6smQ9mKM/SxYtt4vgJnm8IU9OnmriMI5cN/3yHy2jbNm3c/3D3rl3WtUsXu63+Lda65QvWplUrGzdmrJfn3Xfesdturu8TLZC7sWPGuLkdoqmNcs+cPsPvr3PJpTZl0mR7r++79sffX2Bo3CB3c2bPtgt/f4HNnDFDt/kemSW/fPkBLSFfNghN1lkQxZ9AoGAQCJKVRlWro6fhpDOaM2eOfySW/1XZSBdzys7tO+yNbt1t24dnzyakUb/y8jqGDxQE6fvvv7OWLZ538nX8+DEnIN99+537WzW45Vb75MAB1/5MmzrNNUvLli719NFAXXvV1bZk8WI3b+Cozv91a9Y6gSN9iBod8I9//dHWrl5tF/3hQl+m4u9//8lnOWJu7P9eP9eA4Ax/+SWX2JLFS5wYsWQE2rSpU6ZWGg6RLDplHLHRFLKkANoAFseMUDEMwI3FcjFZoU1p2bKlPfzww9a+fXuX3RUrVrjPEJ/PQTOLD5E26gIi8tjDjzixwIT37jt9iwgW8fi+4aABA9zkDOGCHHV9rYsnwQSOm66/wSR/EB7kfMyo0Xb9tfXsu2+/dRJy7Ogxe+C++63Jk0/6fZA4nO0hMORh2tSp9off/c5n6O3ZvduYzDFpwgQnb+PGjHFHeXz40JI9/eST1uett/xeNHW8m8j7vXfd7e8PgxbOszG4uPqKuobcIm+Y0yGByY37IfzIPcubMACAfKIdu/mGG42lVvh/dd26rklL3ssx94tkgW+QrFSE4n8gUBgIBMlKo55Fsmj4GaVDsli+oaoki44HM2HX11+3O26/3c0XH+87baJjOYMe3bo7yWLNLMw08+bNtfvvvdfNKnNmv1+kSVu0cKFdc+WVTpzo+Bi5X1XnCk93//6P3an5rjsbWqN77vUO44nHH/cZh4P6D3DTDBo0Or/hQ4c58er15ptO0iZNmOhO9ZhtcJzv9MorPiORTpUV5ekUZ8+aZV1efc3eerNnlcx7Ilngy8zNjh072sCBA339JpYYiFBxDCCr4Pbuu+9aw4YN7Re/+IWHq6++2tq2besyPGDAACdZEBtt1AWarGeaPO0khBmr9a662rZ/9JGi/EySjropEFPcny680N7s0aPoOvLxh/N/5yZDljxhgxjVv/Gmoji8P+1at3ZTNieRJ3d8//G04zvLS7CoLhoo5OzO2//sJms0X4sWLDQc8kmDpSfQakEMk9vKFSvsvrvvsbVr1iRPOzlq9XxLQ87xf0TLxTueuoEJGmDiacM37eq6VxrmULZ6V18dJEvgxD4QCASKIRAkqxgkxU/QANOYJ0kWn9IpqWEufnfpZxgdf/jBh66xYXFTlmFgWQU2OqZNGze6KYaGnZmMfCeRZRUIaAtkriQ+TuzTp05z7QXfLCSuyCHXMRGtXrXKiRDLOqAZ4Do+XTiu49zOPeSHtJk1iJnJw8//6dTk50Wa+z/eb2NGjfJOpqojdfBF0wDJghz06dPHySwLlLK8QISKYQBuq1atMjRW+Lg98cQTdsEFF9jFF19sjRo1srfffttmzZrls2QxZyVJFnLBMh6QLDa0Pc2aPuMBjRAbWpo2rVoXaa9O+1918mvHjh61v//0k/ssoYlFO8V9E8aNt1tuutnj8ANZf77Zc9a3z9t+Dp8syJI0TtQ5EzIWLVhgU6dMcRM2juap29FPP7Vnn27qs1yT15jQgb9YKskiDv5U+JgxYWTenLnJ24qOkWk0WWjItGEiRDvGEiNsLPpbnrkwNFlCL/aBQOEhECQrjTqn08E0QIAEMCOrJJJFvNgqh4BIFh06pABfIXyGMGPRQUeoGAaQJkzbkHW+StCjRw/r1q2br0GGEzuaUszDrPS+YMGCs8yFYP36a685QZGv1soVK11T2rtXLydQGzdssLvuvNMXEYXkMGkDDSozbtu2au2mOCQBp3OIFpNE8Gu65sqrPA5a3EULF1nrli2NiRZskDYIDIMHZvuxtMhzzzxjJ0+ccBPfDfXqWa833vSlQvbt3Wsf/WxeP7B/vz14XyPXrialD99ENGdoelO3z/7yFydtLZu3sK++/Cr1sv+HZGEy5VugX3z+uWOJ4zukELkE48svudR9upIJ0A4gzxBRFnkFX+GYjBfHgUAgkP8IBMlKo45pMJMkC3Mh62Qx4laDipaLEEQrDUBLiALGdK6QWBYjxfEdTUfgWQJYaZwCN+QRooDZzX2Xjhzxzh6Cg+xCAiC0kABpIqmHxQsXWeNHH/MJDpjpmOVJejiY33XHnTZ/7lyD5LRv09bNyEOHDLGmTz3l2qSRw4f7LD60PyOHDbdeb/R0MzTPxMfq/HN/Y+3btnP/LBbVxW9KG1pRSM3pNMZbj67d7aMPP9RlX5rk1ptutubPPusm82lTpjjRGT1qtN1+y23ul8VCwWxohJnwwaxXzJipJIf8MNOx33ulfyMUTNDmXfKnizze6SVWJtm335xejmH+XL6scJ2bOTesX+/EimeDFe2FSBaTDvDvii0QCAQKD4EgWWnUuTosmQvplHDMpuGmU+K8SBj/Y6s4AsJQJItZWZCswLPiWHIHMgt2BGQTfPVfWOPLxEKkkAA0iGyQr1kzZ9mUSZNs5oyZrqna/zNx4X7Mxyx9sP2j7b4kyNTJk4tmqc6bN8+JBekws5BV40eNPPPVAmYE4isI2Ro6eLAd2H/An5n8YbZsl86d3VyZdMZXHBz5WaYBUyIbswBxhmdBUEgXZnW2bdu22YTx433mIuc1c9Yv/uyY3vONN8v8UgEkC19EfBhZv47vEf4tsW7WsiVLbc77c2zWjBlucgRnNnACR7SFyDHtBZo86iS2QCAQKCwEgmSlUd8amdI50fBifmEJB0wx6rBoWNWRpZFkRElBAPzAGWKFszYmWTpQzsdWOQRK6tQ5J1mFeGDOQjML7pLlyj2t/LvGjx3r2rHyY1Z/DPwcO77c4Sy/xtSnQpT4dBX+aRXZwJh70SCikaW9gMSWVB8VSTfiBgKBQO4hECQrjTqjU6LRJDC6XrdunU+D37dvX5EGiw4qSFYaYJYShQ6IgJ/QmDFjvGOSmaqUW+J0JRAAY+SZAL5on6ZOnepLZWCulRyzzxQpIJ3jx09Yn7d6+1IhLFXyl1OnKpH7zNyCDxizDufNnWv/SKzgnkz9u++/cxMry0Y82+RpO3Tw0FlLWCTjlnQMlmjVMMfSXqD1zhSeJT0vzgUCgUB2IhAkK416oXEUycLZlTWCcHxn5hbnaVAJHEdDmgagJUQRxsyKYzFSfIjQGtLZx5YZBMBYJArTFqZZPhGF8ztmQGSb85mWZdLkG5iDBg60Vi1f8M8zMZO2tjZMmSxyeuLnxXpLygf+VJMmTvJlS17r9KovIcGs3XQ3NFdosCBZvv7cjz9G25AueBEvEMgjBIJkpVGZdE50FOqA8GVh9hsaABpTOiUcabkeJCsNQH/2W6HDl1YF3FhxG/MVgU4OXINkpYdnOrFEspBTaWV37NjhpHbZsmXuNyRZzuSAgTpmWQfMkziA8/4wu682N/LyzzJM0Szye+TwEdf2IZcseKpvfybzDaaUT+RVGLN4LqZCmWKjbUiiFseBQOEgECQrjbpWw0lDSWOKhoVPlLBoJg62EKwgWWkA+XMUOqVkZw6u4Id5hTWy0K5gyqKjD5KVPq7pxAR78CaAL75YrOPEgAGNC9os6obryH1sZSOAfOr9B09ww8mdNcrQEG7atMnbC84TNzAtG8+4GgjkGwJBstKoURpGjVZpLAksysnMLJy0GZnT0NLIEi+2shGgs2EtJjp0AthpujudPb5u+L5xHqxjyxwCkmPqAGzBGHKFWYtZhpJlroUsl4077QI4SY6RaQZgzICkbWDyBmu9cT60smVjGVcDgXxFIEhWGjWrjim5h1DhN8QsQ0wCmB9oSKNjKh9QMKJzp0PCIRjCyjR3NIMbNmxwkxIdE3EgA7FlBgFIAXimBuoAzSwTDvAzRLsVspwe5pAskSt83PhmJO0Ba73RPoCtBhLRNqSHacQKBPIJgSBZadSmRqwa3dNYEvDHWrJkiQ0aNMj4NAlkAfIVW9kIiGSBHyN9HISZSACWLIuh1bTpvIJklY1lRa+CvcxakmPkGtmFHEC0mHxAPYQsl48u8omcYiJkIVS0gWi3mVGIyVtaLg0YaEtiCwQCgcJBIEhWGnWd1ADQMUkTwGifzginYVaAnz17tpteIA90UMTNlkY1W/IBJnQ4rIGFWWXu3Lk2evRoJ1h09HRYBOKEiSUN4axgFPCHVEmGtQdzPonDkg4QLfy0WOcJ7YwGF9kiQ+QjG/ICdpAotNjMzuRbkBAsSCryLTmWLIN9bIFAIFBYCATJSqO+adBFmHRMA0vjCZliFIu5BadtGlm0WjhxM8MIEsaMKgLkqyaDnsuImkafPXklVHd+9OzknjyACR+iphPHDwi8wA6c1PlrL8zTqKKIkiYCYCpck7KMHCPP+MahUcRpG78iBhCYvSBgmBElO9UpP6TNc5LyyrHkGDkiMOuPoDxV57uVlGOeh7yiueI7kGgAkWVmE+LoTj6RYZFT2gowjy0QCAQKD4EgWZWscxpNNC0KNMJ79uxxcwGaAPyL8MtgdEsjTEBrU5NBz2RJBJacmD59ujvj6nx15kVl1p5ngQWYoLmCkOKHtXv3bu8k6eSzQTtRSXHI2dtEtMCfgPYFAoNmBsdt6gp5Rn6SslydMkTaPJugY7TEkBgNZPhcDefIk+LVhDzzDPLE81nPjfecPWQ0WzV/OSuckfFAIA8QCJJVyUqEZNEpQbLomAj4EjGKxfkVB25ML3QMEAtGurUReHa/fv3s5Zdftj59+rjmiHzUVJ7ogPQ8Zg7is7J582bXaIEVuIGjRv2VrI64rZIIJEkWsow2izrBYRttDTMPMX9BLqi/mpLhpNwgq/xHfp999llr06aNfzuUvKAJVdzqzpueQ34YsEhjjV8hg6xUWY5BQyWFMm4LBPIIgSBZlaxMSBbEQERLHZT8L9RR4dNCYCZdbQSezYdtX331Ve8kjx8/7h1CTeSJjprnyNTCsWZbgR1mFOEXJKuSgljF20SywF9a2aQsI8/4HVFvmONUh9Upy5Ibmf94JoQPDRIkq2PHjk7UZSqsiTxRXp6TzBP55D0HO0KqLAfJqqJwxu2BQB4gECSrkpVIA6qGlcZVDaw6KjW87GvTH4MOEpPPHXfcYT169PDZfJCbmtrUifNM+aYksQE3/a9NnGoKj2x8TlKWJb/aS7apO+qppohDMk88FxPmiBEj7MYbb7QHH3zQzXMQn5rOk2QYWRUmkl9hxX+u1xRW2ShTkadAIBA4jUCQrEpKAg2oGln2yaBGV+dqkjyQL4IaeWbsMfL/1a9+ZQ899JA75tKB1lSelBeepzyxFzbaq2OqZHXEbVVAICnLqbJL/XBO9UTcmtiQkeTABSfzDh062K9//WurW7euL/mBI77kprrzVZIc65ywSWJV3fmpiTqIZwQCgUDVEQiSVQUMaUjTCVV4RIVvFYGh84FMMZMPcvV//s//sauuuspNhpg9aqoTSOKjwiTPJY91PfY1i0CyDtI5roncQViQX8xxaKyYtde0aVM755xzrE6dOvbmm2/67D7Mmch6TWzCJvksnUvdJ+PEcSAQCBQuAkGy8qjuaeiTo2l8RnDObdSokZ133nl200032cCBA33hSeLGFghkKwLIMQQLczdLJvAtwM6dO9ujjz5qzz33nE/mYAYkk02IG1sgEAgEAtmIQJCsbKyVSuYJLRajeswsdDzM3lu+fLn17NnTnn/+ee+kmBnFWlXEjS0QyFYEpIlFU4Wz+Y4dO3zJhv79+/tsQkgX37hkIBGynK21GPkKBAKBIFl5JANJkkUnRefEIpKs4TNgwACfncVaXpCv6JjyqOLzsCgMEuSThbaKmYTbtm3zJST4DBOzZJFvtF2hycpDAYgiBQJ5gkCQrDypSIqBCRDyRKcjTQD77du3+4es165d6+YXOq8gWXlU8XlYlOSAASJFYM0uNLF8xBoTIj5byHfIch4KQBQpEMgTBIJk5UlFJoshsqXOh1XVhwwZ4p8AgYCFP1YSrTjOVgSQX+RV+wMHDvjEDUyFTN7QtZDnbK3ByFcgEAgEySoAGUADwAesmaEl4lUAxY4i5hkCfEmBVef51iUzDpFlCFaQrDyr6ChOIJBHCATJyqPKLK0oQbJKQybO5xICqSRLBCtIVi7VYuQ1ECgsBIJkFUB9Q7KGDx/unyIJTVYBVHieFjFIVp5WbBQrEMhjBIJkVWPlQmhwzNUsKRx1azqQB6a/Dxo0yNatW+cfAK7JPFB2hXBSrkZhK4Ckg2QVQCVHEQOBPEMgSFYlK1SmCkgMDrhywmUWFN9Z279/v08537Bhg/uQ4EdSG2H9+vU+I6tTp07+KRKchmsjHzyTvDANH2zACKzALxmSWHI+TEGVFNA8vC1IVh5WahQpEMhzBIJkVbKC6fwhBCyWyDo+LIr46aefOoEZO3asr6zO6uoEZvbheF5bgTWy+vTpYyzkWNN5oOyDBw8ueu7QoUN9OYkJEyb4Kt6HDx92J2ZwTAYIGBo3MI4tEACBIFkhB4FAIJBrCATJqmSNQbIwf0Gw+AgzM/fGjx/vRIa1fFauXGl89oPFP1kQFAJ29OjRWgss3kg+azoPkKgjR454+ZmCj+lyzZo1Nn36dF8gFULK9xVZbJIZYwQwJUC6gmRVUkDz8LYgWXlYqVGkQCDPEQiSVckKhmTha3Ty5EnXyKCxGTduXBFh4JtrBLQxhb6BFQHzH8RUJtUtW7Y4MR01apQvMAkRhWRxPTRZhS41xcsfJKs4JnEmEAgEshuBIFmVrB8Iw5dffunmQUxws2bNMrQ2aF/k7M4xJEsO30nfo7KOyRKkJJe0OCJRqeWiDJRfmOgYXNBWoeWbP3++QbT4/A8aN85DsoRbJasobsszBIJk5VmFRnECgQJAIEhWBSpZGhn2kISPPvrIycHcuXPtxIkTRbPokrPpIAr/f3tn/iVFkfX9f2HOnPnpfZ7zPufMe+ZZZtzGZdxQNpdxRhSQERVBRERUUAQRFGgBRZRdZYfupqG7afZ9Fehmb/Z9FVD2HQT1UZzR+57PhVtmN1Xd2dVV1XTXjXOiMiszMjPyGzcivnHvjUiIRvDaaPtk48L5C7KiaIUUFRbJqpWrNO7ZvVsuXDOlhckq98Y/jBWxUxmivRPHIF1GrMDBIvhBpCCiaAOXLFki+fn5uio95JXz4Mj1HhwBEHCS5XLgCDgC1Q0BJ1khSszIgmll6PwxbbH6NP5X+DoFiYSlhyAY+QjxGCVTH/TsJTf9z5+kY4e3ZGJ+vmSOGSt9PvhQemZkyIrlK8o1P2Ju69b1XXmjXfswj0x6Gnv/0lsjW7ZFgzVv3jyZOXOmzj6EgDnJSnrxVKsHOMmqVsXlmXUEHAERcZIVQgwgCJAo01BdunRJ/bAwE+JXZFoX0lRG88Jzln6xRO6+407JyR6nz+Pe+HZNKiiQh+vVl+ysrDLNiGiGpk+bJpMmFoR4s/KTkKdkBCNddm9w40PW+LWxzIR9ABgS5sERAAEnWS4HjoAjUN0QcJIVosSCJAsihRYLDRbx7NmzSrIgQ5yrLClZvWqV1H3gQcnPy7suZ4MGDJS/PvyI7Nu7T8kcRITZgpgGWdWdfJEPTJcXLlxQsyEfhz58+LAcOXxETXOsT3Xw4EHZt3evkjf8nw4cOCCbN22SkydPRLRHXH/i+HG9lnvjb1bZd7vuhQIHuDd5mzNnTgn/NidZAZDSfNdJVpoLgL++I1ANEXCSFaLQ0LKYWQsSs2fPHl33acWKFZFZcGi5EkGyVq1cqSQrLzf3upwtXbpE7rjtNpkza7YSpuysbHn6qSaSlZkpLzR7Xj7p21eXS3in09u6z3IJL7V8URo2eEIyunVXs+bkSZP0f9vWL8vxY8dkfHa2dOrwljzX9Bnp3KmTLq+ANmzsmDHyRrt2MmP6dGn27LPSpXPnSmnprnuZUgcgWWBbXFys5BV/N3zLwNSDIwACTrJcDhwBR6C6IeAkK0SJGcmCSKH54fM0LLCJlggSYGZE9itjLiQrZZGsvXv2SO1atST/GgErmJgvt918i4waMULX5dq2bZsugdD+tdekZfPm+ma7du6UJ/7+uIzLytb/64qLpXevXnL468O6NtUbr72u5kU0W21eai3v98hQjdWMadPllj/+SSbkjJeiwkIpXLYsBP3e0tQAACAASURBVFLxJzGM0Zqx3hjrjOEA75qs+DGtaVc6yappJerv4wjUfAScZIUoYwgABAoND9qVwsJCJVnMikMDwznIANvKmtTKIlmbNm6S2vfXkmXXCA9pH7jvfvly//7IW/D8/p98Ii2bt9Bj5L3bu+9K25dfVjKIMz0E6udffpHc8ROkx3vd5NPBg/V9Bg0YIIMHDtLrtm7ZKvfdfbdsWL8+cu9k7pBv8oqpk9XgFy1apH5ZlcUzmXn2e6cWASdZqcXbn+YIOAKVR8BJVggMIVBoqzBnQbJYbgCnd2byESACFkPcrswkEKd6D9aWaObC3Am58sTfG6gPFTdZXlQkdR54UC5euBC5J0QFs6GRLE5wz0ZPPKHaKMyAq1as1PQffdhH+n7YR9eqwpmfay2sX7de6tepK18dOmSHkr4FQzCdNm2a+mXhc+bBETAEnGQZEr51BByB6oKAk6wQJQX5QEtFhGShZcnJyVHiFeLyCiXBnFf7/vtl6pQpJa7bv2+/tH6xlYwZNVod1jmpTvIP1pbvvv22RNoB/fqpL5YdxDH+heeby6tt2gjmQ8xwhA9791afrqAmDLMhYdvWbUqyjhw+rP+T/WMklZmUkCwc4J1kJRv16nV/J1nVq7w8t46AI+BLOISSAQiAES00PgsWLFCSxfFEBTRlR48cVf+q//i3f5fWrVrJls2bpXjtWj2W0b27OrjjE0ZgVmHuhAnqN7W8sEhn5kECmTnYsUMHebT+Q2p6s/yNHjlK/nL7HbJm9Wo7pCTtnjvvksZPNJSC/IlSMHGimhC594ScHLn9llt1SYlzZ89FrknWjpOsZCFbc+7rJKvmlKW/iSOQLgi4JitESRvJwmyIFgiShbkwkSTrm4vfyOJFi2X40KHSof0bSpSmTZkic2bNkkH9B8iypUtL5JQV4bPGZkqXtzvrmlqbNm5ULdu8ufNk8MCB8l6XrrqGl13EbD18s9YVr7NDmv+FCxZIi2bPq6Zr8KBBcvDAAVletFyGDx0m73bpKnkT8mT71u2Ra5K14yQrWcjWnPs6yao5Zelv4gikCwJOskKUdJBkocliZXJIVtCHKcRtykxy5ccrcuL4CZ3xh1/S5UuX1Nfqnz/9FPU6nO5Pnzotly9dltOnT+l6XWjD0EKdP3deLly4GDELcgP8yfg8z5Uff7zufqz1tX//Pl2OgpOnTp6Ss2fOCu968sTJlJjtnGRdVyx+oBQCTrJKAeJ/HQFH4IZHwElWiCIykgWpwr8JkoVPli0vYOf5n0jiFSJrNSKJ4ccWcyiLvM6ePVsXVOWYB0cABJxkuRw4Ao5AdUPASVaIEqOjNwKF4zsfhM7Ozo44oEOsOE90UhAC0FJJwMwwhsQayWIFeMezFFhp/NdJVhoXvr+6I1BNEXCSFaLgjADgWA4JsCUcmP3GOUiWzT50TVYIQKMkMQwhVqyTNXfuXHXmd5IVBaw0PeQkK00L3l/bEajGCDjJClF4EABb1R1/qTVr1qi5kG8CGjmAZJm2K8QtPUkpBEwTCKb5+fnyxRdfqH+ak9ZSQKXxXydZaVz4/uqOQDVFwElWiIIzIgUR+OGHH2THjh2SlZWln9exc0ayXPMSAtAoScARfDdv3qyf1WGLadZJVhSw0vSQk6w0LXh/bUegGiPgJCtE4UGczByIRuvIkSNSUFCgC2ZCBDjHJ3eYweekoHxAjVCZ5s/+Y4pdvHixzJw5U52cwZQ0HhwBEHCS5XLgCDgC1Q0BJ1khSgySBYEi0vFfuHBBycD48eN18U+0W5gRmRnnpKB8QI2UGjE1U6x9HHrp0qVqKjTtYPl39BTpgICTrHQoZX9HR6BmIeAkK0R5omkxIsAWUrVv3z6ZMGGCOmizzhQEi0/COMkqH1AwAkOikdfz588L5Aqn9127dimeYO14lo9nuqRwkpUuJe3v6QjUHAScZIUoSzMXonkxsoVpa+XKlZKZmSlr165V7RakAe2L+2WVDSrECSwtsor+hg0b1OG9qOjqJ4LAGSzd/Fo2lul01klWOpW2v6sjUDMQcJIVohzp6Onw6fjRvBjROnnypC5MmpubK8XFxXLq1Ck9H+KWaZ0EEgqGkFK0gOvXr5eJEyeqjxsdKVpBJ1lpLSJRX95JVlRY/KAj4AjcwAg4yQpROGherNM3ggXpwjyIEzwrwLM4aWFhoX7WBiLm2qzYwIInROrYsWOqDYSkssI7H7dmIgG4minRNVmxcUy3M06y0q3E/X0dgeqPgJOsEGVIRw8xILJPNLIFoYIsMCsOR3jIwqZNm+TQoUOq2cJJHtMi5KGqIt8gZOFUzHJE/qcqTzzLngkWp0+flq+++krNg8wixK9t0aJFcvTo0RJaQkgseDtZDSGgaZLESVaaFLS/piNQgxBwkhWiMOnog5FLIABGtPAtwnEbcjVt2jQlWzhwz58/X1eHR8OFr1FVRQjgggULdIFP8rJs2TLVuqUiP/YsnstK+Wj9wAZyxRZ/NogXZNW0VqWxDlFEniQNEHCSlQaF7K/oCNQwBJxkxVmgps2CHBDNfHjixAldUJOZchAKtDUzZsyossjzMWX27dtXRo4cqSQQIkhMRb6mT58uFmfNmqWYsJo7ju50mmi5MA1CWI1kxVkkflkNR8BJVg0vYH89R6AGIuAkK85ChRBArCBYwVmHHIMwYCbDMR5T4vHjx6skQviIkJqMjAz9FNDevXvVXMfna8hbKiJ+azwPkyBaK7CBWOF7hQnVHN3dNBinMKbJZU6y0qSg/TUdgRqEgJOsOAuztCYLYmVaLbZmSoR0VWUgL2iQmjVrJv3791dHffKUSkLDszCv8lyL5AuiZdE1WVUpJdXj2U6yqkc5eS4dAUfgVwScZP2KRYX2TJMFOYA4GImw/0YmqsIExjPNafzMmTPSr18/ufXWW6VVq1bqN0YeUxksP+SpdDSc2FYFVqnEwZ9VOQScZFUOP7/aEXAEUo+Ak6xKYA4psGjO2vxn37aVuH2FLzWNESTK4u7du6VNmzbyu9/9TurVq6ezH/kEUKqD4VN6azhx3IMjUBYCTrLKQsfPOQKOwI2IgJOsG7FU4sxTkGShGYJMMbuvadOm8vvf/17q1Kmjzu/4ikFuPDgC1QkBJ1nVqbQ8r46AIwACTrJqkBxAsiBPECzMcqxLZU7vaLO6du2qy0uwThXnPTgC1QkBJ1nVqbQ8r46AIwACTrJqkByU1mSxPMKBAwd0odQRI0bo8gl79uzRT9lAxDw4AtUJASdZ1am0PK+OgCMAAk6yapAcQLIgT0Sbvcd2165dMm7cOP2+IsslcMw1WTWo4NPkVZxkpUlB+2s6AjUIASdZNagwIVmlTYa83v79+5VksQAoDvHuj1WDCj2NXsVJVhoVtr+qI1BDEHCSVUMKsqzX+PLLL5Vk8dkfJ1hlIeXnbmQEnGTdyKXjeXMEHIFoCDjJioZKDTvmJKuGFWiavo6TrDQteH9tR6AaI+AkqxoXXtisO8kKi5Snu5ERcJJ1I5eO580RcASiIeAkKxoqNewYMwxzcnL0w9X4bHlwBKojAnz/kg+er127Vr93aT6I1fFdPM+OgCOQHgg4yapEOVsjH9xyO/4ze89m+Nn3+apiy0zDnTt3ypgxY2TNmjW6QCkzDImpyA8fgbbI88CkLOd7sMNvLLitRBH5pSERCMqw7XMpZUF58RH0VMhLWc/Yt2+fTJ48WYqKiuT8+fMqyyy4i3yVdV2izgXlGDyQZeqX+TkabmwJwf92LGRxeLJKIFAad8onWEa0zUGZtnK1baLkpbrcJ1h/TKZNXtmCXWlMK1E8aXepk6w4ixzBo4GlshKt4l6+fFmOHTumxIYR9/Lly2XJkiW6KCgLg6Y6suJ7fn6+9OrVS8aOHSuLFi2KxFTnpbCwUJeRgPSB0aVLlyLLSYAlGBqmVHYixzwkFwFk2eTYZBkScfHiRf2g+LZt25SgQ26qUpYLCgr0O5yjRo3SNd9MlhcvXpz0emXvzbPYp16vX79eWHeOLyhQ762DiibLhqt1Xskt0fS9O+0F5WAk2OSaY5CJc+fOCYsxb9myRVavXi20SaluB2+k55lcL126VFasWCHMQGc2Ot+8ZSAOfmBnOLocV7xuOcmqOGZ6hXVMCCDx22+/lYMHD2qlpTPIysqSzMxMndVn+/xPdeTZo0ePlqFDhwoLkqLRSnV+7Hlss7OzZcKECTJ16lT95M/evXuFRVOtIhue1kiCs4fkImAdE9iDO18K4JuXEIqJEydqmVnZWVmmWo55HnI8bNgwjchxKvPAewffnX3WnsvLy1MT5qpVq3ThXxs4WKcEnmg02LosJ1eOuTuyDN6mqUemIVcnTpyQjRs3KjkPyrSVKQNQ5Mn+p1K2quJZ1J/gOwf3c3NzVabXrVsnx48fV40x8msR2fbBQnhZdpIVHqsSKanMCBsV+vTp0+onArmCQMyYMUNH/jjqog0gjZGHqtjSyND4M9omL0QqTCryYs9hSx7ABA3A7NmztZOiwUPjd/bsWc1TMH9oBLxjKiF2SfljskzHdOTIkchAAQIxd+5cYemPo0ePKhmuSlnm2QxmkGMzE5p8pVKWyQfmSnwdMcFPnz5dfR6nTZumfo+QVPJFNLyQZe+YkiK+JW4Kzmb+An/khYk/8+bN0/aGNprBA9pZCARtEmVETKUspUJeYz2D9wQjIvtE6j5tMINetFpYPxhEzJo1SxezNk0taZ1klRC5cv84ySoXougJ6PwRYkwFqH/R0FCRqdBU7KDJgE6sqiL5IJ9UIioV+5a3VOcJzHg2lRTtFdoSMIOYUrHp4MknFZl8ks5JVnT5S+RRMAZ3NLGUByNZygOzCmSGMrOYapkJPo88IBvWOZiMBNMka59nl7635YfOaevWrTr6p3PCDHXq1KkS+eRaJ1mJlNro96JMkAtIk7UxDHoZMKBtpL0OEiraGK6xWLqMa+p/3pvI+1H/kU3+W/3CXIjmj0Ew2CHfRrTAymU5uvxFO+okKxoqUY6ZUAW3aKnweULVim2fEaxVWgTXItdUJgbvYxUieL/geY4H/1OJaHSoPBb5z/HgPYL7dn2YZwWvi7bPc6iUbIngE8wPlRlfH0ZNkFXU+jSCpLF8RikOP5RABCgfRvUQLEgCfhlBWabcypKJaOVux7gubAjKW3Cfe5n8IMPBTtJkxJ5n22B+S9/L0lRkyz0sD2zBLCjLkFRmP+InBoZouPD/Ib/kkfTcw0NyEaBsKBcGB0yUQMuIawIaGsrIys3aaf5zDWVj+xWRi6pMa0jGkweTZa7l3YlgEsSFfSwPYIhM40trGHKdh3AIOMkKgRMCZRWRLf8ZTWNGYWkERv2YD6ikRATWhJdtPLF0tmLdM5jOnmOVxvJAnqwCWSWy+9k1wa1dHy2NnQumL2vf0ge3YGgNGvmhQ4doMWIqLi7W/0a0uM5D4hCgrMDUyox98MfpFVOK4W/EwOQ+eI1dG3ZLhzd71iyZMX26zJ45SxYvWiSFy5bpsTmzZ8v8efPk0KFDkTyVzqP9Jw8mOybPwfoWzA9pgzF4Lt794P0sL+TH8gRmkFXMUVOmTNHRv5mjyC/XeEguAmBMOTBYW7BggUyaNEkJFsdKl1lQrsgV54kcrw6BvCJfFQ2x5N9k2XCyLYMHZvVCViFdLssVQ9xJVgi8EEojBdagmuDB8tHG2PnSFTSWQJd3/PvvvlPihor2pytXNJelr+EgZA+Cd/bMmUgnZa8UzEu0a0sfs//B6+2Ybcs6Z2mCW0sf3AbP2z7vsHDhQsGvhREo740WgIruIXEIWMNpDSpklhEqpABtLKYvGlHOUzbBYGVVkS3X79u7Vx6qW1f6f/KJfDZkiLR+sZX8/a+PyeeffiZDP/tcGjdsJEMGDdZH2b35Y/tsgyF43M5FO1bWNaXTh/kfvB/7do3tswU32gZ8DufMmaMmV0b/Jstc4yF5CCDfmAkZLGDqQiuLjJcOZZWDnYOYnTp5Su+H1eLMmdOlb6P/GaTQB+AmotvLl6Om4yDt9Ynjx+XChYvy7eWr6TkWNvB+O7Zvl+zMTJmYn6+kJ+y1ls7k1rZ2PLg1DHge+O3YsUOtDbQREDs7H7zG96Mj4CQrOi4ljiJQNJ7G4CEAjPwxcdFB0YDGIlklblSBP1/u3y+f9P1YunTuLLt27ox65d69eySjWzfp9/HHsryoKGqa6nIQfPHRYuTJ9HhzhOe4h8QhYLIMrkQ6BUb8DBZw5KZBTaQs87wN69fLZ59+GnmJkcNHyDP/eDryf8zo0TJowMDI/+q+A6mic2f0zwwtOn3aCPD2zim5pYvsohVlsAbRZVISRCEe3DH3zp41Uz4bMlh69+wp47Ky5YOevSRz7Fg1R9qbFK9dKxPz8iWje3cZ9vlQGfrZZ9KrZ09ZtXIlTNyS6fb0qVOycP58HVT06NZdMseMlePHjpVIw58lX3whUyZPVrkJnuRd1q9bJw/VqSeNGjTQAXbwfKL3wZM2AZJps43x1SQfHsIh4CQrBE5UUAiWjfAxCdCA4lCJ8NGAMuoxEhbiluUmOXf2rFbo3/3mNzJi2PCo6bt0fkf+7//5N+2gjhw+HDVN8CB5XVe8Ts6cPhM8fEPsU2kZEdLhM6MFtTQjPCdZiS0eZNkIFvKKrwqyDLEFf+Q4kbLM806eOCFff/W1vgj/0WAFSdaxo8fk8JHDauJR89qPP+gEEsyMBGQD0zyDm2D49vJl+erQIT105MhhJYfB8+zn5+bJpIICnR3J+6YigK/5uM2fP1/fC0y9Y0o++hBcZi+jxUJmIAjxkluu3b5tmzz/zLPStMk/pHhtsYwaPkJaNGsmnw4eovWFN4IkjRw2XP77D3+QaVOmyry5c6VH9+7S9KkmMn/uvBIvzT0Pf/21krY//ud/S+aYMaoBK5FIRN59p4s0euJJ7V9Kn+N/dlaWNHy8gfr9RTufqGOQLNphIuSVCV74G9LneQiHgJOsEDgFSRaNJRoXhI3ZKvxH4Kg8iW5I8VepU6uWtGnVWr469FWJnDIT76M+feTO2/4s69YWlzgX68+C+fPlrTc7aIcTK01VHacDokIz8sc3iNksqN+9Y0psiRjOYA2+yDAkC3MAHRQyjCwncsAQfINoJOvs2TPqn5XRvYeMGjFSBvTrJy1btJBDBw/J9u3b5YtFi6Rvn4/kzfZvyM4dO7XBn1wwST7u00e6vvOOZI0dK+916Spvd+yoMyTteStXrJQhAwfJxx/1FdLzvqkKPGvlypURp2s6KZfl5KPPQJIFNtHM0kYi58R4sf/Xv36Wjm92kC5vd45kHhJ12003q2+hHcybMEHuuO02nb1ox5o/10xeaN7C/pbY0rbXuvc+WbZkaYnj9gcitnvXrqgDB9LMnTNHnvz740knWeBGm0B7gEzTNjMIBmcP4RBwkhUCJyNZjIjoiLD3Q7JYrsG0ApWtzNGygSp5QL/+8tILL8rYMWNKJPnowz6CmvrhevVl6ZIlkXNXfroiM6fPkIH9+8vAAQMjNvstmzfLa6+0lWefflp6ZmTIzBkz5H+//16vmz1zpuTl5monVbisUI/xXlwzbepUWbVyhUzIyVGN2YXzFyLPSuQOGIMhoyUqMo7wVOR4G8dE5q0m3Qs8aTCJmEOYDcf3APEjAn/K3baUSaJDNJJ1/tw5yZ0wQbUFXd/poqP0nOxxsmzpMnm1zStqOtm7Z4/UqfWAasFo9BcvXCStWraUN9q1lxVFRbJo4UJ5pP5DQr0gbNqwUV5v+6oc+PJL9SHJzsySo0eOJPp1ot6Pd4RUQRAxWzFwQAsXq40gvcfEYMDSGZgJ0SCimTVZj7cdocy6dn5HOnV4K1LWCxcskAZ/+9tVc+C1o7njxyvJwpRGgJC83ratPNu0aeS64A4TQeo88KAsWrAweFj3cZVYXrRcJhcUqBxZAszOeRNy5f3uPeQfjZ9SbTB1mHDlp59k0sSJWh/Gjh4T0fpC1iB0C+bN1/qESXPH9h12y3K3yKW1B2wZODDTkHXzPIRDwElWCJxM0KiomDAwrYwfPz4yiuA8wRrKELcMlWRQ/wHqo/Rxn4+k+XPPyZmzZ/U6OgtG5wcPHJRHH3o4QrJwHv908GChkjGaG58zXt7vkaHr9hw7elR6vd9TXmzxgjpMbtu6TfOLI/Kwzz9Xv5nPP/1U3ni9nWxYt17JDSSv8ZNPyojhI+TlF1tJ25fbyLmzVyt1qBeoQCKwo4OnYWQWC07wkCzDtgK38qRlIGA402Dir4JzNiZaZCcVgeeXNhfy3D17dkvL5i2kIH+iNuocw8yIeZtw4fx5adPqJR088P+f//qXdjbUDQv4fWHW+RFt867d8mSDBvJmu/bqvIzv2Xcp0mTRTkAEWXeMUT8DBuSaARpaQuScNNZ5gYnHymGADIApnT/tB+0fRJdyIHIungBJe6fT2xq5/ttvv1MiP2zo0MggleNGsjATE2i7HqlfXz7o1Vv/l/6ZNXOm1K71QFSSdfLESZXz55o+I99c0xixeOrHH30kK5avkDmzZstzTZuqrPOc77//X8GvEbeS/Lw8eahOXd3yzA3rN8g/GjXWtr9P7w/lb488qj5dpfMT67+1F8gsEfcCZtTjv8k5D+Uj4CSrfIxUmKikREgWFRhBo9FMZsDZcvTIkdph1H3gQZkxfYY+buSIEeoMz+i4Xu06Oh2eE1MmTZa6D9aWnTuujlSYvdLiuWby6iuv6HVoC9q2aSNnTl+dJbO8sEju+vPtqrEiAZWo/Wuvy7NPN5Wff/lZV2JnFlhWZqZq7fjeYLyNlWagjB/uy/PBl9E/K43TMXlILAI0jIY1CzOixUKeU2VK4/nRSNbWrVukRbPnr/NhwZdrzKjRak5EjhkUEMjv+z16qN+iITR+XI40frKhOppzjMkgyDK+K18sXpyyTgF86Zzp8CFZrP+GLNPpI99ECC71iX3Se6wcBkYG0ITjj8UsONNisQXfeALX9nr/fan7QG3p3LGTNGnYWHKys69rm/Jzc+XPt9yi8ohz/Jvt20vPHhly4viJqI8ti2RBvpH5l1u9JMwyR0a6v/eeDB40KHKvCePHq1yj3cKPESf5r675PaJ5+3zIp/rO9AGtXmgpnTt1kr179srBa5NbIjcqZ8dwNZKFryyfHmIGOOc8lI+Ak6zyMYqQLAQNYoOWhZmF/E9moENhhER4/tnnpHXLF3VKeN8+fXRWGL5gkCo6EyomjcHjf31MGxeuoWHhWP06dTU9JOuVl1+Wr6+ptDEpPv7YY3L82NXRF5Vm6KefyT13/UVXrGaGI50U6uZkBp5rnQwdkc0MQrviFTnxyIMpssuoG6xZ5w3cUxVYtiHo+M5zt23bqiRr7uw5kWzgk9KkUWPJGTdOlyhp//rrqqklAQMcSBYDEQuYBEn/448/yLatW3VgANHBbEOHFavDs+sTtaUuUjfxCYJk0V5g1kGe8X1jwszIkSN1thbHTPZ9Gz/RQqbBHQ0LX5CAZIEnJInj7McTuL5b13fVArCuuFhea/uqmrAhyMGAT9btt96qZH7zps06u/RiGYPEskgW98UaoSTr++91kI12atPGjZFHQqrM8Z13++c/f5JDBw/K8M+HXrVW5OVH+qeOHd6SD3v3vm6mY+RmZewYrmBI5L1ZfBu/ZG+bywAucMpJVgCMWLsIE4JMx8SoAXs/mqykCtkvotN88YkiMHJB68SsE6YGkxdGOJCsFcuX6/8PP/hAfbRMU8V1OAw//VQTVZkzAoNk2UxEzIP333OPOhjbu48dNVoevL+WLqGwZ88eJXcsHpmKAJ509jitosmyDigVz06nZ4CzkSxMK6kkWWig8Lt67OFH1EmYekV+tmzZLA0bNNDZgNYhbt+6Ve6+8071F2Rg0Oal1vLWm2+qFgjZwLTdo1u3CElh8PFUw0b6biOHj5C83Dwt1oKJE+WtN96IyH2yyxpsIVmM+sEXHxbI1gcffCBNmjSR+vXrS8eOHVWDiA8PGkV8iTzGjwGaQXBk6Qw+fsyXOCBIlZ3EAbHAXIh2iIAc4o/VvVs3JfMmS2YuJA9hAj5ZmAvxLQwGSCIDCNbBQt7ZX71qldx28y06a9HSTp40SRo1eEL7I+Tts8FDZMigQSpz+F3h02j9E5OdGFDbeot2jzBb7gEGRlZZ5NVJVhjkfk3jJOtXLGLumaAhbJAsfFjwyTIhjnlhnCe476VvvhFmW02aWKCdyPlz51VL9Zc77ow4s6Mav+/uu3WmCR3TjGnT5aG69WTZ0qszVhg9s87WiGHDNCfjsrLksUceVf8r/BQwE91z510yf+5cPU+DBIlr9+pr+kwWvWMaMrNpkvWuBhH35x1oVCBZ+ArRkSb7ufb8dNmCJ3JMRJPFIqTmv5JsDPCLYobgVX+SJvJK69Y6SYOO6f2MDGnSuLGOwqdOnqIdGJ0Cnc2j9R+SwQMG6rpxD9etJ1ljmE3YRVo2b67arxHDh2udbPbMszqgKMjPl6lTpsirr7TViSM4wzM5hHdORTCShRaNCTLt27eXp59+Wm666Sb5zW9+I7/97W/l4Ycflq5du0rv3r0lIyPDYwIw6NGjh3Tq1Em6dOmiMk17xkCUrRH3ipb/5UuXdcLQqy+3idwDjen999wrOMBTn4jjx42TW2+6WV0vynsW51lI9Ob/+aPKv91j44aNum4W9YQlGvCfZZkSyPpdt9+hrh6QdwjP+Jwc7Q+wrPD1hLvvvEsnJ/F++CkyS5cBK7LY7rXXhQHID3Foq629MJJFm5GZmSkMwDnnoXwEnGSVj5FWLhMyhNpIVnmVKcStoyZBE8VI58UWLeSdtzvL6lWrtWIxaqcCUVkgQKiUa91zrwwZPFg2rt+gpkwc35nKzqwqZpswk9BmvLDmCz5Wb7Zrp74tHGe2yntdu8qmjZuUrOGzBaHDJ4uKXvv+WupnsH/vvqh5TdRBsKRBgGS5uTBRqF5/wvFYqQAADOhJREFUH3A2WUb1z/INkCxwT3aA5LAmFloH1oGDhODYS344xlcLcHa/OuHhqnmHc5jdmIGIFoxGHv8mRtSkP33qtGpdGfygCaKD4jwdK/dk8UfIOrKVqkDnw/PIKwMGtN6QWQhVo0aN5N5775W2bdtqO0Id5P2Y3ekxfgzAEDKydu1a1WRhLmQgWRmS9c3Fb9RH8MUWLaVJo0a6ZAMyduXHK0re+XIBy4uw2C6a0/vuvkewDmzcsCGmvF28cFEtEW936iT/9fv/pwuY8iFm/Gg7degg06dOk82bN+uXEHBSZ+CspCwvX/74h/+Upk2ayJhRowSn+Fv/dJP06/ux7N+3X7q/100HLfiDoQHD1Mgi1eTvqYYN9SsLLBdRUWJksmwDM+odJMvNheFbEydZIbAyQaPhpKHHxwJNFh1AMgKdAyZBzIArV6yQNatXqwZtz+7d2qHwTGabcG55YaGqk/FBIUACGbXjzzWgf/+IkzvneA9Uz1MmTdIGncpLZPV61Ms543IiMyYZBfFcRkn4fGHvT2YgH+Br5kIcspnKzHEPiUMAGTCsIVmmyUoFyUrcW9zYd7L2AnxZTsAc39Es45OFuwEmLc755I7EliVkiyVgaNOQc8h2vLMLcSqnDS4qLFTrADP7IM6En678JGvXrNXV31mdnVmwLH9Dm7x506aYJIvZ2bTBRcuWqf8W9167Zo3g78UxnokvIu0/7bjNrqVtLFy6TEaPHKVO51yDltc+p4aGCwsGA2mWDMH/FgK/a8cOKVy6VN8Bn66Ktqcmy5As8sDAyDVZFZNZJ1kh8LKOCVLFiJmRP86VEIJkBHue3Rvh5lgwUFmswpROz3/yRgMTLdh1wXNUUhojC9zjl2sEp/T9LU0it+SJ94TE4sdCB0SnxLM9JA4B8ARnGk1GpWgN+VwGuHtIDAJgDL5opmz2Jto56hh1EqzRrtmMQ2SfazzGjwElB45gjnaWZTMoAzOvgW1FA9dQVyxEa4evXPukmt2f7c+Ba+xa25a+p/0PPof3IBJsa9cH/9sz7Vxwa/cLpgleG0xb1r7lDyzp/8AXksVSDsF7l3WPdD/nJCuEBCCwJmRqAy8sVE0Wow4PiUOARoDOB5KFthB8vSInDl/uBMaQaRpMTB+Ys9CsuCwnDmdkFnxZJwuSRYdPu8ExSBZaQwZBVg4u44nDHu0h7QfaQ3AGYyMciXtK+twJ2aTvs8gC3JAsX8IhvAw4yQqBFZWUBhJBw8aP3Z8lHFBNe0gMAlRmIupoTFjWMXkHlBh87S6QLJNlCC0Ei5lvYWdF2X18GxsBZBaMGe1DsvhCBB0+xyBXRNNqsXUZj41lRc8gx8gzfrNYHWiznWRVFMVf05ssW5vBdwtzc3O173O5/RWnsvacZJWFzrVzCBMV1bQAO3fu1FlD2L4JHA/GELdM+yRgCmZsbZ+KzBRs1P18koTOiHMeEocAmNPxgDXaFb5dyMgfQsBxKwvSeQiHgGHG1vYNWzSF+/fvj2hUwJ2IhgWC5QQgHMZhU2GWZfkGyC1aLfA1ubbyYeshHAJgBX5E2mP83cDWNd/h8COVk6wQWCFoVFaLVF6IAH5DaLZoMDEDEL3RLB9Qw5POxiowGDIzDEzpmNASct47+/LxrEiKIMlCXnft2qWaw9WrVyvpMll2AhAO1SCeyDL1H+xwOmbRUdZ7YyILx0mL7LO1ff57SBwCyPSmTZv0c2TM0qMsrFysrbH/jn3ZuFs7TZtAZPYmEzb4fiH/PYRDwElWCJysIbXKiRqa2SvMMGS9ECoyLN9JVggwr2n+wNIqL1vMKVu3btWFG8EWp2DSgL2HxCBgjSa4EiGxEAD83xid4kNk/kLIsmNfPu6QJ9NMsSVihsWswqh//fr1Sl7B2zv18vGsbApwhuCinTWCG5R3KyPaHB8Ql4822NEW0B7zMXkW1mV9Rm8bysfOUjjJMiTK2CJQVEhrUG2kSiOK1gUNDMeowC58ZQB57RQY0ciBmUVmurEAKf5YOFdCWqngjmf5eIZNESRZJsuQKkyzyDJmFkgXjSqy7KSgbGQNz6AsgydOwbQLaGXRyFqH7niWjWcizoIxpiy0LaxPhksHZYI8Uw5saVesTBLxzJp8D9pf8GPJIBbWdV/Zipe2k6wQmFFxqZxEOiAqKGZC/IeYacHCd/gC+MgoBJjXNFmQK9P+MfKnUcShEg0AoyZrEJ1khcM0bCpk1LBlS2Q9MggWo1Q0L3RSLsvhEAUnZJl2AXlmHSWWeMGdYMuWLZFZhbQdTrLCYVqZVGCMTENu0c7ysWj8DSkbk3dry13Gy0cajGxZDLBE2w2OLsvlY2cpnGQZEmVsjWRZY0olpfOHHDBVGIYPSYAceCgfAbAzwooWEGJFB8839NCkUInB2nAu/46eIiwCNJrgCykwjRX/6ZTmzZun5ABfFhy3vSEtH1WTZUb7zIxlwIU2lhnINlgwWXY8y8ezsimQb9oNBsGQK9aBI+J7iJsHsk4kjZOsstFGtmkXmK1J+4zG25YicVkuG7vgWSdZQTRi7CNQ1jmxRfiIVFamDDNyRTWNbwv2ajovrnFBjA4ouLAgI40gSwiwsCsYgiWqfGsowdhDYhEAezCmkzFzLHgz0kd2IVqMWDELQBqQZS+H2GUAdpApzCmYBydNmqSDBgZgnDOsHcPYGCbyDDiDORGZxnQLyYIkMJMWtwRIL2VjbbRtE5mP6nwvMER+0cTi24aFwQZePmCoeMk6yQqJWemKSCWFZCF0aF+owFRkBJKOCqFEzYqwQigYWaVj5N0Z/RBZwZ2RESMiCCnElMkDaAHBEEwJYO0heQgEZZl9k2W0McwggvBCtPDTQlNLeTGjFpN4ussy749GBBMrDtbMZMOXEFnGRMh36CBddFQux8mT4bLuHMSdNtoGD5QRWsbly5cr+WIxXsoK8zhlStmmi3zbu9qW9hmrAv6wrOuGTyF4MUOWAQQ4MeACTyOoZZWBn/sVASdZv2JRoT0qMtoABI8RE2SKj2ayCB7mQ6a6smAppIsOK12jEU9wQGNFxQUfyBWzf1hzjEYOLIONY4UKwxPHjQCYQwjAnwEDRIvOh5memAkoq7Fjx2p55eXlpa0cU395f6LJMvWbiIxDRlkPi87KNIQuz3GLZUIvRLaRafwN0cwgz/jS0gZZmdqWskyXtpp3tfdmS9uclZWldZ4BA24cDK5QDtA2EJ1kVVw0nWRVHDO9go7JNFkQLSIdFNqaAwcOqIBCuFBVM3pK50iFxYzC6AgNFv4qjJjQBlCBwdE6pjiLwy+rBAKmyaIRNVmGLNAxYdJF0wghNlmmPNNRnnlvizhVo/Fj8gsaLQZZ1H8wBE/XZFVCIBN8KWVBuSDTTExgAMFED2QaTQ2ynI4ybbJs724yjZkQKwyDXyNWtNFECKsPiCsmoE6yKoZXJDUNKQJIpGMKCqD5A1CpEVRTR6OSTrfIu2NmYgseqKfBi4oKTmwNRzD1kHoEKAcrAyubYPlAHpBbl+VfZRk8GCAYXmBIGwCObJFl12SlXpajPdEGxJSLlREyHTSVmWyzTYc2Ovi+7AfbaCwz1h7QDoCZbU2+XbajSVr0Y06youNS7lEqLoJnwkcja9FGsqTxUBKBoHkKvMDKcHS8SmKVin+Uh5WBNaYmx1Y+lIuXTcnSALcgdoYVW+QZvDjvoeoRoCyQcZNrL5vr/V5Nlk1+DSvbWj9HG8Exl+3wcu0kKzxW16VE0IhWae1/6e11F6b5gViYpTksVfr6scrEZTl2sRg20ep/7Kv8TFUhYOUV3FZVXqr6uWBQOiDHFjkXxMmOm6yXvtb/x0bASVZsbPyMI+AIOAKOgCPgCDgCcSPgJCtu6PxCR8ARcAQcAUfAEXAEYiPgJCs2Nn7GEXAEHAFHwBFwBByBuBFwkhU3dH6hI+AIOAKOgCPgCDgCsRFwkhUbGz/jCDgCjoAj4Ag4Ao5A3Ag4yYobOr/QEXAEHAFHwBFwBByB2Ag4yYqNjZ9xBBwBR8ARcAQcAUcgbgScZMUNnV/oCDgCjoAj4Ag4Ao5AbAScZMXGxs84Ao6AI+AIOAKOgCMQNwJOsuKGzi90BBwBR8ARcAQcAUcgNgJOsmJj42ccAUfAEXAEHAFHwBGIGwEnWXFD5xc6Ao6AI+AIOAKOgCMQGwEnWbGx8TOOgCPgCDgCjoAj4AjEjYCTrLih8wsdAUfAEXAEHAFHwBGIjYCTrNjY+BlHwBFwBBwBR8ARcATiRsBJVtzQ+YWOgCPgCDgCjoAj4AjERsBJVmxs/Iwj4Ag4Ao6AI+AIOAJxI+AkK27o/EJHwBFwBBwBR8ARcARiI+AkKzY2fsYRcAQcAUfAEXAEHIG4EXCSFTd0fqEj4Ag4Ao6AI+AIOAKxEXCSFRsbP+MIOAKOgCPgCDgCjkDcCPx/p2KlXf1J17kAAAAASUVORK5CYII=;" vertex="1" parent="1">
          <mxGeometry x="363.44" y="-270" width="473.13" height="370" as="geometry" />
        </mxCell>
        <mxCell id="qkxyxw7EoVa49rTZsXIX-15" style="edgeStyle=orthogonalEdgeStyle;rounded=0;orthogonalLoop=1;jettySize=auto;html=1;entryX=0.5;entryY=1;entryDx=0;entryDy=0;" edge="1" parent="1" source="qkxyxw7EoVa49rTZsXIX-5" target="qkxyxw7EoVa49rTZsXIX-10">
          <mxGeometry relative="1" as="geometry" />
        </mxCell>
        <mxCell id="qkxyxw7EoVa49rTZsXIX-78" value="Usb cable&amp;nbsp;" style="edgeLabel;html=1;align=center;verticalAlign=middle;resizable=0;points=[];fontSize=12;" vertex="1" connectable="0" parent="qkxyxw7EoVa49rTZsXIX-15">
          <mxGeometry x="-0.2931" y="-1" relative="1" as="geometry">
            <mxPoint as="offset" />
          </mxGeometry>
        </mxCell>
        <mxCell id="qkxyxw7EoVa49rTZsXIX-5" value="&lt;font style=&quot;font-size: 15px&quot;&gt;Arduino mega 2560&lt;/font&gt;" style="rounded=1;whiteSpace=wrap;html=1;" vertex="1" parent="1">
          <mxGeometry x="240" y="430" width="120" height="60" as="geometry" />
        </mxCell>
        <mxCell id="qkxyxw7EoVa49rTZsXIX-8" value="&lt;font style=&quot;font-size: 15px&quot;&gt;Lm298 motor driver&lt;/font&gt;" style="shape=process;whiteSpace=wrap;html=1;backgroundOutline=1;" vertex="1" parent="1">
          <mxGeometry x="420" y="530" width="120" height="60" as="geometry" />
        </mxCell>
        <mxCell id="qkxyxw7EoVa49rTZsXIX-17" style="edgeStyle=orthogonalEdgeStyle;rounded=0;orthogonalLoop=1;jettySize=auto;html=1;exitX=0.468;exitY=0;exitDx=0;exitDy=0;exitPerimeter=0;" edge="1" parent="1" source="qkxyxw7EoVa49rTZsXIX-9">
          <mxGeometry relative="1" as="geometry">
            <mxPoint x="240" y="470" as="targetPoint" />
            <Array as="points">
              <mxPoint x="116" y="470" />
            </Array>
          </mxGeometry>
        </mxCell>
        <mxCell id="qkxyxw7EoVa49rTZsXIX-9" value="Lm298 motor driver" style="shape=process;whiteSpace=wrap;html=1;backgroundOutline=1;" vertex="1" parent="1">
          <mxGeometry x="60" y="530" width="120" height="60" as="geometry" />
        </mxCell>
        <mxCell id="qkxyxw7EoVa49rTZsXIX-10" value="&lt;font style=&quot;font-size: 15px&quot;&gt;Raspberry pi 4&amp;nbsp;&lt;/font&gt;" style="rounded=1;whiteSpace=wrap;html=1;" vertex="1" parent="1">
          <mxGeometry x="240" y="290" width="120" height="60" as="geometry" />
        </mxCell>
        <mxCell id="qkxyxw7EoVa49rTZsXIX-21" value="&lt;font style=&quot;font-size: 15px&quot;&gt;DC Servo GM25-370&lt;br&gt;encoder&amp;nbsp;&amp;nbsp;&lt;/font&gt;" style="rounded=1;whiteSpace=wrap;html=1;" vertex="1" parent="1">
          <mxGeometry x="540" y="610" width="120" height="60" as="geometry" />
        </mxCell>
        <mxCell id="qkxyxw7EoVa49rTZsXIX-22" value="&lt;font style=&quot;font-size: 15px&quot;&gt;DC Servo GM25-370&lt;br&gt;encoder&amp;nbsp;&amp;nbsp;&lt;/font&gt;" style="rounded=1;whiteSpace=wrap;html=1;" vertex="1" parent="1">
          <mxGeometry x="320" y="610" width="120" height="60" as="geometry" />
        </mxCell>
        <mxCell id="qkxyxw7EoVa49rTZsXIX-23" value="&lt;font style=&quot;font-size: 15px&quot;&gt;DC Servo GM25-370&lt;br&gt;encoder&amp;nbsp;&amp;nbsp;&lt;/font&gt;" style="rounded=1;whiteSpace=wrap;html=1;" vertex="1" parent="1">
          <mxGeometry x="160" y="610" width="120" height="60" as="geometry" />
        </mxCell>
        <mxCell id="qkxyxw7EoVa49rTZsXIX-24" value="&lt;font style=&quot;font-size: 15px&quot;&gt;DC Servo GM25-370&lt;br&gt;encoder&amp;nbsp;&amp;nbsp;&lt;/font&gt;" style="rounded=1;whiteSpace=wrap;html=1;" vertex="1" parent="1">
          <mxGeometry x="-50" y="610" width="120" height="60" as="geometry" />
        </mxCell>
        <mxCell id="qkxyxw7EoVa49rTZsXIX-31" value="2 Left DC&amp;nbsp;" style="text;html=1;strokeColor=none;fillColor=none;align=center;verticalAlign=middle;whiteSpace=wrap;rounded=0;fontSize=20;fontStyle=1" vertex="1" parent="1">
          <mxGeometry x="-30" y="690" width="100" height="20" as="geometry" />
        </mxCell>
        <mxCell id="qkxyxw7EoVa49rTZsXIX-32" value="2 Right DC&amp;nbsp;" style="text;html=1;strokeColor=none;fillColor=none;align=center;verticalAlign=middle;whiteSpace=wrap;rounded=0;fontSize=20;fontStyle=1" vertex="1" parent="1">
          <mxGeometry x="530" y="700" width="120" height="20" as="geometry" />
        </mxCell>
        <mxCell id="qkxyxw7EoVa49rTZsXIX-39" style="edgeStyle=orthogonalEdgeStyle;rounded=0;orthogonalLoop=1;jettySize=auto;html=1;entryX=1;entryY=0.5;entryDx=0;entryDy=0;fontSize=20;" edge="1" parent="1" source="qkxyxw7EoVa49rTZsXIX-38" target="qkxyxw7EoVa49rTZsXIX-10">
          <mxGeometry relative="1" as="geometry" />
        </mxCell>
        <mxCell id="qkxyxw7EoVa49rTZsXIX-38" value="&lt;font style=&quot;font-size: 15px&quot;&gt;Lidar xv11&lt;/font&gt;" style="ellipse;whiteSpace=wrap;html=1;aspect=fixed;fontSize=20;" vertex="1" parent="1">
          <mxGeometry x="630" y="275" width="90" height="90" as="geometry" />
        </mxCell>
        <mxCell id="qkxyxw7EoVa49rTZsXIX-47" value="&lt;font style=&quot;font-size: 25px&quot;&gt;Low level&amp;nbsp; Hardware&amp;nbsp;&lt;/font&gt;" style="text;html=1;strokeColor=none;fillColor=none;align=center;verticalAlign=middle;whiteSpace=wrap;rounded=0;fontSize=20;" vertex="1" parent="1">
          <mxGeometry x="225" y="690" width="150" height="80" as="geometry" />
        </mxCell>
        <mxCell id="qkxyxw7EoVa49rTZsXIX-59" style="edgeStyle=orthogonalEdgeStyle;rounded=0;orthogonalLoop=1;jettySize=auto;html=1;fontSize=20;" edge="1" parent="1" source="qkxyxw7EoVa49rTZsXIX-50" target="qkxyxw7EoVa49rTZsXIX-53">
          <mxGeometry relative="1" as="geometry" />
        </mxCell>
        <mxCell id="qkxyxw7EoVa49rTZsXIX-61" value="12v" style="edgeLabel;html=1;align=center;verticalAlign=middle;resizable=0;points=[];fontSize=20;" vertex="1" connectable="0" parent="qkxyxw7EoVa49rTZsXIX-59">
          <mxGeometry x="-0.1959" y="-2" relative="1" as="geometry">
            <mxPoint as="offset" />
          </mxGeometry>
        </mxCell>
        <mxCell id="qkxyxw7EoVa49rTZsXIX-60" value="12v" style="edgeStyle=orthogonalEdgeStyle;rounded=0;orthogonalLoop=1;jettySize=auto;html=1;fontSize=20;" edge="1" parent="1" source="qkxyxw7EoVa49rTZsXIX-50" target="qkxyxw7EoVa49rTZsXIX-54">
          <mxGeometry relative="1" as="geometry" />
        </mxCell>
        <mxCell id="qkxyxw7EoVa49rTZsXIX-50" value="12V 10A Power&amp;nbsp;" style="whiteSpace=wrap;html=1;aspect=fixed;fontSize=20;" vertex="1" parent="1">
          <mxGeometry x="245" y="810" width="120" height="120" as="geometry" />
        </mxCell>
        <mxCell id="qkxyxw7EoVa49rTZsXIX-62" value="5V" style="edgeStyle=orthogonalEdgeStyle;rounded=0;orthogonalLoop=1;jettySize=auto;html=1;fontSize=20;" edge="1" parent="1" source="qkxyxw7EoVa49rTZsXIX-53" target="qkxyxw7EoVa49rTZsXIX-9">
          <mxGeometry relative="1" as="geometry" />
        </mxCell>
        <mxCell id="qkxyxw7EoVa49rTZsXIX-53" value="LM2596" style="rounded=0;whiteSpace=wrap;html=1;fontSize=20;rotation=-90;" vertex="1" parent="1">
          <mxGeometry x="60" y="810" width="120" height="60" as="geometry" />
        </mxCell>
        <mxCell id="qkxyxw7EoVa49rTZsXIX-63" value="5V" style="edgeStyle=orthogonalEdgeStyle;rounded=0;orthogonalLoop=1;jettySize=auto;html=1;fontSize=20;" edge="1" parent="1" source="qkxyxw7EoVa49rTZsXIX-54" target="qkxyxw7EoVa49rTZsXIX-8">
          <mxGeometry relative="1" as="geometry" />
        </mxCell>
        <mxCell id="qkxyxw7EoVa49rTZsXIX-54" value="LM2596" style="rounded=0;whiteSpace=wrap;html=1;fontSize=20;rotation=-90;" vertex="1" parent="1">
          <mxGeometry x="420" y="810" width="120" height="60" as="geometry" />
        </mxCell>
        <mxCell id="qkxyxw7EoVa49rTZsXIX-66" style="edgeStyle=orthogonalEdgeStyle;orthogonalLoop=1;jettySize=auto;html=1;entryX=0;entryY=0.5;entryDx=0;entryDy=0;fontSize=20;rounded=0;" edge="1" parent="1" source="qkxyxw7EoVa49rTZsXIX-65" target="qkxyxw7EoVa49rTZsXIX-10">
          <mxGeometry relative="1" as="geometry" />
        </mxCell>
        <mxCell id="qkxyxw7EoVa49rTZsXIX-65" value="Power&amp;nbsp;&lt;br&gt;Mobile 5v-3A" style="rounded=0;whiteSpace=wrap;html=1;fontSize=20;" vertex="1" parent="1">
          <mxGeometry x="-80" y="295" width="180" height="50" as="geometry" />
        </mxCell>
        <mxCell id="qkxyxw7EoVa49rTZsXIX-83" value="" style="endArrow=classic;html=1;fontSize=12;strokeColor=#000000;exitX=0;exitY=0.5;exitDx=0;exitDy=0;" edge="1" parent="1" source="qkxyxw7EoVa49rTZsXIX-9">
          <mxGeometry width="50" height="50" relative="1" as="geometry">
            <mxPoint x="180" y="610" as="sourcePoint" />
            <mxPoint x="10" y="610" as="targetPoint" />
            <Array as="points">
              <mxPoint x="10" y="560" />
              <mxPoint x="10" y="610" />
            </Array>
          </mxGeometry>
        </mxCell>
        <mxCell id="qkxyxw7EoVa49rTZsXIX-85" value="12V" style="edgeLabel;html=1;align=center;verticalAlign=middle;resizable=0;points=[];fontSize=12;" vertex="1" connectable="0" parent="qkxyxw7EoVa49rTZsXIX-83">
          <mxGeometry x="-0.388" y="-2" relative="1" as="geometry">
            <mxPoint as="offset" />
          </mxGeometry>
        </mxCell>
        <mxCell id="qkxyxw7EoVa49rTZsXIX-84" value="" style="endArrow=classic;html=1;fontSize=12;strokeColor=#000000;exitX=1;exitY=0.5;exitDx=0;exitDy=0;entryX=0.503;entryY=-0.028;entryDx=0;entryDy=0;entryPerimeter=0;" edge="1" parent="1" source="qkxyxw7EoVa49rTZsXIX-9" target="qkxyxw7EoVa49rTZsXIX-23">
          <mxGeometry width="50" height="50" relative="1" as="geometry">
            <mxPoint x="69.99999999999977" y="570" as="sourcePoint" />
            <mxPoint x="19.999999999999773" y="620" as="targetPoint" />
            <Array as="points">
              <mxPoint x="220" y="560" />
              <mxPoint x="220" y="590" />
            </Array>
          </mxGeometry>
        </mxCell>
        <mxCell id="qkxyxw7EoVa49rTZsXIX-86" value="12V" style="edgeLabel;html=1;align=center;verticalAlign=middle;resizable=0;points=[];fontSize=12;" vertex="1" connectable="0" parent="qkxyxw7EoVa49rTZsXIX-84">
          <mxGeometry x="-0.2616" relative="1" as="geometry">
            <mxPoint as="offset" />
          </mxGeometry>
        </mxCell>
        <mxCell id="qkxyxw7EoVa49rTZsXIX-96" value="" style="endArrow=classic;html=1;fontSize=12;strokeColor=#000000;exitX=0;exitY=0.5;exitDx=0;exitDy=0;entryX=0.5;entryY=0;entryDx=0;entryDy=0;" edge="1" parent="1" source="qkxyxw7EoVa49rTZsXIX-8" target="qkxyxw7EoVa49rTZsXIX-22">
          <mxGeometry width="50" height="50" relative="1" as="geometry">
            <mxPoint x="190" y="570" as="sourcePoint" />
            <mxPoint x="230.3599999999999" y="618.3200000000002" as="targetPoint" />
            <Array as="points">
              <mxPoint x="380" y="560" />
            </Array>
          </mxGeometry>
        </mxCell>
        <mxCell id="qkxyxw7EoVa49rTZsXIX-97" value="12V" style="edgeLabel;html=1;align=center;verticalAlign=middle;resizable=0;points=[];fontSize=12;" vertex="1" connectable="0" parent="qkxyxw7EoVa49rTZsXIX-96">
          <mxGeometry x="-0.2616" relative="1" as="geometry">
            <mxPoint as="offset" />
          </mxGeometry>
        </mxCell>
        <mxCell id="qkxyxw7EoVa49rTZsXIX-100" value="" style="endArrow=classic;html=1;fontSize=12;strokeColor=#000000;exitX=1;exitY=0.5;exitDx=0;exitDy=0;entryX=0.337;entryY=0.009;entryDx=0;entryDy=0;entryPerimeter=0;" edge="1" parent="1" source="qkxyxw7EoVa49rTZsXIX-8" target="qkxyxw7EoVa49rTZsXIX-21">
          <mxGeometry width="50" height="50" relative="1" as="geometry">
            <mxPoint x="440" y="580" as="sourcePoint" />
            <mxPoint x="400" y="630" as="targetPoint" />
            <Array as="points">
              <mxPoint x="580" y="560" />
            </Array>
          </mxGeometry>
        </mxCell>
        <mxCell id="qkxyxw7EoVa49rTZsXIX-101" value="12V" style="edgeLabel;html=1;align=center;verticalAlign=middle;resizable=0;points=[];fontSize=12;" vertex="1" connectable="0" parent="qkxyxw7EoVa49rTZsXIX-100">
          <mxGeometry x="-0.2616" relative="1" as="geometry">
            <mxPoint as="offset" />
          </mxGeometry>
        </mxCell>
        <mxCell id="qkxyxw7EoVa49rTZsXIX-107" value="Encoder wire R1" style="endArrow=classic;html=1;fontSize=12;strokeColor=#000000;exitX=0.75;exitY=0;exitDx=0;exitDy=0;entryX=1;entryY=0.25;entryDx=0;entryDy=0;" edge="1" parent="1" source="qkxyxw7EoVa49rTZsXIX-21" target="qkxyxw7EoVa49rTZsXIX-5">
          <mxGeometry width="50" height="50" relative="1" as="geometry">
            <mxPoint x="440" y="570" as="sourcePoint" />
            <mxPoint x="490" y="520" as="targetPoint" />
            <Array as="points">
              <mxPoint x="630" y="445" />
            </Array>
          </mxGeometry>
        </mxCell>
        <mxCell id="qkxyxw7EoVa49rTZsXIX-108" value="Encoder wire L1" style="endArrow=classic;html=1;fontSize=12;strokeColor=#000000;entryX=0;entryY=0.25;entryDx=0;entryDy=0;exitX=0.25;exitY=0;exitDx=0;exitDy=0;" edge="1" parent="1" source="qkxyxw7EoVa49rTZsXIX-24" target="qkxyxw7EoVa49rTZsXIX-5">
          <mxGeometry width="50" height="50" relative="1" as="geometry">
            <mxPoint x="300" y="630" as="sourcePoint" />
            <mxPoint x="350" y="580" as="targetPoint" />
            <Array as="points">
              <mxPoint x="-20" y="445" />
            </Array>
          </mxGeometry>
        </mxCell>
        <mxCell id="qkxyxw7EoVa49rTZsXIX-109" value="" style="endArrow=classic;html=1;fontSize=12;strokeColor=#000000;exitX=0.5;exitY=0;exitDx=0;exitDy=0;entryX=1.007;entryY=0.624;entryDx=0;entryDy=0;entryPerimeter=0;rounded=0;" edge="1" parent="1" source="qkxyxw7EoVa49rTZsXIX-8" target="qkxyxw7EoVa49rTZsXIX-5">
          <mxGeometry width="50" height="50" relative="1" as="geometry">
            <mxPoint x="480" y="550" as="sourcePoint" />
            <mxPoint x="530" y="500" as="targetPoint" />
            <Array as="points">
              <mxPoint x="480" y="467" />
            </Array>
          </mxGeometry>
        </mxCell>
        <mxCell id="qkxyxw7EoVa49rTZsXIX-115" value="Encoder wire R2&amp;nbsp;" style="endArrow=classic;html=1;fontSize=12;strokeColor=#000000;exitX=0.089;exitY=0.006;exitDx=0;exitDy=0;exitPerimeter=0;entryX=0.75;entryY=1;entryDx=0;entryDy=0;verticalAlign=middle;labelPosition=center;verticalLabelPosition=middle;align=center;labelBorderColor=none;horizontal=0;" edge="1" parent="1" source="qkxyxw7EoVa49rTZsXIX-22" target="qkxyxw7EoVa49rTZsXIX-5">
          <mxGeometry width="50" height="50" relative="1" as="geometry">
            <mxPoint x="350" y="590" as="sourcePoint" />
            <mxPoint x="400" y="540" as="targetPoint" />
          </mxGeometry>
        </mxCell>
        <mxCell id="qkxyxw7EoVa49rTZsXIX-116" value="Encoder wire L2" style="endArrow=classic;html=1;fontSize=12;strokeColor=#000000;exitX=0.089;exitY=0.006;exitDx=0;exitDy=0;exitPerimeter=0;entryX=0.75;entryY=1;entryDx=0;entryDy=0;horizontal=0;" edge="1" parent="1">
          <mxGeometry width="50" height="50" relative="1" as="geometry">
            <mxPoint x="260.68000000000006" y="610.3599999999999" as="sourcePoint" />
            <mxPoint x="260" y="490" as="targetPoint" />
          </mxGeometry>
        </mxCell>
      </root>
    </mxGraphModel>
  </diagram>
</mxfile>
